<svg width="27" height="27" viewBox="0 0 27 27" fill="none" xmlns="http://www.w3.org/2000/svg">
<path d="M13.5 7.875C13.5 6.68153 13.0259 5.53693 12.182 4.69302C11.3381 3.84911 10.1935 3.375 9 3.375H2.25V20.25H10.125C11.0201 20.25 11.8786 20.6056 12.5115 21.2385C13.1444 21.8714 13.5 22.7299 13.5 23.625M13.5 7.875V23.625M13.5 7.875C13.5 6.68153 13.9741 5.53693 14.818 4.69302C15.6619 3.84911 16.8065 3.375 18 3.375H24.75V20.25H16.875C15.9799 20.25 15.1214 20.6056 14.4885 21.2385C13.8556 21.8714 13.5 22.7299 13.5 23.625" stroke="#B3B3B3" stroke-width="1.6" stroke-linecap="round" stroke-linejoin="round"/>
</svg>
