<svg width="52" height="10" viewBox="0 0 52 10" fill="none" xmlns="http://www.w3.org/2000/svg">
<path d="M1.22615 8.7609H5.60977V9.75834H0V0.508247H1.22615V8.7609Z" fill="#FF0E0E"/>
<path d="M11.6389 1.51203H8.66561V9.75834H7.45217V1.51203H4.48528V0.508247H11.6389V1.51203Z" fill="#FF0E0E"/>
<path d="M13.0111 9.75834V0.508247H15.6222C16.427 0.508247 17.1385 0.686133 17.7569 1.04191C18.3752 1.39768 18.8517 1.90381 19.1863 2.56029C19.5251 3.21678 19.6967 3.97068 19.7009 4.82199V5.41283C19.7009 6.28532 19.5315 7.04981 19.1927 7.70629C18.8581 8.36278 18.3774 8.86679 17.7505 9.21833C17.1279 9.56986 16.4015 9.74987 15.5714 9.75834H13.0111ZM14.2309 1.51203V8.7609H15.5142C16.4545 8.7609 17.1851 8.46866 17.706 7.88418C18.2312 7.29969 18.4938 6.46744 18.4938 5.38742V4.8474C18.4938 3.79703 18.2461 2.98171 17.7505 2.40147C17.2592 1.81698 16.5604 1.5205 15.654 1.51203H14.2309Z" fill="#FF0E0E"/>
<path d="M29.8786 5.6733H25.9968V9.75834H24.777V0.508247H30.5075V1.51203H25.9968V4.67587H29.8786V5.6733Z" fill="#FF0E0E"/>
<path d="M31.3334 6.25779C31.3334 5.58436 31.4647 4.9787 31.7273 4.44081C31.9941 3.90291 32.3626 3.48784 32.8327 3.1956C33.3071 2.90336 33.8471 2.75724 34.4528 2.75724C35.3888 2.75724 36.1448 3.08125 36.7208 3.72926C37.3011 4.37728 37.5912 5.23918 37.5912 6.31497V6.39756C37.5912 7.06675 37.462 7.66817 37.2037 8.20183C36.9495 8.73126 36.5832 9.14421 36.1046 9.44068C35.6302 9.73716 35.0839 9.8854 34.4655 9.8854C33.5337 9.8854 32.7777 9.56139 32.1974 8.91338C31.6214 8.26536 31.3334 7.4077 31.3334 6.34038V6.25779ZM32.5151 6.39756C32.5151 7.15993 32.6909 7.77194 33.0424 8.2336C33.3982 8.69526 33.8725 8.92608 34.4655 8.92608C35.0627 8.92608 35.537 8.69314 35.8886 8.22724C36.2401 7.75712 36.4159 7.10063 36.4159 6.25779C36.4159 5.50389 36.2359 4.89399 35.8759 4.4281C35.5201 3.95797 35.0457 3.72291 34.4528 3.72291C33.8725 3.72291 33.4045 3.95374 33.0487 4.41539C32.693 4.87705 32.5151 5.53777 32.5151 6.39756Z" fill="#FF0E0E"/>
<path d="M38.7538 6.25779C38.7538 5.58436 38.8851 4.9787 39.1477 4.44081C39.4145 3.90291 39.783 3.48784 40.2531 3.1956C40.7275 2.90336 41.2675 2.75724 41.8732 2.75724C42.8092 2.75724 43.5652 3.08125 44.1412 3.72926C44.7215 4.37728 45.0116 5.23918 45.0116 6.31497V6.39756C45.0116 7.06675 44.8824 7.66817 44.6241 8.20183C44.3699 8.73126 44.0036 9.14421 43.525 9.44068C43.0506 9.73716 42.5043 9.8854 41.8859 9.8854C40.9541 9.8854 40.1981 9.56139 39.6178 8.91338C39.0418 8.26536 38.7538 7.4077 38.7538 6.34038V6.25779ZM39.9355 6.39756C39.9355 7.15993 40.1113 7.77194 40.4628 8.2336C40.8186 8.69526 41.2929 8.92608 41.8859 8.92608C42.4831 8.92608 42.9574 8.69314 43.309 8.22724C43.6605 7.75712 43.8363 7.10063 43.8363 6.25779C43.8363 5.50389 43.6563 4.89399 43.2963 4.4281C42.9405 3.95797 42.4661 3.72291 41.8732 3.72291C41.2929 3.72291 40.8249 3.95374 40.4692 4.41539C40.1134 4.87705 39.9355 5.53777 39.9355 6.39756Z" fill="#FF0E0E"/>
<path d="M46.1996 6.26414C46.1996 5.20953 46.4495 4.36245 46.9493 3.72291C47.4491 3.07913 48.1034 2.75724 48.9124 2.75724C49.7171 2.75724 50.3546 3.03254 50.8247 3.58314V0H52V9.75834H50.92L50.8628 9.02138C50.3927 9.59739 49.7383 9.8854 48.8997 9.8854C48.1034 9.8854 47.4533 9.55927 46.9493 8.90703C46.4495 8.25478 46.1996 7.40346 46.1996 6.35308V6.26414ZM47.375 6.39756C47.375 7.17687 47.5359 7.78676 47.8578 8.22724C48.1797 8.66773 48.6244 8.88797 49.1919 8.88797C49.9374 8.88797 50.4816 8.55337 50.8247 7.88418V4.7267C50.4731 4.07868 49.9331 3.75467 49.2046 3.75467C48.6286 3.75467 48.1797 3.97703 47.8578 4.42175C47.5359 4.86646 47.375 5.52507 47.375 6.39756Z" fill="#FF0E0E"/>
</svg>
