<svg width="29" height="13" viewBox="0 0 29 13" fill="none" xmlns="http://www.w3.org/2000/svg">
<path d="M3.34864 5.73406C2.28414 5.42807 1.5084 5.05313 1.0214 4.60923C0.538713 4.16102 0.29737 3.60938 0.29737 2.9543C0.29737 2.21303 0.592584 1.60106 1.18301 1.11837C1.77775 0.631372 2.54919 0.387873 3.49733 0.387873C4.14378 0.387873 4.71913 0.512855 5.22336 0.762818C5.73191 1.01278 6.12409 1.35756 6.39991 1.79715C6.68004 2.23674 6.82011 2.71727 6.82011 3.23874H5.57245C5.57245 2.66986 5.39144 2.22381 5.02942 1.90058C4.66741 1.57304 4.15671 1.40927 3.49733 1.40927C2.88535 1.40927 2.40697 1.54503 2.06219 1.81654C1.72173 2.08374 1.55149 2.45653 1.55149 2.93491C1.55149 3.31847 1.71311 3.64385 2.03634 3.91106C2.36387 4.17395 2.91767 4.41529 3.69773 4.63509C4.48209 4.85488 5.09407 5.09838 5.53366 5.36558C5.97756 5.62847 6.3051 5.93662 6.51627 6.29001C6.73176 6.64341 6.8395 7.0593 6.8395 7.53767C6.8395 8.30049 6.54213 8.91247 5.94739 9.37361C5.35265 9.83044 4.55751 10.0588 3.56197 10.0588C2.91551 10.0588 2.31216 9.93602 1.75189 9.69037C1.19163 9.44041 0.758508 9.09994 0.452519 8.66897C0.15084 8.238 0 7.74885 0 7.20152H1.24766C1.24766 7.7704 1.45668 8.22076 1.87472 8.55261C2.29707 8.88015 2.85949 9.04391 3.56197 9.04391C4.21705 9.04391 4.71913 8.91031 5.06821 8.64311C5.4173 8.37591 5.59184 8.01174 5.59184 7.5506C5.59184 7.08946 5.43023 6.73391 5.107 6.48395C4.78377 6.22968 4.19765 5.97971 3.34864 5.73406Z" fill="#7D5B5B"/>
<path d="M9.44472 3.78177C9.97481 3.131 10.6644 2.80562 11.5134 2.80562C12.9916 2.80562 13.7372 3.63955 13.7501 5.3074V9.92956H12.5542V5.30094C12.5499 4.7967 12.4335 4.42391 12.2051 4.18257C11.981 3.94122 11.6297 3.82055 11.1514 3.82055C10.7635 3.82055 10.423 3.92399 10.13 4.13085C9.8369 4.33772 9.60849 4.60923 9.44472 4.94539V9.92956H8.24877V0H9.44472V3.78177Z" fill="#7D5B5B"/>
<path d="M15.224 6.36759C15.224 5.68235 15.3576 5.06606 15.6248 4.51872C15.8963 3.97139 16.2713 3.54904 16.7497 3.25167C17.2324 2.9543 17.7818 2.80562 18.3981 2.80562C19.3506 2.80562 20.1199 3.13531 20.706 3.79469C21.2964 4.45408 21.5916 5.3311 21.5916 6.42577V6.50981C21.5916 7.19074 21.4602 7.80272 21.1973 8.34574C20.9387 8.88446 20.5659 9.30465 20.0789 9.60633C19.5962 9.90801 19.0403 10.0588 18.4111 10.0588C17.4629 10.0588 16.6936 9.72916 16.1032 9.06977C15.5171 8.41039 15.224 7.53767 15.224 6.45163V6.36759ZM16.4264 6.50981C16.4264 7.28556 16.6053 7.90831 16.963 8.37807C17.325 8.84782 17.8077 9.0827 18.4111 9.0827C19.0187 9.0827 19.5014 8.84567 19.8591 8.3716C20.2168 7.89322 20.3957 7.22522 20.3957 6.36759C20.3957 5.60046 20.2125 4.97986 19.8462 4.5058C19.4842 4.02742 19.0015 3.78823 18.3981 3.78823C17.8077 3.78823 17.3315 4.02311 16.9695 4.49287C16.6074 4.96262 16.4264 5.63494 16.4264 6.50981Z" fill="#7D5B5B"/>
<path d="M29 6.50981C29 7.57431 28.7565 8.43194 28.2695 9.0827C27.7825 9.73347 27.1231 10.0588 26.2914 10.0588C25.4423 10.0588 24.7743 9.78949 24.2873 9.25078V12.6188H23.0914V2.93491H24.1839L24.2421 3.71066C24.7291 3.1073 25.4057 2.80562 26.272 2.80562C27.1123 2.80562 27.776 3.12238 28.263 3.75591C28.7543 4.38943 29 5.27077 29 6.39991V6.50981ZM27.8041 6.37405C27.8041 5.58538 27.636 4.96262 27.2998 4.5058C26.9637 4.04897 26.5025 3.82055 25.9164 3.82055C25.1924 3.82055 24.6494 4.14163 24.2873 4.78377V8.12595C24.645 8.76378 25.1924 9.0827 25.9293 9.0827C26.5025 9.0827 26.9572 8.85644 27.2934 8.40392C27.6338 7.94709 27.8041 7.27047 27.8041 6.37405Z" fill="#7D5B5B"/>
</svg>
