<svg width="129" height="13" viewBox="0 0 129 13" fill="none" xmlns="http://www.w3.org/2000/svg">
<path d="M3.55087 12.5773H2.36936V4.74508L0 5.61532V4.54816L3.36665 3.28408H3.55087V12.5773Z" fill="black"/>
<path d="M9.64896 8.27689L8.51827 9.45204V12.5773H7.29865V3.32854H8.51827V7.90211L12.6281 3.32854H14.1018L10.462 7.41299L14.3877 12.5773H12.9267L9.64896 8.27689Z" fill="black"/>
<path d="M22.0802 11.364C21.7668 11.8129 21.3285 12.1496 20.7653 12.374C20.2063 12.5942 19.5541 12.7044 18.8088 12.7044C18.055 12.7044 17.3859 12.5286 16.8015 12.1771C16.2171 11.8214 15.764 11.3175 15.4421 10.6653C15.1245 10.0131 14.9615 9.25724 14.953 8.39758V7.59085C14.953 6.19761 15.277 5.11774 15.9249 4.35124C16.5771 3.58475 17.4918 3.2015 18.669 3.2015C19.6346 3.2015 20.4117 3.44923 21.0003 3.9447C21.5889 4.43594 21.9489 5.13468 22.0802 6.04092H20.8605C20.6319 4.81707 19.9035 4.20514 18.6754 4.20514C17.8581 4.20514 17.2377 4.49311 16.8142 5.06904C16.395 5.64073 16.1832 6.47075 16.179 7.55909V8.315C16.179 9.35252 16.4161 10.1783 16.8904 10.7923C17.3647 11.4022 18.0063 11.7071 18.8151 11.7071C19.2725 11.7071 19.6727 11.6562 20.0157 11.5546C20.3587 11.453 20.6425 11.2815 20.8669 11.0401V8.96292H18.7262V7.97198H22.0802V11.364Z" fill="black"/>
<path d="M29.6964 8.27689L28.5657 9.45204V12.5773H27.3461V3.32854H28.5657V7.90211L32.6756 3.32854H34.1493L30.5095 7.41299L34.4351 12.5773H32.9741L29.6964 8.27689Z" fill="black"/>
<path d="M42.6104 12.5773H41.3844V8.30229H36.7219V12.5773H35.5023V3.32854H36.7219V7.305H41.3844V3.32854H42.6104V12.5773Z" fill="black"/>
<path d="M51.8909 8.25148C51.8909 9.15772 51.7385 9.94963 51.4336 10.6272C51.1287 11.3005 50.6967 11.815 50.1377 12.1708C49.5787 12.5265 48.9266 12.7044 48.1813 12.7044C47.4529 12.7044 46.8071 12.5265 46.2438 12.1708C45.6806 11.8108 45.2423 11.3005 44.9289 10.6399C44.6198 9.97503 44.461 9.20642 44.4525 8.33406V7.66708C44.4525 6.77777 44.6071 5.99222 44.9162 5.31042C45.2254 4.62862 45.6616 4.10774 46.2248 3.74778C46.7923 3.38359 47.4402 3.2015 48.1686 3.2015C48.9096 3.2015 49.5618 3.38148 50.125 3.74143C50.6925 4.09715 51.1287 4.61592 51.4336 5.29772C51.7385 5.97528 51.8909 6.76507 51.8909 7.66708V8.25148ZM50.6777 7.65437C50.6777 6.55756 50.4575 5.71696 50.017 5.13256C49.5766 4.54392 48.9605 4.24961 48.1686 4.24961C47.3978 4.24961 46.7901 4.54392 46.3455 5.13256C45.9051 5.71696 45.6785 6.53004 45.6658 7.57179V8.25148C45.6658 9.31441 45.8881 10.1508 46.3328 10.7606C46.7817 11.3662 47.3978 11.6689 48.1813 11.6689C48.9689 11.6689 49.5787 11.3831 50.0107 10.8114C50.4426 10.2355 50.665 9.41181 50.6777 8.34041V7.65437ZM50.1123 2.57898V2.64251H49.1404L48.1876 1.56264L47.2411 2.64251H46.2693V2.56628L47.8319 0.838487H48.5433L50.1123 2.57898Z" fill="black"/>
<path d="M63.7759 11.364C63.4625 11.8129 63.0242 12.1496 62.461 12.374C61.902 12.5942 61.2498 12.7044 60.5045 12.7044C59.7507 12.7044 59.0816 12.5286 58.4972 12.1771C57.9128 11.8214 57.4597 11.3175 57.1378 10.6653C56.8202 10.0131 56.6572 9.25724 56.6487 8.39758V7.59085C56.6487 6.19761 56.9727 5.11774 57.6206 4.35124C58.2727 3.58475 59.1875 3.2015 60.3647 3.2015C61.3303 3.2015 62.1073 3.44923 62.696 3.9447C63.2846 4.43594 63.6446 5.13468 63.7759 6.04092H62.5562C62.3276 4.81707 61.5992 4.20514 60.3711 4.20514C59.5538 4.20514 58.9334 4.49311 58.5099 5.06904C58.0907 5.64073 57.8789 6.47075 57.8747 7.55909V8.315C57.8747 9.35252 58.1118 10.1783 58.5861 10.7923C59.0604 11.4022 59.702 11.7071 60.5108 11.7071C60.9682 11.7071 61.3684 11.6562 61.7114 11.5546C62.0544 11.453 62.3381 11.2815 62.5626 11.0401V8.96292H60.4219V7.97198H63.7759V11.364Z" fill="black"/>
<path d="M70.9221 10.1635H67.0472L66.177 12.5773H64.9192L68.4511 3.32854H69.5182L73.0564 12.5773H71.805L70.9221 10.1635ZM67.4156 9.15984H70.56L68.9846 4.83401L67.4156 9.15984ZM69.6834 2.71873H68.6734L67.0345 0.851192H68.4511L69.6834 2.71873Z" fill="black"/>
<path d="M77.5283 12.5773V3.32854H80.5519C81.5556 3.32854 82.3094 3.53604 82.8133 3.95105C83.3215 4.36606 83.5756 4.98011 83.5756 5.79318C83.5756 6.22513 83.4528 6.60838 83.2072 6.94293C82.9615 7.27324 82.627 7.52945 82.2035 7.71154C82.7032 7.85129 83.0971 8.11808 83.385 8.51192C83.6772 8.90152 83.8233 9.36734 83.8233 9.9094C83.8233 10.7394 83.5544 11.3916 83.0166 11.8659C82.4788 12.3402 81.7186 12.5773 80.7362 12.5773H77.5283ZM78.7479 8.25148V11.58H80.7616C81.329 11.58 81.7758 11.4339 82.1019 11.1417C82.4322 10.8453 82.5974 10.4387 82.5974 9.9221C82.5974 8.80835 81.9918 8.25148 80.7806 8.25148H78.7479ZM78.7479 7.27324H80.5901C81.1236 7.27324 81.5492 7.13985 81.8669 6.87305C82.1887 6.60626 82.3496 6.24419 82.3496 5.78683C82.3496 5.27866 82.2014 4.91023 81.905 4.68155C81.6085 4.44864 81.1575 4.33218 80.5519 4.33218H78.7479V7.27324Z" fill="black"/>
<path d="M92.6401 8.25148C92.6401 9.15772 92.4877 9.94963 92.1828 10.6272C91.8779 11.3005 91.4459 11.815 90.8869 12.1708C90.3279 12.5265 89.6758 12.7044 88.9305 12.7044C88.2063 12.7044 87.5626 12.5265 86.9994 12.1708C86.4362 11.815 85.9958 11.3005 85.6782 10.6272C85.3648 9.95386 85.206 9.1789 85.2017 8.30229V7.66708C85.2017 6.77777 85.3563 5.99434 85.6655 5.31677C85.9746 4.63497 86.4108 4.11198 86.974 3.74778C87.5415 3.38359 88.1894 3.2015 88.9178 3.2015C89.9341 3.2015 90.7705 3.52969 91.4269 4.18608C91.8334 4.15644 92.1341 4.00399 92.3289 3.72873C92.5279 3.44923 92.6274 3.02999 92.6274 2.471H93.6883C93.6883 3.88118 93.1314 4.71543 92.0176 4.97375C92.4284 5.70214 92.6359 6.58721 92.6401 7.62896V8.25148ZM91.4332 7.65437C91.4332 6.5618 91.213 5.72119 90.7726 5.13256C90.3364 4.54392 89.7181 4.24961 88.9178 4.24961C88.147 4.24961 87.5393 4.54392 87.0947 5.13256C86.6543 5.71696 86.4277 6.53004 86.415 7.57179V8.25148C86.415 9.31441 86.6373 10.1508 87.082 10.7606C87.5309 11.3662 88.147 11.6689 88.9305 11.6689C89.7393 11.6689 90.3576 11.3704 90.7853 10.7733C91.2173 10.1762 91.4332 9.33346 91.4332 8.24513V7.65437Z" fill="black"/>
<path d="M103.928 4.33218H100.955V12.5773H99.7419V4.33218H96.7754V3.32854H103.928V4.33218Z" fill="black"/>
<path d="M112.237 8.25148C112.237 9.15772 112.084 9.94963 111.779 10.6272C111.474 11.3005 111.042 11.815 110.483 12.1708C109.924 12.5265 109.272 12.7044 108.527 12.7044C107.799 12.7044 107.153 12.5265 106.59 12.1708C106.026 11.8108 105.588 11.3005 105.275 10.6399C104.965 9.97503 104.807 9.20642 104.798 8.33406V7.66708C104.798 6.77777 104.953 5.99222 105.262 5.31042C105.571 4.62862 106.007 4.10774 106.57 3.74778C107.138 3.38359 107.786 3.2015 108.514 3.2015C109.255 3.2015 109.907 3.38148 110.471 3.74143C111.038 4.09715 111.474 4.61592 111.779 5.29772C112.084 5.97528 112.237 6.76507 112.237 7.66708V8.25148ZM111.023 7.65437C111.023 6.55756 110.803 5.71696 110.363 5.13256C109.922 4.54392 109.306 4.24961 108.514 4.24961C107.744 4.24961 107.136 4.54392 106.691 5.13256C106.251 5.71696 106.024 6.53004 106.011 7.57179V8.25148C106.011 9.31441 106.234 10.1508 106.678 10.7606C107.127 11.3662 107.744 11.6689 108.527 11.6689C109.315 11.6689 109.924 11.3831 110.356 10.8114C110.788 10.2355 111.011 9.41181 111.023 8.34041V7.65437ZM108.139 2.61074L108.133 1.63886C108.451 1.61769 108.684 1.57534 108.832 1.51182C108.98 1.4483 109.054 1.33396 109.054 1.1688C109.054 1.00364 108.957 0.880835 108.762 0.800374C108.571 0.715679 108.317 0.673331 108 0.673331L108.044 0C108.675 0 109.154 0.110104 109.48 0.330313C109.806 0.546287 109.969 0.834252 109.969 1.19421C109.969 1.45253 109.886 1.66639 109.721 1.83578C109.556 2.00517 109.31 2.11316 108.984 2.15974L108.978 2.61074H108.139Z" fill="black"/>
<path d="M115.375 12.5773H114.155V3.32854H115.375V12.5773Z" fill="black"/>
<path d="M120.679 11.9611C120.679 11.7579 120.738 11.5885 120.857 11.453C120.979 11.3175 121.161 11.2497 121.403 11.2497C121.644 11.2497 121.826 11.3175 121.949 11.453C122.076 11.5885 122.14 11.7579 122.14 11.9611C122.14 12.1559 122.076 12.319 121.949 12.4503C121.826 12.5815 121.644 12.6472 121.403 12.6472C121.161 12.6472 120.979 12.5815 120.857 12.4503C120.738 12.319 120.679 12.1559 120.679 11.9611Z" fill="black"/>
<path d="M124.109 11.9611C124.109 11.7579 124.168 11.5885 124.287 11.453C124.409 11.3175 124.592 11.2497 124.833 11.2497C125.074 11.2497 125.256 11.3175 125.379 11.453C125.506 11.5885 125.57 11.7579 125.57 11.9611C125.57 12.1559 125.506 12.319 125.379 12.4503C125.256 12.5815 125.074 12.6472 124.833 12.6472C124.592 12.6472 124.409 12.5815 124.287 12.4503C124.168 12.319 124.109 12.1559 124.109 11.9611Z" fill="black"/>
<path d="M127.539 11.9611C127.539 11.7579 127.598 11.5885 127.717 11.453C127.84 11.3175 128.022 11.2497 128.263 11.2497C128.505 11.2497 128.687 11.3175 128.809 11.453C128.936 11.5885 129 11.7579 129 11.9611C129 12.1559 128.936 12.319 128.809 12.4503C128.687 12.5815 128.505 12.6472 128.263 12.6472C128.022 12.6472 127.84 12.5815 127.717 12.4503C127.598 12.319 127.539 12.1559 127.539 11.9611Z" fill="black"/>
</svg>
