<svg width="294" height="29" viewBox="0 0 294 29" fill="none" xmlns="http://www.w3.org/2000/svg">
<path d="M0.488773 10.899V1.65675H3.51028C4.51321 1.65675 5.26647 1.86411 5.77006 2.27882C6.27787 2.69354 6.53178 3.30715 6.53178 4.11966C6.53178 4.5513 6.40906 4.93428 6.16362 5.26859C5.91817 5.59867 5.58386 5.85469 5.16068 6.03666C5.66003 6.17631 6.05359 6.44291 6.34135 6.83647C6.63334 7.2258 6.77934 7.69129 6.77934 8.23296C6.77934 9.0624 6.51062 9.71409 5.97318 10.1881C5.43575 10.662 4.67614 10.899 3.69436 10.899H0.488773ZM1.70753 6.57622V9.90241H3.71975C4.28681 9.90241 4.73327 9.75641 5.05912 9.46442C5.3892 9.16819 5.55424 8.76194 5.55424 8.24566C5.55424 7.1327 4.94909 6.57622 3.73879 6.57622H1.70753ZM1.70753 5.59867H3.54836C4.08157 5.59867 4.50687 5.46537 4.82425 5.19877C5.14587 4.93216 5.30668 4.57034 5.30668 4.11331C5.30668 3.60549 5.15856 3.23733 4.86234 3.00881C4.56611 2.77606 4.11542 2.65969 3.51028 2.65969H1.70753V5.59867Z" fill="black"/>
<path d="M12.6446 10.899C12.5769 10.7636 12.5219 10.5224 12.4796 10.1754C11.9337 10.7424 11.282 11.026 10.5245 11.026C9.8474 11.026 9.29091 10.8355 8.85504 10.4547C8.4234 10.0696 8.20757 9.58291 8.20757 8.99469C8.20757 8.27951 8.47841 7.72515 9.02008 7.33159C9.56598 6.9338 10.3319 6.73491 11.3179 6.73491H12.4605V6.19535C12.4605 5.78487 12.3378 5.45902 12.0924 5.21781C11.8469 4.97236 11.4851 4.84964 11.0069 4.84964C10.588 4.84964 10.2367 4.95544 9.95319 5.16703C9.66966 5.37862 9.5279 5.63464 9.5279 5.9351H8.34722C8.34722 5.59232 8.46783 5.26224 8.70904 4.94486C8.95449 4.62324 9.28457 4.36933 9.69928 4.18313C10.1182 3.99693 10.5774 3.90383 11.0767 3.90383C11.8681 3.90383 12.488 4.10273 12.9366 4.50052C13.3852 4.89408 13.6179 5.43786 13.6349 6.13188V9.29303C13.6349 9.92357 13.7153 10.425 13.8761 10.7974V10.899H12.6446ZM10.6959 10.004C11.064 10.004 11.4132 9.90876 11.7432 9.71833C12.0733 9.5279 12.3124 9.28034 12.4605 8.97565V7.56646H11.5401C10.1013 7.56646 9.3819 7.98752 9.3819 8.82965C9.3819 9.19782 9.50462 9.48558 9.75006 9.69294C9.99551 9.90029 10.3108 10.004 10.6959 10.004ZM9.96589 12.4542C9.96589 12.2638 10.023 12.1029 10.1373 11.9718C10.2558 11.8406 10.4293 11.775 10.6578 11.775C10.8863 11.775 11.0598 11.8406 11.1783 11.9718C11.2968 12.1029 11.356 12.2638 11.356 12.4542C11.356 12.6446 11.2968 12.8033 11.1783 12.9303C11.0598 13.0572 10.8863 13.1207 10.6578 13.1207C10.4293 13.1207 10.2558 13.0572 10.1373 12.9303C10.023 12.8033 9.96589 12.6446 9.96589 12.4542Z" fill="black"/>
<path d="M16.5865 4.03079L16.6246 4.89408C17.1494 4.23391 17.8349 3.90383 18.6813 3.90383C20.1328 3.90383 20.8649 4.72269 20.8776 6.36039V10.899H19.7033V6.35405C19.699 5.85893 19.5848 5.49287 19.3605 5.25589C19.1404 5.01891 18.7955 4.90042 18.3258 4.90042C17.9449 4.90042 17.6106 5.00199 17.3229 5.20511C17.0351 5.40824 16.8108 5.67484 16.65 6.00492V10.899H15.4757V4.03079H16.5865Z" fill="black"/>
<path d="M28.6281 10.0674C29.0471 10.0674 29.4131 9.9405 29.7263 9.68659C30.0394 9.43268 30.2129 9.11529 30.2468 8.73443H31.3576C31.3365 9.12799 31.2011 9.5025 30.9514 9.85798C30.7017 10.2134 30.3674 10.497 29.9484 10.7086C29.5337 10.9202 29.0936 11.026 28.6281 11.026C27.6929 11.026 26.9481 10.7149 26.3937 10.0928C25.8436 9.46653 25.5685 8.61171 25.5685 7.52837V7.33159C25.5685 6.66297 25.6913 6.0684 25.9367 5.54789C26.1821 5.02738 26.5334 4.62324 26.9904 4.33548C27.4517 4.04772 27.9955 3.90383 28.6218 3.90383C29.392 3.90383 30.031 4.13447 30.5388 4.59573C31.0508 5.057 31.3238 5.6558 31.3576 6.39213H30.2468C30.2129 5.94779 30.0437 5.58386 29.739 5.30033C29.4385 5.01257 29.0661 4.86868 28.6218 4.86868C28.0251 4.86868 27.5617 5.08451 27.2316 5.51615C26.9058 5.94356 26.7429 6.56352 26.7429 7.37603V7.5982C26.7429 8.38954 26.9058 8.99892 27.2316 9.42633C27.5575 9.85374 28.023 10.0674 28.6281 10.0674Z" fill="black"/>
<path d="M32.3669 7.40142C32.3669 6.72856 32.4981 6.12341 32.7605 5.58597C33.0271 5.04854 33.3952 4.63382 33.865 4.34183C34.3389 4.04983 34.8785 3.90383 35.4836 3.90383C36.4189 3.90383 37.1742 4.22757 37.7498 4.87503C38.3295 5.5225 38.6194 6.38367 38.6194 7.45855V7.54107C38.6194 8.20969 38.4903 8.81061 38.2322 9.34381C37.9783 9.87279 37.6122 10.2854 37.134 10.5816C36.6601 10.8778 36.1142 11.026 35.4963 11.026C34.5653 11.026 33.81 10.7022 33.2302 10.0548C32.6547 9.40729 32.3669 8.55035 32.3669 7.48394V7.40142ZM33.5476 7.54107C33.5476 8.30279 33.7232 8.91428 34.0744 9.37555C34.4299 9.83682 34.9039 10.0674 35.4963 10.0674C36.093 10.0674 36.567 9.8347 36.9182 9.3692C37.2695 8.89947 37.4451 8.24354 37.4451 7.40142C37.4451 6.64816 37.2652 6.03878 36.9055 5.57328C36.55 5.10355 36.0761 4.86868 35.4836 4.86868C34.9039 4.86868 34.4363 5.09932 34.0808 5.56058C33.7253 6.02185 33.5476 6.68201 33.5476 7.54107ZM36.0168 1.14893H37.4387L35.7375 3.01516H34.7917L36.0168 1.14893Z" fill="black"/>
<path d="M44.91 2.36769V4.03079H46.1922V4.93851H44.91V9.19782C44.91 9.47288 44.9671 9.68024 45.0814 9.81989C45.1956 9.95531 45.3903 10.023 45.6653 10.023C45.8008 10.023 45.987 9.99763 46.2239 9.94684V10.899C45.915 10.9836 45.6146 11.026 45.3226 11.026C44.7978 11.026 44.4022 10.8673 44.1355 10.5499C43.8689 10.2325 43.7356 9.7818 43.7356 9.19782V4.93851H42.4851V4.03079H43.7356V2.36769H44.91Z" fill="black"/>
<path d="M48.744 4.86234C49.2645 4.22334 49.9416 3.90383 50.7752 3.90383C52.2267 3.90383 52.9588 4.72269 52.9715 6.36039V10.899H51.7972V6.35405C51.793 5.85893 51.6787 5.49287 51.4544 5.25589C51.2344 5.01891 50.8895 4.90042 50.4198 4.90042C50.0389 4.90042 49.7046 5.00199 49.4168 5.20511C49.1291 5.40824 48.9048 5.67484 48.744 6.00492V10.899H47.5697V1.14893H48.744V4.86234Z" fill="black"/>
<path d="M58.9701 10.899C58.9024 10.7636 58.8474 10.5224 58.8051 10.1754C58.2592 10.7424 57.6075 11.026 56.85 11.026C56.1729 11.026 55.6164 10.8355 55.1805 10.4547C54.7489 10.0696 54.5331 9.58291 54.5331 8.99469C54.5331 8.27951 54.8039 7.72515 55.3456 7.33159C55.8915 6.9338 56.6574 6.73491 57.6434 6.73491H58.786V6.19535C58.786 5.78487 58.6633 5.45902 58.4179 5.21781C58.1724 4.97236 57.8106 4.84964 57.3324 4.84964C56.9135 4.84964 56.5622 4.95544 56.2787 5.16703C55.9952 5.37862 55.8534 5.63464 55.8534 5.9351H54.6727C54.6727 5.59232 54.7933 5.26224 55.0345 4.94486C55.28 4.62324 55.6101 4.36933 56.0248 4.18313C56.4437 3.99693 56.9029 3.90383 57.4022 3.90383C58.1936 3.90383 58.8135 4.10273 59.2621 4.50052C59.7107 4.89408 59.9434 5.43786 59.9604 6.13188V9.29303C59.9604 9.92357 60.0408 10.425 60.2016 10.7974V10.899H58.9701ZM57.0214 10.004C57.3895 10.004 57.7387 9.90876 58.0687 9.71833C58.3988 9.5279 58.6379 9.28034 58.786 8.97565V7.56646H57.8656C56.4268 7.56646 55.7074 7.98752 55.7074 8.82965C55.7074 9.19782 55.8301 9.48558 56.0756 9.69294C56.321 9.90029 56.6363 10.004 57.0214 10.004ZM59.4208 1.70753C59.4208 2.10955 59.2431 2.43117 58.8876 2.67238C58.5321 2.91359 58.0687 3.0342 57.4975 3.0342C56.9219 3.0342 56.4564 2.91359 56.101 2.67238C55.7455 2.43117 55.5678 2.10955 55.5678 1.70753H56.5326C56.5326 1.94028 56.6151 2.12225 56.7802 2.25343C56.9494 2.38039 57.1885 2.44386 57.4975 2.44386C57.7979 2.44386 58.0307 2.37827 58.1957 2.24709C58.365 2.11167 58.4496 1.93182 58.4496 1.70753H59.4208ZM57.8402 0.323733H58.8114L57.7704 1.58058H57.1229L57.8402 0.323733Z" fill="black"/>
<path d="M64.5561 10.0674C64.975 10.0674 65.3411 9.9405 65.6542 9.68659C65.9674 9.43268 66.1409 9.11529 66.1748 8.73443H67.2856C67.2644 9.12799 67.129 9.5025 66.8794 9.85798C66.6297 10.2134 66.2954 10.497 65.8764 10.7086C65.4617 10.9202 65.0216 11.026 64.5561 11.026C63.6209 11.026 62.8761 10.7149 62.3217 10.0928C61.7716 9.46653 61.4965 8.61171 61.4965 7.52837V7.33159C61.4965 6.66297 61.6192 6.0684 61.8647 5.54789C62.1101 5.02738 62.4614 4.62324 62.9184 4.33548C63.3797 4.04772 63.9234 3.90383 64.5497 3.90383C65.3199 3.90383 65.9589 4.13447 66.4668 4.59573C66.9788 5.057 67.2518 5.6558 67.2856 6.39213H66.1748C66.1409 5.94779 65.9716 5.58386 65.6669 5.30033C65.3665 5.01257 64.9941 4.86868 64.5497 4.86868C63.9531 4.86868 63.4897 5.08451 63.1596 5.51615C62.8337 5.94356 62.6708 6.56352 62.6708 7.37603V7.5982C62.6708 8.38954 62.8337 8.99892 63.1596 9.42633C63.4854 9.85374 63.9509 10.0674 64.5561 10.0674Z" fill="black"/>
<path d="M72.9351 4.03079L72.9668 4.79251C73.4704 4.20006 74.1496 3.90383 75.0044 3.90383C75.965 3.90383 76.6188 4.272 76.9658 5.00833C77.1944 4.67825 77.4906 4.41165 77.8545 4.20852C78.2227 4.0054 78.6564 3.90383 79.1558 3.90383C80.6623 3.90383 81.4283 4.70153 81.4537 6.29692V10.899H80.2793V6.36674C80.2793 5.87585 80.1672 5.5098 79.9429 5.26859C79.7186 5.02315 79.342 4.90042 78.813 4.90042C78.3771 4.90042 78.0153 5.03161 77.7276 5.29398C77.4398 5.55212 77.2726 5.90124 77.2261 6.34135V10.899H76.0454V6.39848C76.0454 5.39978 75.5567 4.90042 74.5791 4.90042C73.8089 4.90042 73.2821 5.22839 72.9985 5.88432V10.899H71.8242V4.03079H72.9351Z" fill="black"/>
<path d="M87.4713 10.899C87.4036 10.7636 87.3486 10.5224 87.3062 10.1754C86.7603 10.7424 86.1086 11.026 85.3512 11.026C84.6741 11.026 84.1176 10.8355 83.6817 10.4547C83.2501 10.0696 83.0342 9.58291 83.0342 8.99469C83.0342 8.27951 83.3051 7.72515 83.8467 7.33159C84.3927 6.9338 85.1586 6.73491 86.1446 6.73491H87.2872V6.19535C87.2872 5.78487 87.1645 5.45902 86.919 5.21781C86.6736 4.97236 86.3118 4.84964 85.8336 4.84964C85.4146 4.84964 85.0634 4.95544 84.7799 5.16703C84.4963 5.37862 84.3546 5.63464 84.3546 5.9351H83.1739C83.1739 5.59232 83.2945 5.26224 83.5357 4.94486C83.7812 4.62324 84.1112 4.36933 84.526 4.18313C84.9449 3.99693 85.404 3.90383 85.9034 3.90383C86.6948 3.90383 87.3147 4.10273 87.7633 4.50052C88.2119 4.89408 88.4446 5.43786 88.4615 6.13188V9.29303C88.4615 9.92357 88.5419 10.425 88.7027 10.7974V10.899H87.4713ZM85.5225 10.004C85.8907 10.004 86.2398 9.90876 86.5699 9.71833C86.9 9.5279 87.1391 9.28034 87.2872 8.97565V7.56646H86.3668C84.928 7.56646 84.2086 7.98752 84.2086 8.82965C84.2086 9.19782 84.3313 9.48558 84.5767 9.69294C84.8222 9.90029 85.1374 10.004 85.5225 10.004ZM87.922 1.70753C87.922 2.10955 87.7442 2.43117 87.3888 2.67238C87.0333 2.91359 86.5699 3.0342 85.9986 3.0342C85.4231 3.0342 84.9576 2.91359 84.6021 2.67238C84.2467 2.43117 84.0689 2.10955 84.0689 1.70753H85.0338C85.0338 1.94028 85.1163 2.12225 85.2813 2.25343C85.4506 2.38039 85.6897 2.44386 85.9986 2.44386C86.2991 2.44386 86.5318 2.37827 86.6969 2.24709C86.8661 2.11167 86.9508 1.93182 86.9508 1.70753H87.922ZM86.3414 0.323733H87.3126L86.2716 1.58058H85.6241L86.3414 0.323733Z" fill="black"/>
<path d="M93.0573 10.0674C93.4762 10.0674 93.8423 9.9405 94.1554 9.68659C94.4686 9.43268 94.6421 9.11529 94.6759 8.73443H95.7868C95.7656 9.12799 95.6302 9.5025 95.3805 9.85798C95.1308 10.2134 94.7965 10.497 94.3776 10.7086C93.9629 10.9202 93.5228 11.026 93.0573 11.026C92.122 11.026 91.3772 10.7149 90.8229 10.0928C90.2727 9.46653 89.9977 8.61171 89.9977 7.52837V7.33159C89.9977 6.66297 90.1204 6.0684 90.3658 5.54789C90.6113 5.02738 90.9625 4.62324 91.4196 4.33548C91.8808 4.04772 92.4246 3.90383 93.0509 3.90383C93.8211 3.90383 94.4601 4.13447 94.9679 4.59573C95.48 5.057 95.7529 5.6558 95.7868 6.39213H94.6759C94.6421 5.94779 94.4728 5.58386 94.1681 5.30033C93.8677 5.01257 93.4953 4.86868 93.0509 4.86868C92.4542 4.86868 91.9908 5.08451 91.6608 5.51615C91.3349 5.94356 91.172 6.56352 91.172 7.37603V7.5982C91.172 8.38954 91.3349 8.99892 91.6608 9.42633C91.9866 9.85374 92.4521 10.0674 93.0573 10.0674Z" fill="black"/>
<path d="M102.598 9.30573L104.299 4.03079H105.499L103.036 10.899H102.141L99.6525 4.03079H100.852L102.598 9.30573Z" fill="black"/>
<path d="M106.229 7.40142C106.229 6.72856 106.358 6.12553 106.616 5.59232C106.878 5.05488 107.246 4.64017 107.72 4.34817C108.199 4.05195 108.74 3.90383 109.345 3.90383C110.221 3.90383 110.947 4.19583 111.523 4.77982C111.823 4.74596 112.041 4.62324 112.177 4.41165C112.312 4.20006 112.38 3.82343 112.38 3.28176H113.332C113.332 4.51321 112.894 5.23685 112.018 5.45267C112.327 6.03666 112.481 6.68624 112.481 7.40142V7.54107C112.481 8.20969 112.35 8.81272 112.088 9.35016C111.825 9.8876 111.457 10.3023 110.983 10.5943C110.509 10.8821 109.968 11.026 109.358 11.026C108.419 11.026 107.661 10.7022 107.086 10.0548C106.514 9.40306 106.229 8.54612 106.229 7.48394V7.40142ZM107.403 7.54107C107.403 8.30279 107.579 8.91428 107.93 9.37555C108.285 9.83682 108.761 10.0674 109.358 10.0674C109.946 10.0674 110.416 9.83682 110.767 9.37555C111.123 8.91005 111.301 8.28586 111.301 7.50298V7.40142C111.301 6.63546 111.121 6.02185 110.761 5.56058C110.406 5.09932 109.934 4.86868 109.345 4.86868C108.761 4.86868 108.292 5.09932 107.936 5.56058C107.581 6.02185 107.403 6.68201 107.403 7.54107ZM109.923 1.14893H111.345L109.644 3.01516H108.698L109.923 1.14893Z" fill="black"/>
<path d="M115.242 10.899H114.068V4.03079H115.242V10.899ZM113.973 2.209C113.973 2.01857 114.03 1.85776 114.144 1.72657C114.263 1.59539 114.436 1.5298 114.665 1.5298C114.893 1.5298 115.067 1.59539 115.185 1.72657C115.304 1.85776 115.363 2.01857 115.363 2.209C115.363 2.39943 115.304 2.55812 115.185 2.68508C115.067 2.81203 114.893 2.87551 114.665 2.87551C114.436 2.87551 114.263 2.81203 114.144 2.68508C114.03 2.55812 113.973 2.39943 113.973 2.209Z" fill="black"/>
<path d="M124.351 9.07721C124.351 8.75982 124.231 8.51438 123.99 8.34088C123.753 8.16314 123.336 8.0108 122.739 7.88384C122.147 7.75689 121.675 7.60454 121.324 7.42681C120.977 7.24907 120.718 7.03748 120.549 6.79204C120.384 6.54659 120.302 6.2546 120.302 5.91605C120.302 5.35323 120.539 4.87715 121.013 4.48782C121.491 4.0985 122.1 3.90383 122.841 3.90383C123.619 3.90383 124.25 4.10485 124.732 4.50687C125.219 4.90889 125.462 5.42305 125.462 6.04936H124.282C124.282 5.72774 124.144 5.45056 123.869 5.21781C123.598 4.98506 123.255 4.86868 122.841 4.86868C122.413 4.86868 122.079 4.96178 121.838 5.14798C121.597 5.33418 121.476 5.57751 121.476 5.87797C121.476 6.1615 121.588 6.3752 121.812 6.51909C122.037 6.66297 122.441 6.8005 123.025 6.93169C123.613 7.06287 124.089 7.21945 124.453 7.40142C124.817 7.58338 125.086 7.80344 125.259 8.06158C125.437 8.31548 125.526 8.62652 125.526 8.99469C125.526 9.6083 125.28 10.1013 124.789 10.4737C124.299 10.8419 123.662 11.026 122.879 11.026C122.329 11.026 121.842 10.9286 121.419 10.734C120.996 10.5393 120.663 10.2685 120.422 9.92145C120.185 9.57021 120.067 9.19147 120.067 8.78521H121.241C121.262 9.17877 121.419 9.49193 121.711 9.72467C122.007 9.95319 122.396 10.0674 122.879 10.0674C123.323 10.0674 123.679 9.97858 123.945 9.80085C124.216 9.61888 124.351 9.37767 124.351 9.07721Z" fill="black"/>
<path d="M131.296 10.899C131.228 10.7636 131.173 10.5224 131.131 10.1754C130.585 10.7424 129.933 11.026 129.176 11.026C128.499 11.026 127.942 10.8355 127.506 10.4547C127.075 10.0696 126.859 9.58291 126.859 8.99469C126.859 8.27951 127.13 7.72515 127.671 7.33159C128.217 6.9338 128.983 6.73491 129.969 6.73491H131.112V6.19535C131.112 5.78487 130.989 5.45902 130.744 5.21781C130.498 4.97236 130.136 4.84964 129.658 4.84964C129.239 4.84964 128.888 4.95544 128.604 5.16703C128.321 5.37862 128.179 5.63464 128.179 5.9351H126.998C126.998 5.59232 127.119 5.26224 127.36 4.94486C127.606 4.62324 127.936 4.36933 128.35 4.18313C128.769 3.99693 129.229 3.90383 129.728 3.90383C130.519 3.90383 131.139 4.10273 131.588 4.50052C132.036 4.89408 132.269 5.43786 132.286 6.13188V9.29303C132.286 9.92357 132.366 10.425 132.527 10.7974V10.899H131.296ZM129.347 10.004C129.715 10.004 130.064 9.90876 130.394 9.71833C130.725 9.5279 130.964 9.28034 131.112 8.97565V7.56646H130.191C128.752 7.56646 128.033 7.98752 128.033 8.82965C128.033 9.19782 128.156 9.48558 128.401 9.69294C128.647 9.90029 128.962 10.004 129.347 10.004ZM129.461 2.91994L129.455 1.94874C129.772 1.92758 130.005 1.88527 130.153 1.82179C130.301 1.75831 130.375 1.64405 130.375 1.47901C130.375 1.31397 130.278 1.19125 130.083 1.11085C129.893 1.02621 129.639 0.983893 129.322 0.983893L129.366 0.311037C129.997 0.311037 130.475 0.421064 130.801 0.641118C131.127 0.856939 131.289 1.1447 131.289 1.5044C131.289 1.76254 131.207 1.97625 131.042 2.14552C130.877 2.31479 130.631 2.4227 130.306 2.46925L130.299 2.91994H129.461Z" fill="black"/>
<path d="M135.238 4.03079L135.276 4.89408C135.801 4.23391 136.486 3.90383 137.332 3.90383C138.784 3.90383 139.516 4.72269 139.529 6.36039V10.899H138.354V6.35405C138.35 5.85893 138.236 5.49287 138.012 5.25589C137.792 5.01891 137.447 4.90042 136.977 4.90042C136.596 4.90042 136.262 5.00199 135.974 5.20511C135.686 5.40824 135.462 5.67484 135.301 6.00492V10.899H134.127V4.03079H135.238Z" fill="black"/>
<path d="M150.326 7.54107C150.326 8.58632 150.087 9.42845 149.609 10.0674C149.131 10.7065 148.483 11.026 147.667 11.026C146.833 11.026 146.177 10.7615 145.699 10.2325V13.5396H144.524V4.03079H145.597L145.654 4.79251C146.132 4.20006 146.797 3.90383 147.647 3.90383C148.473 3.90383 149.124 4.21487 149.603 4.83695C150.085 5.45902 150.326 6.32442 150.326 7.43315V7.54107ZM149.152 7.40776C149.152 6.63334 148.987 6.02185 148.657 5.57328C148.327 5.12471 147.874 4.90042 147.298 4.90042C146.587 4.90042 146.054 5.21569 145.699 5.84623V9.12799C146.05 9.7543 146.587 10.0674 147.311 10.0674C147.874 10.0674 148.32 9.84528 148.65 9.40094C148.985 8.95237 149.152 8.28798 149.152 7.40776Z" fill="black"/>
<path d="M152.999 4.86234C153.519 4.22334 154.196 3.90383 155.03 3.90383C156.481 3.90383 157.213 4.72269 157.226 6.36039V10.899H156.052V6.35405C156.048 5.85893 155.933 5.49287 155.709 5.25589C155.489 5.01891 155.144 4.90042 154.674 4.90042C154.294 4.90042 153.959 5.00199 153.671 5.20511C153.384 5.40824 153.159 5.67484 152.999 6.00492V10.899H151.824V1.14893H152.999V4.86234Z" fill="black"/>
<path d="M163.225 10.899C163.157 10.7636 163.102 10.5224 163.06 10.1754C162.514 10.7424 161.862 11.026 161.105 11.026C160.428 11.026 159.871 10.8355 159.435 10.4547C159.003 10.0696 158.788 9.58291 158.788 8.99469C158.788 8.27951 159.059 7.72515 159.6 7.33159C160.146 6.9338 160.912 6.73491 161.898 6.73491H163.041V6.19535C163.041 5.78487 162.918 5.45902 162.672 5.21781C162.427 4.97236 162.065 4.84964 161.587 4.84964C161.168 4.84964 160.817 4.95544 160.533 5.16703C160.25 5.37862 160.108 5.63464 160.108 5.9351H158.927C158.927 5.59232 159.048 5.26224 159.289 4.94486C159.535 4.62324 159.865 4.36933 160.279 4.18313C160.698 3.99693 161.157 3.90383 161.657 3.90383C162.448 3.90383 163.068 4.10273 163.517 4.50052C163.965 4.89408 164.198 5.43786 164.215 6.13188V9.29303C164.215 9.92357 164.295 10.425 164.456 10.7974V10.899H163.225ZM161.276 10.004C161.644 10.004 161.993 9.90876 162.323 9.71833C162.653 9.5279 162.893 9.28034 163.041 8.97565V7.56646H162.12C160.681 7.56646 159.962 7.98752 159.962 8.82965C159.962 9.19782 160.085 9.48558 160.33 9.69294C160.576 9.90029 160.891 10.004 161.276 10.004ZM164.107 3.11672H163.028L161.777 1.93605L160.527 3.11672H159.454L161.181 1.45362H162.374L164.107 3.11672ZM163.58 2.24074L163.574 1.40919C163.849 1.39226 164.048 1.35629 164.171 1.30128C164.297 1.24626 164.361 1.14893 164.361 1.00928C164.361 0.725753 164.063 0.583988 163.466 0.583988L163.498 0C164.039 0 164.452 0.0930996 164.735 0.279299C165.019 0.465498 165.161 0.713058 165.161 1.02198C165.161 1.27166 165.082 1.46632 164.926 1.60597C164.769 1.74562 164.564 1.83025 164.31 1.85988L164.304 2.24074H163.58Z" fill="black"/>
<path d="M167.16 4.03079L167.192 4.79251C167.696 4.20006 168.375 3.90383 169.23 3.90383C170.19 3.90383 170.844 4.272 171.191 5.00833C171.42 4.67825 171.716 4.41165 172.08 4.20852C172.448 4.0054 172.882 3.90383 173.381 3.90383C174.888 3.90383 175.654 4.70153 175.679 6.29692V10.899H174.505V6.36674C174.505 5.87585 174.392 5.5098 174.168 5.26859C173.944 5.02315 173.567 4.90042 173.038 4.90042C172.602 4.90042 172.241 5.03161 171.953 5.29398C171.665 5.55212 171.498 5.90124 171.451 6.34135V10.899H170.271V6.39848C170.271 5.39978 169.782 4.90042 168.804 4.90042C168.034 4.90042 167.507 5.22839 167.224 5.88432V10.899H166.049V4.03079H167.16Z" fill="black"/>
<path d="M182.947 9.30573L184.648 4.03079H185.848L183.385 10.899H182.49L180.002 4.03079H181.201L182.947 9.30573Z" fill="black"/>
<path d="M194.309 3.48489C194.309 4.24661 194.153 4.78405 193.84 5.0972C193.531 5.40612 193.038 5.56905 192.361 5.58597V10.899H191.243L191.218 10.2198C190.761 10.7572 190.09 11.026 189.206 11.026C188.474 11.026 187.915 10.8144 187.53 10.3912C187.149 9.96377 186.957 9.33323 186.952 8.49957V4.03079H188.127V8.46783C188.127 9.50885 188.55 10.0294 189.396 10.0294C190.293 10.0294 190.89 9.69505 191.186 9.02643V4.03079H192.361V4.86234C192.648 4.85387 192.864 4.81367 193.008 4.74173C193.152 4.66556 193.254 4.5513 193.313 4.39896C193.376 4.24661 193.408 3.94192 193.408 3.48489H194.309ZM190.444 3.14211H189.434L187.797 1.27589H189.212L190.444 3.14211Z" fill="black"/>
<path d="M199.267 10.899C199.199 10.7636 199.144 10.5224 199.102 10.1754C198.556 10.7424 197.904 11.026 197.147 11.026C196.47 11.026 195.913 10.8355 195.477 10.4547C195.046 10.0696 194.83 9.58291 194.83 8.99469C194.83 8.27951 195.101 7.72515 195.642 7.33159C196.188 6.9338 196.954 6.73491 197.94 6.73491H199.083V6.19535C199.083 5.78487 198.96 5.45902 198.715 5.21781C198.469 4.97236 198.107 4.84964 197.629 4.84964C197.21 4.84964 196.859 4.95544 196.576 5.16703C196.292 5.37862 196.15 5.63464 196.15 5.9351H194.97C194.97 5.59232 195.09 5.26224 195.331 4.94486C195.577 4.62324 195.907 4.36933 196.322 4.18313C196.741 3.99693 197.2 3.90383 197.699 3.90383C198.49 3.90383 199.11 4.10273 199.559 4.50052C200.008 4.89408 200.24 5.43786 200.257 6.13188V9.29303C200.257 9.92357 200.338 10.425 200.498 10.7974V10.899H199.267ZM197.318 10.004C197.686 10.004 198.035 9.90876 198.366 9.71833C198.696 9.5279 198.935 9.28034 199.083 8.97565V7.56646H198.162C196.724 7.56646 196.004 7.98752 196.004 8.82965C196.004 9.19782 196.127 9.48558 196.372 9.69294C196.618 9.90029 196.933 10.004 197.318 10.004Z" fill="black"/>
<path d="M207.627 6.53813L209.15 4.03079H210.521L208.274 7.42681L210.591 10.899H209.233L207.646 8.32818L206.059 10.899H204.694L207.011 7.42681L204.764 4.03079H206.122L207.627 6.53813Z" fill="black"/>
<path d="M214.495 11.026C213.564 11.026 212.807 10.7213 212.223 10.1119C211.639 9.49827 211.347 8.67942 211.347 7.65532V7.4395C211.347 6.75818 211.476 6.15092 211.734 5.61771C211.996 5.08027 212.36 4.66133 212.826 4.36087C213.295 4.05618 213.803 3.90383 214.349 3.90383C215.242 3.90383 215.936 4.19794 216.431 4.78616C216.926 5.37438 217.174 6.21651 217.174 7.31255V7.80132H212.521C212.538 8.47841 212.735 9.02643 213.111 9.44538C213.492 9.86009 213.975 10.0674 214.559 10.0674C214.973 10.0674 215.325 9.98281 215.612 9.81354C215.9 9.64427 216.152 9.41998 216.368 9.14069L217.085 9.69928C216.509 10.5837 215.646 11.026 214.495 11.026ZM214.349 4.86868C213.875 4.86868 213.477 5.04219 213.156 5.3892C212.834 5.73197 212.635 6.2144 212.559 6.83647H215.999V6.7476C215.966 6.15092 215.805 5.68965 215.517 5.36381C215.229 5.03372 214.84 4.86868 214.349 4.86868Z" fill="black"/>
<path d="M219.643 4.03079L219.675 4.79251C220.178 4.20006 220.858 3.90383 221.712 3.90383C222.673 3.90383 223.327 4.272 223.674 5.00833C223.902 4.67825 224.199 4.41165 224.563 4.20852C224.931 4.0054 225.364 3.90383 225.864 3.90383C227.37 3.90383 228.136 4.70153 228.162 6.29692V10.899H226.987V6.36674C226.987 5.87585 226.875 5.5098 226.651 5.26859C226.427 5.02315 226.05 4.90042 225.521 4.90042C225.085 4.90042 224.723 5.03161 224.436 5.29398C224.148 5.55212 223.981 5.90124 223.934 6.34135V10.899H222.753V6.39848C222.753 5.39978 222.265 4.90042 221.287 4.90042C220.517 4.90042 219.99 5.22839 219.707 5.88432V10.899H218.532V4.03079H219.643Z" fill="black"/>
<path d="M229.964 10.2833C229.964 10.0801 230.024 9.91087 230.142 9.77546C230.265 9.64004 230.447 9.57233 230.688 9.57233C230.929 9.57233 231.111 9.64004 231.234 9.77546C231.361 9.91087 231.424 10.0801 231.424 10.2833C231.424 10.4779 231.361 10.6409 231.234 10.772C231.111 10.9032 230.929 10.9688 230.688 10.9688C230.447 10.9688 230.265 10.9032 230.142 10.772C230.024 10.6409 229.964 10.4779 229.964 10.2833Z" fill="black"/>
<path d="M236.966 10.899V6.67143H235.747V5.71293H236.966V1.65675H239.575C240.379 1.65675 241.09 1.83448 241.708 2.18996C242.326 2.54543 242.802 3.05113 243.136 3.70706C243.474 4.36298 243.646 5.11624 243.65 5.96684V6.55717C243.65 7.42892 243.481 8.19276 243.142 8.84869C242.808 9.50462 242.328 10.0082 241.701 10.3594C241.079 10.7107 240.353 10.8905 239.524 10.899H236.966ZM239.784 6.67143H238.185V9.90241H239.461C240.4 9.90241 241.13 9.61253 241.651 9.03277C242.175 8.45302 242.44 7.63628 242.444 6.58256V5.99223C242.444 4.94274 242.196 4.12812 241.701 3.54836C241.21 2.96438 240.512 2.66815 239.607 2.65969H238.185V5.71293H239.784V6.67143Z" fill="black"/>
<path d="M252.645 3.48489C252.645 4.24661 252.488 4.78405 252.175 5.0972C251.866 5.40612 251.373 5.56905 250.696 5.58597V10.899H249.579L249.553 10.2198C249.096 10.7572 248.426 11.026 247.541 11.026C246.809 11.026 246.25 10.8144 245.865 10.3912C245.485 9.96377 245.292 9.33323 245.288 8.49957V4.03079H246.462V8.46783C246.462 9.50885 246.885 10.0294 247.732 10.0294C248.629 10.0294 249.225 9.69505 249.522 9.02643V4.03079H250.696V4.86234C250.984 4.85387 251.2 4.81367 251.343 4.74173C251.487 4.66556 251.589 4.5513 251.648 4.39896C251.712 4.24661 251.743 3.94192 251.743 3.48489H252.645ZM248.779 3.14211H247.77L246.132 1.27589H247.548L248.779 3.14211Z" fill="black"/>
<path d="M254.473 4.03079L254.511 4.89408C255.036 4.23391 255.721 3.90383 256.568 3.90383C258.019 3.90383 258.751 4.72269 258.764 6.36039V10.899H257.59V6.35405C257.585 5.85893 257.471 5.49287 257.247 5.25589C257.027 5.01891 256.682 4.90042 256.212 4.90042C255.831 4.90042 255.497 5.00199 255.209 5.20511C254.921 5.40824 254.697 5.67484 254.536 6.00492V10.899H253.362V4.03079H254.473Z" fill="black"/>
<path d="M260.256 7.40776C260.256 6.33712 260.503 5.48653 260.998 4.85599C261.493 4.22122 262.149 3.90383 262.966 3.90383C263.804 3.90383 264.458 4.20006 264.928 4.79251L264.985 4.03079H266.057V10.734C266.057 11.6226 265.793 12.323 265.264 12.835C264.739 13.3471 264.033 13.6031 263.144 13.6031C262.649 13.6031 262.164 13.4973 261.69 13.2857C261.216 13.0741 260.854 12.7843 260.605 12.4161L261.214 11.7115C261.718 12.3336 262.333 12.6446 263.061 12.6446C263.633 12.6446 264.077 12.4838 264.394 12.1622C264.716 11.8406 264.877 11.3878 264.877 10.8038V10.2134C264.407 10.7551 263.766 11.026 262.953 11.026C262.149 11.026 261.498 10.7022 260.998 10.0548C260.503 9.40729 260.256 8.52496 260.256 7.40776ZM261.436 7.54107C261.436 8.31548 261.595 8.92486 261.912 9.3692C262.23 9.80931 262.674 10.0294 263.245 10.0294C263.986 10.0294 264.53 9.69294 264.877 9.02008V5.88432C264.517 5.22839 263.977 4.90042 263.258 4.90042C262.687 4.90042 262.24 5.12259 261.919 5.56693C261.597 6.01127 261.436 6.66932 261.436 7.54107Z" fill="black"/>
<path d="M272.17 4.03079L272.208 4.89408C272.733 4.23391 273.419 3.90383 274.265 3.90383C275.717 3.90383 276.449 4.72269 276.461 6.36039V10.899H275.287V6.35405C275.283 5.85893 275.168 5.49287 274.944 5.25589C274.724 5.01891 274.379 4.90042 273.91 4.90042C273.529 4.90042 273.194 5.00199 272.907 5.20511C272.619 5.40824 272.395 5.67484 272.234 6.00492V10.899H271.059V4.03079H272.17Z" fill="black"/>
<path d="M277.953 7.40776C277.953 6.33712 278.201 5.48653 278.696 4.85599C279.191 4.22122 279.847 3.90383 280.663 3.90383C281.501 3.90383 282.155 4.20006 282.625 4.79251L282.682 4.03079H283.755V10.734C283.755 11.6226 283.49 12.323 282.961 12.835C282.437 13.3471 281.73 13.6031 280.841 13.6031C280.346 13.6031 279.862 13.4973 279.388 13.2857C278.914 13.0741 278.552 12.7843 278.302 12.4161L278.912 11.7115C279.415 12.3336 280.031 12.6446 280.759 12.6446C281.33 12.6446 281.774 12.4838 282.092 12.1622C282.413 11.8406 282.574 11.3878 282.574 10.8038V10.2134C282.104 10.7551 281.463 11.026 280.651 11.026C279.847 11.026 279.195 10.7022 278.696 10.0548C278.201 9.40729 277.953 8.52496 277.953 7.40776ZM279.134 7.54107C279.134 8.31548 279.292 8.92486 279.61 9.3692C279.927 9.80931 280.371 10.0294 280.943 10.0294C281.683 10.0294 282.227 9.69294 282.574 9.02008V5.88432C282.214 5.22839 281.675 4.90042 280.955 4.90042C280.384 4.90042 279.938 5.12259 279.616 5.56693C279.294 6.01127 279.134 6.66932 279.134 7.54107Z" fill="black"/>
<path d="M289.772 10.899C289.705 10.7636 289.65 10.5224 289.607 10.1754C289.061 10.7424 288.41 11.026 287.652 11.026C286.975 11.026 286.419 10.8355 285.983 10.4547C285.551 10.0696 285.335 9.58291 285.335 8.99469C285.335 8.27951 285.606 7.72515 286.148 7.33159C286.694 6.9338 287.46 6.73491 288.446 6.73491H289.588V6.19535C289.588 5.78487 289.466 5.45902 289.22 5.21781C288.975 4.97236 288.613 4.84964 288.135 4.84964C287.716 4.84964 287.365 4.95544 287.081 5.16703C286.797 5.37862 286.656 5.63464 286.656 5.9351H285.475C285.475 5.59232 285.596 5.26224 285.837 4.94486C286.082 4.62324 286.412 4.36933 286.827 4.18313C287.246 3.99693 287.705 3.90383 288.205 3.90383C288.996 3.90383 289.616 4.10273 290.064 4.50052C290.513 4.89408 290.746 5.43786 290.763 6.13188V9.29303C290.763 9.92357 290.843 10.425 291.004 10.7974V10.899H289.772ZM287.824 10.004C288.192 10.004 288.541 9.90876 288.871 9.71833C289.201 9.5279 289.44 9.28034 289.588 8.97565V7.56646H288.668C287.229 7.56646 286.51 7.98752 286.51 8.82965C286.51 9.19782 286.632 9.48558 286.878 9.69294C287.123 9.90029 287.439 10.004 287.824 10.004ZM287.094 12.4542C287.094 12.2638 287.151 12.1029 287.265 11.9718C287.384 11.8406 287.557 11.775 287.786 11.775C288.014 11.775 288.188 11.8406 288.306 11.9718C288.425 12.1029 288.484 12.2638 288.484 12.4542C288.484 12.6446 288.425 12.8033 288.306 12.9303C288.188 13.0572 288.014 13.1207 287.786 13.1207C287.557 13.1207 287.384 13.0572 287.265 12.9303C287.151 12.8033 287.094 12.6446 287.094 12.4542Z" fill="black"/>
<path d="M293.879 10.899H292.705V4.03079H293.879V10.899ZM292.61 2.209C292.61 2.01857 292.667 1.85776 292.781 1.72657C292.9 1.59539 293.073 1.5298 293.302 1.5298C293.53 1.5298 293.704 1.59539 293.822 1.72657C293.941 1.85776 294 2.01857 294 2.209C294 2.39943 293.941 2.55812 293.822 2.68508C293.704 2.81203 293.53 2.87551 293.302 2.87551C293.073 2.87551 292.9 2.81203 292.781 2.68508C292.667 2.55812 292.61 2.39943 292.61 2.209Z" fill="black"/>
<path d="M3.05959 25.0675C3.47854 25.0675 3.84459 24.9406 4.15774 24.6867C4.4709 24.4328 4.6444 24.1154 4.67825 23.7345H5.7891C5.76794 24.1281 5.63252 24.5026 5.38285 24.8581C5.13317 25.2135 4.79886 25.4971 4.37991 25.7087C3.9652 25.9203 3.52509 26.0261 3.05959 26.0261C2.12436 26.0261 1.37957 25.715 0.825201 25.0929C0.275067 24.4666 0 23.6118 0 22.5285V22.3317C0 21.6631 0.122722 21.0685 0.368167 20.548C0.613611 20.0275 0.96485 19.6233 1.42188 19.3356C1.88315 19.0478 2.42694 18.9039 3.05324 18.9039C3.82343 18.9039 4.46243 19.1346 4.97025 19.5958C5.4823 20.0571 5.75525 20.6559 5.7891 21.3922H4.67825C4.6444 20.9479 4.47513 20.584 4.17044 20.3004C3.86998 20.0127 3.49758 19.8688 3.05324 19.8688C2.45656 19.8688 1.99318 20.0846 1.6631 20.5162C1.33725 20.9437 1.17432 21.5636 1.17432 22.3761V22.5983C1.17432 23.3896 1.33725 23.999 1.6631 24.4264C1.98895 24.8538 2.45444 25.0675 3.05959 25.0675Z" fill="black"/>
<path d="M8.28375 19.8624C8.80426 19.2234 9.48135 18.9039 10.315 18.9039C11.7665 18.9039 12.4986 19.7228 12.5113 21.3605V25.8991H11.337V21.3541C11.3328 20.859 11.2185 20.493 10.9942 20.256C10.7742 20.019 10.4293 19.9005 9.95954 19.9005C9.57868 19.9005 9.24437 20.0021 8.9566 20.2052C8.66884 20.4083 8.44456 20.6749 8.28375 21.005V25.8991H7.10942V16.149H8.28375V19.8624Z" fill="black"/>
<path d="M18.5099 25.8991C18.4422 25.7637 18.3872 25.5225 18.3448 25.1755C17.7989 25.7425 17.1472 26.0261 16.3898 26.0261C15.7127 26.0261 15.1562 25.8356 14.7203 25.4548C14.2887 25.0697 14.0728 24.583 14.0728 23.9948C14.0728 23.2796 14.3437 22.7252 14.8854 22.3317C15.4313 21.9339 16.1972 21.735 17.1832 21.735H18.3258V21.1955C18.3258 20.785 18.2031 20.4591 17.9576 20.2179C17.7122 19.9725 17.3504 19.8497 16.8722 19.8497C16.4532 19.8497 16.102 19.9555 15.8185 20.1671C15.5349 20.3787 15.3932 20.6347 15.3932 20.9352H14.2125C14.2125 20.5924 14.3331 20.2623 14.5743 19.945C14.8198 19.6233 15.1498 19.3694 15.5646 19.1832C15.9835 18.997 16.4427 18.9039 16.942 18.9039C17.7334 18.9039 18.3533 19.1028 18.8019 19.5006C19.2505 19.8942 19.4832 20.438 19.5001 21.132V24.2931C19.5001 24.9237 19.5805 25.4251 19.7413 25.7975V25.8991H18.5099ZM16.5611 25.0041C16.9293 25.0041 17.2784 24.9089 17.6085 24.7184C17.9386 24.528 18.1777 24.2804 18.3258 23.9757V22.5666H17.4054C15.9666 22.5666 15.2472 22.9876 15.2472 23.8297C15.2472 24.1979 15.3699 24.4857 15.6153 24.693C15.8608 24.9004 16.1761 25.0041 16.5611 25.0041ZM17.6466 16.149H19.0685L17.3673 18.0153H16.4215L17.6466 16.149Z" fill="black"/>
<path d="M22.9342 17.3678V19.0309H24.2165V19.9386H22.9342V24.1979C22.9342 24.473 22.9914 24.6803 23.1056 24.82C23.2199 24.9554 23.4145 25.0231 23.6896 25.0231C23.825 25.0231 24.0112 24.9977 24.2482 24.9469V25.8991C23.9393 25.9837 23.6388 26.0261 23.3468 26.0261C22.8221 26.0261 22.4264 25.8674 22.1598 25.55C21.8932 25.2326 21.7599 24.7819 21.7599 24.1979V19.9386H20.5094V19.0309H21.7599V17.3678H22.9342Z" fill="black"/>
<path d="M31.0847 24.3058L32.7859 19.0309H33.9856L31.5227 25.8991H30.6276L28.1393 19.0309H29.3391L31.0847 24.3058Z" fill="black"/>
<path d="M34.7156 22.4015C34.7156 21.7287 34.8446 21.1256 35.1028 20.5924C35.3651 20.055 35.7333 19.6403 36.2073 19.3483C36.6855 19.052 37.2271 18.9039 37.8323 18.9039C38.7083 18.9039 39.434 19.1959 40.0095 19.7799C40.31 19.7461 40.5279 19.6233 40.6634 19.4118C40.7988 19.2002 40.8665 18.8235 40.8665 18.2819H41.8186C41.8186 19.5133 41.3806 20.237 40.5047 20.4528C40.8136 21.0368 40.968 21.6863 40.968 22.4015V22.5412C40.968 23.2098 40.8369 23.8128 40.5745 24.3503C40.3121 24.8877 39.9439 25.3024 39.47 25.5944C38.996 25.8822 38.4544 26.0261 37.845 26.0261C36.9055 26.0261 36.148 25.7023 35.5725 25.0549C35.0012 24.4032 34.7156 23.5462 34.7156 22.484V22.4015ZM35.8899 22.5412C35.8899 23.3029 36.0655 23.9144 36.4167 24.3757C36.7722 24.8369 37.2483 25.0675 37.845 25.0675C38.4332 25.0675 38.9029 24.8369 39.2542 24.3757C39.6096 23.9102 39.7874 23.286 39.7874 22.5031V22.4015C39.7874 21.6356 39.6075 21.022 39.2478 20.5607C38.8923 20.0994 38.4205 19.8688 37.8323 19.8688C37.2483 19.8688 36.7786 20.0994 36.4231 20.5607C36.0676 21.022 35.8899 21.6821 35.8899 22.5412ZM38.4099 16.149H39.8318L38.1306 18.0153H37.1848L38.4099 16.149Z" fill="black"/>
<path d="M43.7293 25.8991H42.555V19.0309H43.7293V25.8991ZM42.4598 17.2091C42.4598 17.0187 42.5169 16.8579 42.6311 16.7267C42.7496 16.5955 42.9231 16.5299 43.1517 16.5299C43.3802 16.5299 43.5537 16.5955 43.6722 16.7267C43.7907 16.8579 43.8499 17.0187 43.8499 17.2091C43.8499 17.3995 43.7907 17.5582 43.6722 17.6852C43.5537 17.8121 43.3802 17.8756 43.1517 17.8756C42.9231 17.8756 42.7496 17.8121 42.6311 17.6852C42.5169 17.5582 42.4598 17.3995 42.4598 17.2091Z" fill="black"/>
<path d="M52.8382 24.0773C52.8382 23.7599 52.7176 23.5145 52.4764 23.341C52.2394 23.1632 51.8226 23.0109 51.2259 22.8839C50.6335 22.757 50.1616 22.6046 49.8104 22.4269C49.4634 22.2492 49.2052 22.0376 49.036 21.7921C48.8709 21.5467 48.7884 21.2547 48.7884 20.9162C48.7884 20.3533 49.0254 19.8772 49.4994 19.4879C49.9775 19.0986 50.5869 18.9039 51.3275 18.9039C52.1061 18.9039 52.7367 19.1049 53.2191 19.507C53.7058 19.909 53.9491 20.4231 53.9491 21.0495H52.7684C52.7684 20.7278 52.6309 20.4507 52.3558 20.2179C52.085 19.9852 51.7422 19.8688 51.3275 19.8688C50.9001 19.8688 50.5658 19.9619 50.3246 20.1481C50.0833 20.3343 49.9627 20.5776 49.9627 20.8781C49.9627 21.1616 50.0749 21.3753 50.2992 21.5192C50.5234 21.6631 50.9276 21.8006 51.5116 21.9318C52.0998 22.063 52.5759 22.2195 52.9398 22.4015C53.3037 22.5835 53.5725 22.8035 53.746 23.0617C53.9237 23.3156 54.0126 23.6266 54.0126 23.9948C54.0126 24.6084 53.7671 25.1014 53.2762 25.4738C52.7853 25.842 52.1485 26.0261 51.3656 26.0261C50.8154 26.0261 50.3288 25.9287 49.9056 25.7341C49.4824 25.5394 49.1502 25.2686 48.909 24.9216C48.672 24.5703 48.5535 24.1916 48.5535 23.7853H49.7279C49.749 24.1789 49.9056 24.492 50.1976 24.7248C50.4938 24.9533 50.8832 25.0675 51.3656 25.0675C51.8099 25.0675 52.1654 24.9787 52.432 24.8009C52.7028 24.619 52.8382 24.3778 52.8382 24.0773Z" fill="black"/>
<path d="M56.7167 19.8624C57.2372 19.2234 57.9143 18.9039 58.7479 18.9039C60.1995 18.9039 60.9316 19.7228 60.9443 21.3605V25.8991H59.7699V21.3541C59.7657 20.859 59.6514 20.493 59.4272 20.256C59.2071 20.019 58.8622 19.9005 58.3925 19.9005C58.0116 19.9005 57.6773 20.0021 57.3895 20.2052C57.1018 20.4083 56.8775 20.6749 56.7167 21.005V25.8991H55.5424V16.149H56.7167V19.8624Z" fill="black"/>
<path d="M62.3915 22.4015C62.3915 21.7287 62.5227 21.1235 62.7851 20.5861C63.0517 20.0486 63.4199 19.6339 63.8896 19.3419C64.3635 19.0499 64.9031 18.9039 65.5082 18.9039C66.4435 18.9039 67.1988 19.2277 67.7744 19.8751C68.3541 20.5226 68.644 21.3838 68.644 22.4586V22.5412C68.644 23.2098 68.5149 23.8107 68.2568 24.3439C68.0029 24.8729 67.6368 25.2855 67.1586 25.5817C66.6847 25.8779 66.1388 26.0261 65.5209 26.0261C64.5899 26.0261 63.8346 25.7023 63.2548 25.0549C62.6793 24.4074 62.3915 23.5504 62.3915 22.484V22.4015ZM63.5722 22.5412C63.5722 23.3029 63.7478 23.9144 64.0991 24.3757C64.4545 24.8369 64.9285 25.0675 65.5209 25.0675C66.1176 25.0675 66.5916 24.8348 66.9428 24.3693C67.2941 23.8996 67.4697 23.2436 67.4697 22.4015C67.4697 21.6483 67.2898 21.0389 66.9301 20.5734C66.5747 20.1036 66.1007 19.8688 65.5082 19.8688C64.9285 19.8688 64.4609 20.0994 64.1054 20.5607C63.7499 21.022 63.5722 21.6821 63.5722 22.5412Z" fill="black"/>
<path d="M75.9185 22.5412C75.9185 23.5864 75.6794 24.4285 75.2012 25.0675C74.723 25.7066 74.0755 26.0261 73.2588 26.0261C72.4251 26.0261 71.7692 25.7616 71.291 25.2326V28.5397H70.1167V19.0309H71.1894L71.2466 19.7926C71.7248 19.2002 72.3892 18.9039 73.2397 18.9039C74.0649 18.9039 74.7166 19.215 75.1948 19.837C75.6773 20.4591 75.9185 21.3245 75.9185 22.4333V22.5412ZM74.7441 22.4079C74.7441 21.6334 74.5791 21.022 74.249 20.5734C73.9189 20.1248 73.4661 19.9005 72.8906 19.9005C72.1797 19.9005 71.6465 20.2158 71.291 20.8463V24.1281C71.6422 24.7544 72.1797 25.0675 72.9033 25.0675C73.4661 25.0675 73.9126 24.8454 74.2427 24.401C74.577 23.9525 74.7441 23.2881 74.7441 22.4079Z" fill="black"/>
<path d="M78.7305 23.2902H77.6704L77.5879 16.6568H78.8194L78.7305 23.2902ZM77.5435 25.3088C77.5435 25.1183 77.6006 24.9596 77.7149 24.8327C77.8334 24.7015 78.0069 24.6359 78.2354 24.6359C78.4639 24.6359 78.6374 24.7015 78.7559 24.8327C78.8744 24.9596 78.9336 25.1183 78.9336 25.3088C78.9336 25.4992 78.8744 25.6579 78.7559 25.7848C78.6374 25.9076 78.4639 25.9689 78.2354 25.9689C78.0069 25.9689 77.8334 25.9076 77.7149 25.7848C77.6006 25.6579 77.5435 25.4992 77.5435 25.3088Z" fill="black"/>
</svg>
