<svg width="106" height="14" viewBox="0 0 106 14" fill="none" xmlns="http://www.w3.org/2000/svg">
<path d="M1.23152 9.64158H5.63436V10.6434H0V1.35276H1.23152V9.64158Z" fill="black"/>
<path d="M11.1092 10.6434C11.0411 10.5073 10.9858 10.2648 10.9433 9.91596C10.3945 10.486 9.73943 10.771 8.97797 10.771C8.29734 10.771 7.73794 10.5796 7.29978 10.1967C6.86588 9.80962 6.64893 9.32041 6.64893 8.72911C6.64893 8.01019 6.92118 7.45293 7.46569 7.05731C8.01445 6.65744 8.78441 6.4575 9.77558 6.4575H10.9242V5.91512C10.9242 5.50249 10.8008 5.17493 10.5541 4.93246C10.3073 4.68573 9.94362 4.56236 9.46292 4.56236C9.04178 4.56236 8.6887 4.66871 8.40368 4.88141C8.11867 5.09411 7.97616 5.35147 7.97616 5.6535H6.78931C6.78931 5.30893 6.91055 4.97712 7.15302 4.65808C7.39975 4.33478 7.73156 4.07954 8.14845 3.89237C8.56959 3.70519 9.03114 3.61161 9.53311 3.61161C10.3286 3.61161 10.9518 3.81154 11.4027 4.21141C11.8536 4.60703 12.0876 5.15366 12.1046 5.85131V9.02902C12.1046 9.66285 12.1854 10.1669 12.3471 10.5413V10.6434H11.1092ZM9.15025 9.74368C9.52035 9.74368 9.8713 9.64797 10.2031 9.45654C10.5349 9.26511 10.7753 9.01625 10.9242 8.70997V7.2934H9.99892C8.55257 7.2934 7.8294 7.71667 7.8294 8.56321C7.8294 8.9333 7.95276 9.22257 8.19949 9.43101C8.44622 9.63946 8.76314 9.74368 9.15025 9.74368ZM11.926 1.04647C11.926 1.5059 11.7941 1.87812 11.5303 2.16314C11.2708 2.44815 10.9454 2.59066 10.5541 2.59066C10.3796 2.59066 10.2286 2.56939 10.101 2.52685C9.97339 2.48431 9.80536 2.3971 9.59692 2.26523C9.39273 2.13336 9.24384 2.05466 9.15025 2.02914C9.06092 1.99936 8.9567 1.98447 8.83759 1.98447C8.66317 1.98447 8.51429 2.05253 8.39092 2.18866C8.26756 2.32053 8.20588 2.49069 8.20588 2.69913L7.41464 2.65447C7.41464 2.19929 7.54226 1.82282 7.7975 1.52504C8.05699 1.22727 8.38454 1.07838 8.78016 1.07838C8.92905 1.07838 9.06305 1.09965 9.18216 1.14219C9.30127 1.18473 9.46292 1.26768 9.66711 1.39104C9.8713 1.51441 10.0266 1.59523 10.1329 1.63352C10.2435 1.6718 10.3648 1.69095 10.4966 1.69095C10.6795 1.69095 10.8306 1.61863 10.9497 1.47399C11.073 1.32936 11.1347 1.16133 11.1347 0.969901L11.926 1.04647Z" fill="black"/>
<path d="M15.0718 3.73922L15.11 4.60703C15.6375 3.94341 16.3267 3.61161 17.1775 3.61161C18.6366 3.61161 19.3725 4.43475 19.3853 6.08103V10.6434H18.2048V6.07464C18.2005 5.57693 18.0857 5.20897 17.8602 4.97074C17.639 4.73252 17.2923 4.61341 16.8201 4.61341C16.4373 4.61341 16.1012 4.71551 15.8119 4.9197C15.5227 5.12389 15.2972 5.39189 15.1356 5.72369V10.6434H13.9551V3.73922H15.0718Z" fill="black"/>
<path d="M22.346 4.57513C22.8693 3.93278 23.5499 3.61161 24.3879 3.61161C25.847 3.61161 26.583 4.43475 26.5957 6.08103V10.6434H25.4152V6.07464C25.411 5.57693 25.2961 5.20897 25.0707 4.97074C24.8495 4.73252 24.5028 4.61341 24.0306 4.61341C23.6477 4.61341 23.3117 4.71551 23.0224 4.9197C22.7331 5.12389 22.5077 5.39189 22.346 5.72369V10.6434H21.1655V0.842283H22.346V4.57513Z" fill="black"/>
<path d="M38.343 2.7757H37.1434V10.6434H36.0586L36.0012 9.9032C35.529 10.4817 34.8718 10.771 34.0295 10.771C33.2298 10.771 32.5768 10.4435 32.0706 9.78835C31.5686 9.13324 31.3176 8.27819 31.3176 7.22321V7.13388C31.3176 6.07464 31.5686 5.22385 32.0706 4.58151C32.5725 3.93491 33.2298 3.61161 34.0423 3.61161C34.8505 3.61161 35.4907 3.88811 35.9629 4.44113V2.7757H34.2784V1.81218H35.9629V0.842283H37.1434V1.81218H38.343V2.7757ZM32.4981 7.26788C32.4981 8.05061 32.6597 8.66317 32.983 9.10559C33.3063 9.548 33.753 9.7692 34.323 9.7692C35.0717 9.7692 35.6183 9.43314 35.9629 8.76102V5.58969C35.6098 4.93884 35.0675 4.61341 34.3358 4.61341C33.7572 4.61341 33.3063 4.83674 32.983 5.28341C32.6597 5.73007 32.4981 6.39156 32.4981 7.26788Z" fill="black"/>
<path d="M43.6775 10.6434C43.6094 10.5073 43.5541 10.2648 43.5116 9.91596C42.9628 10.486 42.3077 10.771 41.5462 10.771C40.8656 10.771 40.3062 10.5796 39.868 10.1967C39.4341 9.80962 39.2172 9.32041 39.2172 8.72911C39.2172 8.01019 39.4894 7.45293 40.034 7.05731C40.5827 6.65744 41.3527 6.4575 42.3438 6.4575H43.4924V5.91512C43.4924 5.50249 43.369 5.17493 43.1223 4.93246C42.8756 4.68573 42.5119 4.56236 42.0312 4.56236C41.61 4.56236 41.257 4.66871 40.9719 4.88141C40.6869 5.09411 40.5444 5.35147 40.5444 5.6535H39.3576C39.3576 5.30893 39.4788 4.97712 39.7213 4.65808C39.968 4.33478 40.2998 4.07954 40.7167 3.89237C41.1379 3.70519 41.5994 3.61161 42.1014 3.61161C42.8969 3.61161 43.5201 3.81154 43.971 4.21141C44.4219 4.60703 44.6559 5.15366 44.6729 5.85131V9.02902C44.6729 9.66285 44.7537 10.1669 44.9154 10.5413V10.6434H43.6775ZM41.7185 9.74368C42.0886 9.74368 42.4396 9.64797 42.7714 9.45654C43.1032 9.26511 43.3435 9.01625 43.4924 8.70997V7.2934H42.5672C41.1208 7.2934 40.3977 7.71667 40.3977 8.56321C40.3977 8.9333 40.521 9.22257 40.7678 9.43101C41.0145 9.63946 41.3314 9.74368 41.7185 9.74368ZM40.9847 12.2067C40.9847 12.0153 41.0421 11.8536 41.157 11.7218C41.2761 11.5899 41.4505 11.524 41.6802 11.524C41.9099 11.524 42.0844 11.5899 42.2035 11.7218C42.3226 11.8536 42.3821 12.0153 42.3821 12.2067C42.3821 12.3981 42.3226 12.5577 42.2035 12.6853C42.0844 12.8129 41.9099 12.8767 41.6802 12.8767C41.4505 12.8767 41.2761 12.8129 41.157 12.6853C41.0421 12.5577 40.9847 12.3981 40.9847 12.2067Z" fill="black"/>
<path d="M46.2107 7.1275C46.2107 6.45112 46.3426 5.8428 46.6063 5.30255C46.8743 4.7623 47.2444 4.34541 47.7166 4.05189C48.193 3.75837 48.7354 3.61161 49.3437 3.61161C50.2839 3.61161 51.0432 3.93703 51.6217 4.58789C52.2045 5.23874 52.4959 6.10442 52.4959 7.18493V7.26788C52.4959 7.94 52.3662 8.54406 52.1067 9.08006C51.8514 9.61181 51.4835 10.0266 51.0028 10.3243C50.5263 10.6221 49.9776 10.771 49.3565 10.771C48.4206 10.771 47.6613 10.4456 47.0785 9.79473C46.5 9.14387 46.2107 8.28245 46.2107 7.21045V7.1275ZM47.3975 7.26788C47.3975 8.03359 47.5741 8.64829 47.9272 9.11197C48.2845 9.57565 48.7609 9.80749 49.3565 9.80749C49.9563 9.80749 50.4327 9.57352 50.7858 9.10559C51.1389 8.6334 51.3154 7.97403 51.3154 7.1275C51.3154 6.37029 51.1346 5.75773 50.7731 5.28979C50.4157 4.8176 49.9393 4.58151 49.3437 4.58151C48.7609 4.58151 48.2909 4.81335 47.9335 5.27703C47.5762 5.74071 47.3975 6.40433 47.3975 7.26788Z" fill="black"/>
<path d="M56.937 7.13388C56.937 6.05763 57.1859 5.20258 57.6836 4.56875C58.1813 3.93065 58.8407 3.61161 59.6617 3.61161C60.504 3.61161 61.1612 3.90938 61.6334 4.50494L61.6908 3.73922H62.7692V10.4775C62.7692 11.3708 62.5033 12.0748 61.9716 12.5896C61.4441 13.1043 60.7337 13.3617 59.8404 13.3617C59.3426 13.3617 58.8556 13.2553 58.3791 13.0426C57.9027 12.8299 57.539 12.5385 57.288 12.1684L57.9006 11.4601C58.4068 12.0855 59.0257 12.3981 59.7574 12.3981C60.3317 12.3981 60.7784 12.2365 61.0974 11.9132C61.4207 11.5899 61.5824 11.1347 61.5824 10.5477V9.95425C61.1102 10.4988 60.4657 10.771 59.6489 10.771C58.8407 10.771 58.1856 10.4456 57.6836 9.79473C57.1859 9.14387 56.937 8.25692 56.937 7.13388ZM58.1239 7.26788C58.1239 8.04635 58.2834 8.65892 58.6025 9.10559C58.9215 9.548 59.3682 9.7692 59.9425 9.7692C60.6869 9.7692 61.2335 9.43101 61.5824 8.75464V5.60246C61.2208 4.94309 60.6784 4.61341 59.9552 4.61341C59.3809 4.61341 58.9321 4.83674 58.6088 5.28341C58.2855 5.73007 58.1239 6.39156 58.1239 7.26788Z" fill="black"/>
<path d="M65.8384 10.6434H64.658V3.73922H65.8384V10.6434ZM64.5622 1.9079C64.5622 1.71647 64.6197 1.55482 64.7345 1.42295C64.8536 1.29107 65.0281 1.22514 65.2578 1.22514C65.4875 1.22514 65.6619 1.29107 65.781 1.42295C65.9001 1.55482 65.9597 1.71647 65.9597 1.9079C65.9597 2.09933 65.9001 2.25885 65.781 2.38647C65.6619 2.51409 65.4875 2.5779 65.2578 2.5779C65.0281 2.5779 64.8536 2.51409 64.7345 2.38647C64.6197 2.25885 64.5622 2.09933 64.5622 1.9079Z" fill="black"/>
<path d="M71.996 10.6434C71.928 10.5073 71.8727 10.2648 71.8301 9.91596C71.2814 10.486 70.6263 10.771 69.8648 10.771C69.1842 10.771 68.6248 10.5796 68.1866 10.1967C67.7527 9.80962 67.5358 9.32041 67.5358 8.72911C67.5358 8.01019 67.808 7.45293 68.3525 7.05731C68.9013 6.65744 69.6712 6.4575 70.6624 6.4575H71.811V5.91512C71.811 5.50249 71.6876 5.17493 71.4409 4.93246C71.1942 4.68573 70.8304 4.56236 70.3497 4.56236C69.9286 4.56236 69.5755 4.66871 69.2905 4.88141C69.0055 5.09411 68.863 5.35147 68.863 5.6535H67.6761C67.6761 5.30893 67.7974 4.97712 68.0399 4.65808C68.2866 4.33478 68.6184 4.07954 69.0353 3.89237C69.4564 3.70519 69.918 3.61161 70.4199 3.61161C71.2154 3.61161 71.8386 3.81154 72.2895 4.21141C72.7405 4.60703 72.9744 5.15366 72.9915 5.85131V9.02902C72.9915 9.66285 73.0723 10.1669 73.2339 10.5413V10.6434H71.996ZM70.0371 9.74368C70.4072 9.74368 70.7581 9.64797 71.0899 9.45654C71.4217 9.26511 71.6621 9.01625 71.811 8.70997V7.2934H70.8857C69.4394 7.2934 68.7162 7.71667 68.7162 8.56321C68.7162 8.9333 68.8396 9.22257 69.0863 9.43101C69.3331 9.63946 69.65 9.74368 70.0371 9.74368ZM70.1519 2.62256L70.1456 1.64628C70.4646 1.62501 70.6986 1.58247 70.8475 1.51866C70.9963 1.45485 71.0708 1.34 71.0708 1.17409C71.0708 1.00819 70.973 0.884822 70.7773 0.803997C70.5858 0.718918 70.3306 0.676379 70.0116 0.676379L70.0562 0C70.6901 0 71.1708 0.110603 71.4983 0.331808C71.8259 0.54876 71.9896 0.838029 71.9896 1.19961C71.9896 1.45911 71.9067 1.67393 71.7408 1.84409C71.5749 2.01425 71.3282 2.12272 71.0006 2.16952L70.9942 2.62256H70.1519Z" fill="black"/>
<path d="M75.9586 3.73922L75.9969 4.60703C76.5244 3.94341 77.2135 3.61161 78.0643 3.61161C79.5234 3.61161 80.2593 4.43475 80.2721 6.08103V10.6434H79.0916V6.07464C79.0874 5.57693 78.9725 5.20897 78.7471 4.97074C78.5258 4.73252 78.1791 4.61341 77.707 4.61341C77.3241 4.61341 76.988 4.71551 76.6988 4.9197C76.4095 5.12389 76.184 5.39189 76.0224 5.72369V10.6434H74.8419V3.73922H75.9586Z" fill="black"/>
<path d="M92.0321 2.7757H90.8325V10.6434H89.7478L89.6903 9.9032C89.2182 10.4817 88.5609 10.771 87.7186 10.771C86.9189 10.771 86.2659 10.4435 85.7597 9.78835C85.2577 9.13324 85.0067 8.27819 85.0067 7.22321V7.13388C85.0067 6.07464 85.2577 5.22385 85.7597 4.58151C86.2617 3.93491 86.9189 3.61161 87.7314 3.61161C88.5397 3.61161 89.1799 3.88811 89.6521 4.44113V2.7757H87.9675V1.81218H89.6521V0.842283H90.8325V1.81218H92.0321V2.7757ZM86.1872 7.26788C86.1872 8.05061 86.3489 8.66317 86.6722 9.10559C86.9955 9.548 87.4421 9.7692 88.0122 9.7692C88.7609 9.7692 89.3075 9.43314 89.6521 8.76102V5.58969C89.299 4.93884 88.7566 4.61341 88.0249 4.61341C87.4464 4.61341 86.9955 4.83674 86.6722 5.28341C86.3489 5.73007 86.1872 6.39156 86.1872 7.26788Z" fill="black"/>
<path d="M92.7915 7.1275C92.7915 6.45112 92.9212 5.84493 93.1807 5.30893C93.4445 4.76868 93.8145 4.35179 94.291 4.05827C94.7717 3.76049 95.3162 3.61161 95.9245 3.61161C96.8051 3.61161 97.5346 3.90513 98.1132 4.49217C98.4152 4.45814 98.6343 4.33478 98.7704 4.12208C98.9065 3.90938 98.9746 3.53078 98.9746 2.98627H99.9317C99.9317 4.22418 99.4915 4.9516 98.6109 5.16855C98.9214 5.7556 99.0767 6.40858 99.0767 7.1275V7.26788C99.0767 7.94 98.9448 8.54619 98.6811 9.08644C98.4173 9.6267 98.0472 10.0436 97.5708 10.3371C97.0943 10.6264 96.5498 10.771 95.9373 10.771C94.9929 10.771 94.2314 10.4456 93.6529 9.79473C93.0786 9.13962 92.7915 8.27819 92.7915 7.21045V7.1275ZM93.9719 7.26788C93.9719 8.03359 94.1485 8.64829 94.5016 9.11197C94.8589 9.57565 95.3375 9.80749 95.9373 9.80749C96.5286 9.80749 97.0008 9.57565 97.3538 9.11197C97.7112 8.64403 97.8898 8.01657 97.8898 7.22959V7.1275C97.8898 6.35753 97.709 5.74071 97.3475 5.27703C96.9901 4.81335 96.5158 4.58151 95.9245 4.58151C95.3375 4.58151 94.8653 4.81335 94.5079 5.27703C94.1506 5.74071 93.9719 6.40433 93.9719 7.26788Z" fill="black"/>
<path d="M101.686 3.73922L101.725 4.60703C102.252 3.94341 102.941 3.61161 103.792 3.61161C105.251 3.61161 105.987 4.43475 106 6.08103V10.6434H104.82V6.07464C104.815 5.57693 104.7 5.20897 104.475 4.97074C104.254 4.73252 103.907 4.61341 103.435 4.61341C103.052 4.61341 102.716 4.71551 102.427 4.9197C102.137 5.12389 101.912 5.39189 101.75 5.72369V10.6434H100.57V3.73922H101.686Z" fill="black"/>
</svg>
