<svg width="143" height="13" viewBox="0 0 143 13" fill="none" xmlns="http://www.w3.org/2000/svg">
<path d="M7.14395 7.99791C7.02923 8.97932 6.66598 9.73769 6.05419 10.273C5.44665 10.8041 4.6373 11.0696 3.62614 11.0696C2.53001 11.0696 1.65056 10.6766 0.987789 9.89064C0.329263 9.10465 0 8.05314 0 6.73608V5.84389C0 4.98143 0.152948 4.22306 0.458844 3.56879C0.768989 2.91451 1.20659 2.41318 1.77165 2.0648C2.33671 1.71217 2.99098 1.53585 3.73448 1.53585C4.72015 1.53585 5.51038 1.81201 6.10517 2.36432C6.69997 2.91238 7.04623 3.67288 7.14395 4.6458H5.91399C5.80777 3.90655 5.57623 3.37123 5.21935 3.03984C4.86672 2.70845 4.37176 2.54276 3.73448 2.54276C2.95275 2.54276 2.33883 2.83166 1.89273 3.40947C1.45088 3.98727 1.22996 4.80936 1.22996 5.87575V6.77432C1.22996 7.78123 1.44026 8.58208 1.86087 9.17688C2.28147 9.77168 2.8699 10.0691 3.62614 10.0691C4.30591 10.0691 4.82636 9.91613 5.18749 9.61023C5.55286 9.30009 5.79503 8.76265 5.91399 7.99791H7.14395Z" fill="black"/>
<path d="M12.8922 10.9422C12.8243 10.8062 12.769 10.564 12.7265 10.2157C12.1785 10.785 11.5242 11.0696 10.7637 11.0696C10.0839 11.0696 9.52526 10.8784 9.08766 10.4961C8.65431 10.1094 8.43763 9.62085 8.43763 9.0303C8.43763 8.3123 8.70954 7.75574 9.25335 7.36062C9.80142 6.96126 10.5704 6.76158 11.5603 6.76158H12.7074V6.21989C12.7074 5.80777 12.5842 5.48064 12.3378 5.23847C12.0914 4.99205 11.7281 4.86884 11.2481 4.86884C10.8274 4.86884 10.4748 4.97506 10.1902 5.18749C9.90551 5.39991 9.76318 5.65695 9.76318 5.9586H8.57783C8.57783 5.61447 8.69892 5.28308 8.94108 4.96444C9.1875 4.64155 9.51889 4.38663 9.93525 4.1997C10.3559 4.01276 10.8168 3.91929 11.3182 3.91929C12.1126 3.91929 12.735 4.11897 13.1854 4.51834C13.6357 4.91345 13.8694 5.45939 13.8864 6.15616V9.32983C13.8864 9.96286 13.9671 10.4663 14.1286 10.8402V10.9422H12.8922ZM10.9358 10.0436C11.3054 10.0436 11.6559 9.94799 11.9873 9.75681C12.3187 9.56562 12.5587 9.31708 12.7074 9.01119V7.59642H11.7834C10.3389 7.59642 9.61661 8.01915 9.61661 8.86461C9.61661 9.23424 9.73981 9.52314 9.98623 9.73132C10.2326 9.93949 10.5492 10.0436 10.9358 10.0436Z" fill="black"/>
<path d="M20.0872 4.04675L20.1254 4.91345C20.6522 4.25068 21.3405 3.91929 22.1902 3.91929C23.6475 3.91929 24.3825 4.74139 24.3952 6.38558V10.9422H23.2162V6.37921C23.212 5.88212 23.0973 5.51462 22.8721 5.27671C22.6512 5.03879 22.3049 4.91983 21.8333 4.91983C21.451 4.91983 21.1153 5.02179 20.8264 5.22572C20.5375 5.42965 20.3123 5.69731 20.1509 6.0287V10.9422H18.9719V4.04675H20.0872Z" fill="black"/>
<path d="M30.4303 10.9422C30.3623 10.8062 30.3071 10.564 30.2646 10.2157C29.7165 10.785 29.0622 11.0696 28.3018 11.0696C27.622 11.0696 27.0633 10.8784 26.6257 10.4961C26.1923 10.1094 25.9757 9.62085 25.9757 9.0303C25.9757 8.3123 26.2476 7.75574 26.7914 7.36062C27.3395 6.96126 28.1084 6.76158 29.0984 6.76158H30.2455V6.21989C30.2455 5.80777 30.1223 5.48064 29.8758 5.23847C29.6294 4.99205 29.2662 4.86884 28.7861 4.86884C28.3655 4.86884 28.0129 4.97506 27.7282 5.18749C27.4435 5.39991 27.3012 5.65695 27.3012 5.9586H26.1159C26.1159 5.61447 26.237 5.28308 26.4791 4.96444C26.7255 4.64155 27.0569 4.38663 27.4733 4.1997C27.8939 4.01276 28.3549 3.91929 28.8562 3.91929C29.6507 3.91929 30.2731 4.11897 30.7234 4.51834C31.1738 4.91345 31.4074 5.45939 31.4244 6.15616V9.32983C31.4244 9.96286 31.5052 10.4663 31.6666 10.8402V10.9422H30.4303ZM28.4738 10.0436C28.8434 10.0436 29.1939 9.94799 29.5253 9.75681C29.8567 9.56562 30.0968 9.31708 30.2455 9.01119V7.59642H29.3214C27.8769 7.59642 27.1546 8.01915 27.1546 8.86461C27.1546 9.23424 27.2778 9.52314 27.5243 9.73132C27.7707 9.93949 28.0872 10.0436 28.4738 10.0436ZM28.5057 1.35104H29.4744L31.3225 3.0271H30.067L28.99 2.01382L27.9066 3.0271H26.6448L28.5057 1.35104ZM31.7558 0.24854H33.0304L31.7495 1.8991H30.8509L31.7558 0.24854Z" fill="black"/>
<path d="M37.5296 10.2603C37.0708 10.7998 36.3974 11.0696 35.5094 11.0696C34.7744 11.0696 34.2136 10.8572 33.827 10.4323C33.4446 10.0032 33.2513 9.37019 33.2471 8.53322V4.04675H34.426V8.50136C34.426 9.5465 34.8509 10.0691 35.7006 10.0691C36.6013 10.0691 37.2004 9.73344 37.4977 9.06217V4.04675H38.6767V10.9422H37.5551L37.5296 10.2603Z" fill="black"/>
<path d="M44.9922 10.9422H43.8132V1.15348H44.9922V10.9422Z" fill="black"/>
<path d="M51.142 10.9422C51.074 10.8062 51.0188 10.564 50.9763 10.2157C50.4282 10.785 49.774 11.0696 49.0135 11.0696C48.3337 11.0696 47.775 10.8784 47.3374 10.4961C46.9041 10.1094 46.6874 9.62085 46.6874 9.0303C46.6874 8.3123 46.9593 7.75574 47.5031 7.36062C48.0512 6.96126 48.8201 6.76158 49.8101 6.76158H50.9572V6.21989C50.9572 5.80777 50.834 5.48064 50.5875 5.23847C50.3411 4.99205 49.9779 4.86884 49.4978 4.86884C49.0772 4.86884 48.7246 4.97506 48.4399 5.18749C48.1553 5.39991 48.0129 5.65695 48.0129 5.9586H46.8276C46.8276 5.61447 46.9487 5.28308 47.1908 4.96444C47.4372 4.64155 47.7686 4.38663 48.185 4.1997C48.6056 4.01276 49.0666 3.91929 49.5679 3.91929C50.3624 3.91929 50.9848 4.11897 51.4351 4.51834C51.8855 4.91345 52.1192 5.45939 52.1361 6.15616V9.32983C52.1361 9.96286 52.2169 10.4663 52.3783 10.8402V10.9422H51.142ZM49.1855 10.0436C49.5551 10.0436 49.9057 9.94799 50.237 9.75681C50.5684 9.56562 50.8085 9.31708 50.9572 9.01119V7.59642H50.0331C48.5886 7.59642 47.8663 8.01915 47.8663 8.86461C47.8663 9.23424 47.9896 9.52314 48.236 9.73132C48.4824 9.93949 48.7989 10.0436 49.1855 10.0436ZM52.0278 3.12906H50.9444L49.689 1.94371L48.4335 3.12906H47.3565L49.0899 1.45938H50.288L52.0278 3.12906ZM51.4989 2.24961L51.4925 1.41477C51.7686 1.39777 51.9683 1.36166 52.0915 1.30643C52.219 1.2512 52.2827 1.15348 52.2827 1.01328C52.2827 0.728627 51.9832 0.586301 51.3842 0.586301L51.416 0C51.9598 0 52.3741 0.0934682 52.6587 0.280405C52.9434 0.467341 53.0857 0.715882 53.0857 1.02603C53.0857 1.27669 53.0071 1.47212 52.8499 1.61233C52.6927 1.75253 52.4867 1.8375 52.2317 1.86724L52.2254 2.24961H51.4989Z" fill="black"/>
<path d="M58.2413 10.2603C57.7825 10.7998 57.1091 11.0696 56.2211 11.0696C55.4861 11.0696 54.9253 10.8572 54.5387 10.4323C54.1563 10.0032 53.963 9.37019 53.9588 8.53322V4.04675H55.1378V8.50136C55.1378 9.5465 55.5626 10.0691 56.4123 10.0691C57.313 10.0691 57.9121 9.73344 58.2095 9.06217V4.04675H59.3884V10.9422H58.2668L58.2413 10.2603Z" fill="black"/>
<path d="M61.1473 12.7903L60.4782 12.3314C60.8775 11.7749 61.0857 11.2013 61.1027 10.6108V9.5465H62.2562V10.4706C62.2562 10.8997 62.15 11.3288 61.9376 11.7579C61.7294 12.187 61.466 12.5311 61.1473 12.7903Z" fill="black"/>
<path d="M68.1001 4.04675L68.1383 4.91345C68.6652 4.25068 69.3534 3.91929 70.2031 3.91929C71.6604 3.91929 72.3954 4.74139 72.4081 6.38558V10.9422H71.2292V6.37921C71.2249 5.88212 71.1102 5.51462 70.885 5.27671C70.6641 5.03879 70.3178 4.91983 69.8462 4.91983C69.4639 4.91983 69.1282 5.02179 68.8393 5.22572C68.5504 5.42965 68.3253 5.69731 68.1638 6.0287V10.9422H66.9848V4.04675H68.1001Z" fill="black"/>
<path d="M78.4432 10.9422C78.3752 10.8062 78.32 10.564 78.2775 10.2157C77.7294 10.785 77.0752 11.0696 76.3147 11.0696C75.6349 11.0696 75.0762 10.8784 74.6386 10.4961C74.2053 10.1094 73.9886 9.62085 73.9886 9.0303C73.9886 8.3123 74.2605 7.75574 74.8043 7.36062C75.3524 6.96126 76.1214 6.76158 77.1113 6.76158H78.2584V6.21989C78.2584 5.80777 78.1352 5.48064 77.8888 5.23847C77.6423 4.99205 77.2791 4.86884 76.799 4.86884C76.3784 4.86884 76.0258 4.97506 75.7411 5.18749C75.4565 5.39991 75.3141 5.65695 75.3141 5.9586H74.1288C74.1288 5.61447 74.2499 5.28308 74.492 4.96444C74.7385 4.64155 75.0699 4.38663 75.4862 4.1997C75.9068 4.01276 76.3678 3.91929 76.8691 3.91929C77.6636 3.91929 78.286 4.11897 78.7364 4.51834C79.1867 4.91345 79.4204 5.45939 79.4374 6.15616V9.32983C79.4374 9.96286 79.5181 10.4663 79.6795 10.8402V10.9422H78.4432ZM76.4867 10.0436C76.8564 10.0436 77.2069 9.94799 77.5383 9.75681C77.8696 9.56562 78.1097 9.31708 78.2584 9.01119V7.59642H77.3343C75.8898 7.59642 75.1676 8.01915 75.1676 8.86461C75.1676 9.23424 75.2908 9.52314 75.5372 9.73132C75.7836 9.93949 76.1001 10.0436 76.4867 10.0436ZM76.5186 1.35104H77.4873L79.3354 3.0271H78.08L77.0029 2.01382L75.9196 3.0271H74.6577L76.5186 1.35104ZM79.7688 0.24854H81.0433L79.7624 1.8991H78.8638L79.7688 0.24854Z" fill="black"/>
<path d="M85.5425 10.2603C85.0837 10.7998 84.4103 11.0696 83.5223 11.0696C82.7874 11.0696 82.2265 10.8572 81.8399 10.4323C81.4576 10.0032 81.2642 9.37019 81.26 8.53322V4.04675H82.439V8.50136C82.439 9.5465 82.8638 10.0691 83.7135 10.0691C84.6142 10.0691 85.2133 9.73344 85.5107 9.06217V4.04675H86.6896V10.9422H85.568L85.5425 10.2603Z" fill="black"/>
<path d="M92.8331 4.04675L92.8649 4.81149C93.3705 4.21669 94.0524 3.91929 94.9106 3.91929C95.875 3.91929 96.5314 4.28892 96.8798 5.02817C97.1092 4.69678 97.4066 4.42912 97.772 4.22519C98.1416 4.02126 98.5771 3.91929 99.0784 3.91929C100.591 3.91929 101.36 4.72015 101.385 6.32185V10.9422H100.206V6.39195C100.206 5.89912 100.094 5.53162 99.8687 5.28945C99.6435 5.04304 99.2654 4.91983 98.7343 4.91983C98.2967 4.91983 97.9334 5.05153 97.6445 5.31494C97.3556 5.5741 97.1878 5.92461 97.1411 6.36646V10.9422H95.9557V6.42382C95.9557 5.42116 95.465 4.91983 94.4836 4.91983C93.7104 4.91983 93.1814 5.24909 92.8968 5.90762V10.9422H91.7178V4.04675H92.8331Z" fill="black"/>
<path d="M104.451 10.9422H103.265V4.04675H104.451V10.9422ZM104.565 3.03347H103.552L101.908 1.15986H103.329L104.565 3.03347Z" fill="black"/>
<path d="M110.741 4.04675L110.773 4.81149C111.278 4.21669 111.96 3.91929 112.818 3.91929C113.783 3.91929 114.439 4.28892 114.787 5.02817C115.017 4.69678 115.314 4.42912 115.68 4.22519C116.049 4.02126 116.485 3.91929 116.986 3.91929C118.499 3.91929 119.268 4.72015 119.293 6.32185V10.9422H118.114V6.39195C118.114 5.89912 118.001 5.53162 117.776 5.28945C117.551 5.04304 117.173 4.91983 116.642 4.91983C116.204 4.91983 115.841 5.05153 115.552 5.31494C115.263 5.5741 115.095 5.92461 115.049 6.36646V10.9422H113.863V6.42382C113.863 5.42116 113.373 4.91983 112.391 4.91983C111.618 4.91983 111.089 5.24909 110.804 5.90762V10.9422H109.625V4.04675H110.741Z" fill="black"/>
<path d="M122.358 10.9422H121.179V4.04675H122.358V10.9422ZM121.084 2.21775C121.084 2.02656 121.141 1.86512 121.256 1.73341C121.375 1.60171 121.549 1.53585 121.778 1.53585C122.008 1.53585 122.182 1.60171 122.301 1.73341C122.42 1.86512 122.479 2.02656 122.479 2.21775C122.479 2.40893 122.42 2.56825 122.301 2.69571C122.182 2.82317 122.008 2.88689 121.778 2.88689C121.549 2.88689 121.375 2.82317 121.256 2.69571C121.141 2.56825 121.084 2.40893 121.084 2.21775Z" fill="black"/>
<path d="M125.366 4.04675L125.405 4.91345C125.931 4.25068 126.62 3.91929 127.469 3.91929C128.927 3.91929 129.662 4.74139 129.674 6.38558V10.9422H128.495V6.37921C128.491 5.88212 128.376 5.51462 128.151 5.27671C127.93 5.03879 127.584 4.91983 127.113 4.91983C126.73 4.91983 126.395 5.02179 126.106 5.22572C125.817 5.42965 125.592 5.69731 125.43 6.0287V10.9422H124.251V4.04675H125.366Z" fill="black"/>
<path d="M132.733 10.9422H131.554V4.04675H132.733V10.9422ZM131.459 2.21775C131.459 2.02656 131.516 1.86512 131.631 1.73341C131.75 1.60171 131.924 1.53585 132.153 1.53585C132.383 1.53585 132.557 1.60171 132.676 1.73341C132.795 1.86512 132.854 2.02656 132.854 2.21775C132.854 2.40893 132.795 2.56825 132.676 2.69571C132.557 2.82317 132.383 2.88689 132.153 2.88689C131.924 2.88689 131.75 2.82317 131.631 2.69571C131.516 2.56825 131.459 2.40893 131.459 2.21775Z" fill="black"/>
<path d="M134.652 10.324C134.652 10.1201 134.711 9.95012 134.83 9.81416C134.953 9.67821 135.136 9.61023 135.378 9.61023C135.62 9.61023 135.803 9.67821 135.926 9.81416C136.054 9.95012 136.117 10.1201 136.117 10.324C136.117 10.5194 136.054 10.683 135.926 10.8147C135.803 10.9464 135.62 11.0123 135.378 11.0123C135.136 11.0123 134.953 10.9464 134.83 10.8147C134.711 10.683 134.652 10.5194 134.652 10.324Z" fill="black"/>
<path d="M138.093 10.324C138.093 10.1201 138.152 9.95012 138.271 9.81416C138.395 9.67821 138.577 9.61023 138.819 9.61023C139.062 9.61023 139.244 9.67821 139.367 9.81416C139.495 9.95012 139.559 10.1201 139.559 10.324C139.559 10.5194 139.495 10.683 139.367 10.8147C139.244 10.9464 139.062 11.0123 138.819 11.0123C138.577 11.0123 138.395 10.9464 138.271 10.8147C138.152 10.683 138.093 10.5194 138.093 10.324Z" fill="black"/>
<path d="M141.534 10.324C141.534 10.1201 141.594 9.95012 141.713 9.81416C141.836 9.67821 142.019 9.61023 142.261 9.61023C142.503 9.61023 142.686 9.67821 142.809 9.81416C142.936 9.95012 143 10.1201 143 10.324C143 10.5194 142.936 10.683 142.809 10.8147C142.686 10.9464 142.503 11.0123 142.261 11.0123C142.019 11.0123 141.836 10.9464 141.713 10.8147C141.594 10.683 141.534 10.5194 141.534 10.324Z" fill="black"/>
</svg>
