<svg width="113" height="14" viewBox="0 0 113 14" fill="none" xmlns="http://www.w3.org/2000/svg">
<path d="M3.75324 5.23663L5.98472 1.66882H7.42975L4.48854 6.28524L7.50008 10.9784H6.04227L3.75324 7.34663L1.45142 10.9784H0L3.01794 6.28524L0.0703333 1.66882H1.50897L3.75324 5.23663Z" fill="black"/>
<path d="M11.4451 11.1063C10.5074 11.1063 9.74436 10.7994 9.15611 10.1855C8.56787 9.56746 8.27375 8.74264 8.27375 7.71108V7.49369C8.27375 6.80741 8.40376 6.19572 8.66378 5.65863C8.92806 5.11728 9.29465 4.69528 9.76354 4.39263C10.2367 4.08572 10.7482 3.93227 11.2981 3.93227C12.1975 3.93227 12.8966 4.22852 13.3953 4.82103C13.894 5.41353 14.1434 6.26179 14.1434 7.36581V7.85815H9.45663C9.47368 8.54016 9.67189 9.09217 10.0513 9.51417C10.4349 9.93191 10.9208 10.1408 11.5091 10.1408C11.9268 10.1408 12.2806 10.0555 12.5705 9.88502C12.8603 9.71452 13.114 9.4886 13.3314 9.20727L14.0539 9.76993C13.4742 10.6608 12.6046 11.1063 11.4451 11.1063ZM11.2981 4.90415C10.8207 4.90415 10.42 5.07891 10.096 5.42845C9.77206 5.77372 9.57172 6.25966 9.49499 6.88627H12.9605V6.79675C12.9264 6.19572 12.7644 5.7311 12.4746 5.40287C12.1847 5.07039 11.7925 4.90415 11.2981 4.90415Z" fill="black"/>
<path d="M21.5412 10.1408C21.9632 10.1408 22.3319 10.0129 22.6473 9.75714C22.9627 9.50139 23.1375 9.18169 23.1716 8.79805H24.2906C24.2692 9.19448 24.1328 9.57172 23.8813 9.92978C23.6299 10.2878 23.2931 10.5734 22.8711 10.7866C22.4534 10.9997 22.0101 11.1063 21.5412 11.1063C20.5991 11.1063 19.8489 10.793 19.2905 10.1664C18.7364 9.53549 18.4593 8.67444 18.4593 7.58321V7.38499C18.4593 6.7115 18.5829 6.1126 18.8301 5.5883C19.0774 5.064 19.4312 4.65692 19.8915 4.36706C20.3562 4.0772 20.9039 3.93227 21.5348 3.93227C22.3106 3.93227 22.9542 4.16458 23.4657 4.62921C23.9815 5.09383 24.2565 5.697 24.2906 6.43869H23.1716C23.1375 5.99112 22.967 5.62453 22.6601 5.33894C22.3575 5.04908 21.9823 4.90415 21.5348 4.90415C20.9337 4.90415 20.467 5.12154 20.1345 5.55633C19.8063 5.98685 19.6422 6.61133 19.6422 7.42975V7.65354C19.6422 8.45065 19.8063 9.06447 20.1345 9.49499C20.4627 9.92552 20.9316 10.1408 21.5412 10.1408Z" fill="black"/>
<path d="M29.8916 10.9784C29.8234 10.842 29.768 10.599 29.7254 10.2495C29.1755 10.8207 28.5191 11.1063 27.7561 11.1063C27.074 11.1063 26.5135 10.9144 26.0745 10.5308C25.6397 10.1429 25.4223 9.65271 25.4223 9.0602C25.4223 8.33982 25.6951 7.78142 26.2407 7.38499C26.7906 6.98431 27.5621 6.78396 28.5553 6.78396H29.7062V6.24048C29.7062 5.82701 29.5826 5.49878 29.3354 5.25581C29.0881 5.00858 28.7237 4.88497 28.242 4.88497C27.82 4.88497 27.4662 4.99153 27.1806 5.20466C26.895 5.41779 26.7522 5.67568 26.7522 5.97833H25.5629C25.5629 5.63306 25.6844 5.30057 25.9274 4.98087C26.1746 4.65692 26.5071 4.40116 26.9249 4.2136C27.3469 4.02605 27.8094 3.93227 28.3123 3.93227C29.1095 3.93227 29.7339 4.13261 30.1858 4.5333C30.6376 4.92972 30.872 5.47747 30.8891 6.17654V9.36072C30.8891 9.99585 30.9701 10.501 31.1321 10.8761V10.9784H29.8916ZM27.9287 10.0768C28.2996 10.0768 28.6512 9.98093 28.9837 9.78911C29.3162 9.5973 29.557 9.34793 29.7062 9.04102V7.62157H28.7791C27.3298 7.62157 26.6052 8.0457 26.6052 8.89396C26.6052 9.26481 26.7288 9.55467 26.976 9.76354C27.2232 9.97241 27.5408 10.0768 27.9287 10.0768ZM30.774 3.06269H29.5144L28.4274 2.05245L27.3405 3.06269H26.0873L27.9415 1.38748H28.9134L30.774 3.06269ZM26.554 1.93097H25.6589L24.3801 0.281333H25.6525L26.554 1.93097Z" fill="black"/>
<path d="M33.8623 4.06015L33.9006 4.92972C34.4292 4.26475 35.1197 3.93227 35.9723 3.93227C37.4344 3.93227 38.1718 4.75709 38.1846 6.40672V10.9784H37.0017V6.40033C36.9974 5.9016 36.8823 5.53288 36.6564 5.29418C36.4348 5.05547 36.0874 4.93612 35.6142 4.93612C35.2306 4.93612 34.8938 5.03842 34.604 5.24303C34.3141 5.44763 34.0882 5.71618 33.9262 6.04866V10.9784H32.7433V4.06015H33.8623Z" fill="black"/>
<path d="M45.9916 10.1408C46.4136 10.1408 46.7823 10.0129 47.0977 9.75714C47.4132 9.50139 47.5879 9.18169 47.622 8.79805H48.741C48.7196 9.19448 48.5832 9.57172 48.3317 9.92978C48.0803 10.2878 47.7435 10.5734 47.3215 10.7866C46.9038 10.9997 46.4605 11.1063 45.9916 11.1063C45.0495 11.1063 44.2993 10.793 43.7409 10.1664C43.1868 9.53549 42.9097 8.67444 42.9097 7.58321V7.38499C42.9097 6.7115 43.0333 6.1126 43.2805 5.5883C43.5278 5.064 43.8816 4.65692 44.3419 4.36706C44.8066 4.0772 45.3543 3.93227 45.9852 3.93227C46.761 3.93227 47.4046 4.16458 47.9161 4.62921C48.4319 5.09383 48.7069 5.697 48.741 6.43869H47.622C47.5879 5.99112 47.4174 5.62453 47.1105 5.33894C46.8079 5.04908 46.4328 4.90415 45.9852 4.90415C45.3841 4.90415 44.9174 5.12154 44.5849 5.55633C44.2567 5.98685 44.0926 6.61133 44.0926 7.42975V7.65354C44.0926 8.45065 44.2567 9.06447 44.5849 9.49499C44.9131 9.92552 45.382 10.1408 45.9916 10.1408Z" fill="black"/>
<path d="M54.342 10.9784C54.2738 10.842 54.2184 10.599 54.1758 10.2495C53.6259 10.8207 52.9695 11.1063 52.2065 11.1063C51.5245 11.1063 50.9639 10.9144 50.5249 10.5308C50.0901 10.1429 49.8727 9.65271 49.8727 9.0602C49.8727 8.33982 50.1455 7.78142 50.6911 7.38499C51.241 6.98431 52.0125 6.78396 53.0057 6.78396H54.1566V6.24048C54.1566 5.82701 54.033 5.49878 53.7858 5.25581C53.5385 5.00858 53.1741 4.88497 52.6924 4.88497C52.2704 4.88497 51.9166 4.99153 51.631 5.20466C51.3454 5.41779 51.2026 5.67568 51.2026 5.97833H50.0134C50.0134 5.63306 50.1348 5.30057 50.3778 4.98087C50.625 4.65692 50.9575 4.40116 51.3753 4.2136C51.7973 4.02605 52.2598 3.93227 52.7627 3.93227C53.5599 3.93227 54.1843 4.13261 54.6362 4.5333C55.088 4.92972 55.3225 5.47747 55.3395 6.17654V9.36072C55.3395 9.99585 55.4205 10.501 55.5825 10.8761V10.9784H54.342ZM52.3791 10.0768C52.75 10.0768 53.1016 9.98093 53.4341 9.78911C53.7666 9.5973 54.0074 9.34793 54.1566 9.04102V7.62157H53.2295C51.7802 7.62157 51.0556 8.0457 51.0556 8.89396C51.0556 9.26481 51.1792 9.55467 51.4264 9.76354C51.6736 9.97241 51.9912 10.0768 52.3791 10.0768ZM55.2308 3.13942H54.1438L52.8842 1.95015L51.6246 3.13942H50.5441L52.2832 1.46421H53.4853L55.2308 3.13942ZM54.7001 2.25706L54.6937 1.41945C54.9708 1.4024 55.1711 1.36617 55.2947 1.31076C55.4226 1.25534 55.4866 1.1573 55.4866 1.01664C55.4866 0.73104 55.186 0.588242 54.585 0.588242L54.617 0C55.1626 0 55.5782 0.0937777 55.8638 0.281333C56.1494 0.468889 56.2922 0.718252 56.2922 1.02942C56.2922 1.28092 56.2133 1.477 56.0556 1.61767C55.8979 1.75833 55.6912 1.84358 55.4354 1.87342L55.429 2.25706H54.7001Z" fill="black"/>
<path d="M61.4649 10.2942C61.0045 10.8356 60.3289 11.1063 59.438 11.1063C58.7006 11.1063 58.1379 10.8931 57.75 10.4669C57.3664 10.0363 57.1724 9.40121 57.1682 8.56148V4.06015H58.351V8.52951C58.351 9.57811 58.7773 10.1024 59.6298 10.1024C60.5335 10.1024 61.1345 9.76567 61.4329 9.09217V4.06015H62.6158V10.9784H61.4905L61.4649 10.2942Z" fill="black"/>
<path d="M74.419 3.09466H73.2169V10.9784H72.13L72.0724 10.2367C71.5993 10.8164 70.9407 11.1063 70.0967 11.1063C69.2953 11.1063 68.641 10.778 68.1338 10.1216C67.6308 9.46515 67.3793 8.60837 67.3793 7.55124V7.46172C67.3793 6.40033 67.6308 5.5478 68.1338 4.90415C68.6368 4.25623 69.2953 3.93227 70.1095 3.93227C70.9194 3.93227 71.5609 4.20934 72.0341 4.76348V3.09466H70.3461V2.12918H72.0341V1.1573H73.2169V2.12918H74.419V3.09466ZM68.5622 7.59599C68.5622 8.38032 68.7241 8.99413 69.0481 9.43745C69.3721 9.88076 69.8196 10.1024 70.3908 10.1024C71.141 10.1024 71.6888 9.76567 72.0341 9.09217V5.91439C71.6803 5.26221 71.1368 4.93612 70.4036 4.93612C69.8239 4.93612 69.3721 5.1599 69.0481 5.60748C68.7241 6.05506 68.5622 6.71789 68.5622 7.59599Z" fill="black"/>
<path d="M79.7643 10.9784C79.6961 10.842 79.6407 10.599 79.5981 10.2495C79.0482 10.8207 78.3918 11.1063 77.6288 11.1063C76.9467 11.1063 76.3862 10.9144 75.9472 10.5308C75.5124 10.1429 75.295 9.65271 75.295 9.0602C75.295 8.33982 75.5678 7.78142 76.1134 7.38499C76.6633 6.98431 77.4348 6.78396 78.428 6.78396H79.5789V6.24048C79.5789 5.82701 79.4553 5.49878 79.2081 5.25581C78.9608 5.00858 78.5964 4.88497 78.1147 4.88497C77.6927 4.88497 77.3389 4.99153 77.0533 5.20466C76.7677 5.41779 76.6249 5.67568 76.6249 5.97833H75.4356C75.4356 5.63306 75.5571 5.30057 75.8001 4.98087C76.0473 4.65692 76.3798 4.40116 76.7975 4.2136C77.2195 4.02605 77.682 3.93227 78.185 3.93227C78.9821 3.93227 79.6066 4.13261 80.0585 4.5333C80.5103 4.92972 80.7447 5.47747 80.7618 6.17654V9.36072C80.7618 9.99585 80.8428 10.501 81.0048 10.8761V10.9784H79.7643ZM77.8014 10.0768C78.1722 10.0768 78.5239 9.98093 78.8564 9.78911C79.1889 9.5973 79.4297 9.34793 79.5789 9.04102V7.62157H78.6518C77.2025 7.62157 76.4778 8.0457 76.4778 8.89396C76.4778 9.26481 76.6015 9.55467 76.8487 9.76354C77.0959 9.97241 77.4135 10.0768 77.8014 10.0768Z" fill="black"/>
<path d="M86.9831 4.06015L87.0214 4.92972C87.55 4.26475 88.2406 3.93227 89.0931 3.93227C90.5552 3.93227 91.2926 4.75709 91.3054 6.40672V10.9784H90.1225V6.40033C90.1182 5.9016 90.0031 5.53288 89.7772 5.29418C89.5556 5.05547 89.2082 4.93612 88.735 4.93612C88.3514 4.93612 88.0146 5.03842 87.7248 5.24303C87.4349 5.44763 87.209 5.71618 87.047 6.04866V10.9784H85.8641V4.06015H86.9831Z" fill="black"/>
<path d="M97.3604 10.9784C97.2922 10.842 97.2368 10.599 97.1942 10.2495C96.6443 10.8207 95.9879 11.1063 95.2249 11.1063C94.5428 11.1063 93.9823 10.9144 93.5433 10.5308C93.1085 10.1429 92.8911 9.65271 92.8911 9.0602C92.8911 8.33982 93.1639 7.78142 93.7095 7.38499C94.2594 6.98431 95.0309 6.78396 96.0241 6.78396H97.175V6.24048C97.175 5.82701 97.0514 5.49878 96.8042 5.25581C96.5569 5.00858 96.1925 4.88497 95.7108 4.88497C95.2888 4.88497 94.935 4.99153 94.6494 5.20466C94.3638 5.41779 94.221 5.67568 94.221 5.97833H93.0317C93.0317 5.63306 93.1532 5.30057 93.3962 4.98087C93.6434 4.65692 93.9759 4.40116 94.3937 4.2136C94.8157 4.02605 95.2781 3.93227 95.7811 3.93227C96.5782 3.93227 97.2027 4.13261 97.6546 4.5333C98.1064 4.92972 98.3408 5.47747 98.3579 6.17654V9.36072C98.3579 9.99585 98.4389 10.501 98.6009 10.8761V10.9784H97.3604ZM95.3975 10.0768C95.7683 10.0768 96.12 9.98093 96.4525 9.78911C96.785 9.5973 97.0258 9.34793 97.175 9.04102V7.62157H96.2479C94.7986 7.62157 94.074 8.0457 94.074 8.89396C94.074 9.26481 94.1976 9.55467 94.4448 9.76354C94.692 9.97241 95.0096 10.0768 95.3975 10.0768ZM97.8272 1.41306C97.8272 1.92884 97.6503 2.34444 97.2965 2.65988C96.947 2.97105 96.4866 3.12663 95.9154 3.12663C95.3442 3.12663 94.8817 2.96892 94.5279 2.65348C94.1741 2.33805 93.9972 1.92457 93.9972 1.41306H94.9627C94.9627 1.71144 95.0437 1.94589 95.2057 2.11639C95.3677 2.28263 95.6042 2.36576 95.9154 2.36576C96.2138 2.36576 96.4461 2.28263 96.6123 2.11639C96.7829 1.95015 96.8681 1.71571 96.8681 1.41306H97.8272Z" fill="black"/>
<path d="M101.331 4.06015L101.369 4.92972C101.898 4.26475 102.589 3.93227 103.441 3.93227C104.903 3.93227 105.641 4.75709 105.653 6.40672V10.9784H104.47V6.40033C104.466 5.9016 104.351 5.53288 104.125 5.29418C103.904 5.05547 103.556 4.93612 103.083 4.93612C102.699 4.93612 102.363 5.03842 102.073 5.24303C101.783 5.44763 101.557 5.71618 101.395 6.04866V10.9784H100.212V4.06015H101.331Z" fill="black"/>
<path d="M107.156 7.46172C107.156 6.38328 107.405 5.52649 107.904 4.89136C108.403 4.25197 109.063 3.93227 109.886 3.93227C110.73 3.93227 111.389 4.23065 111.862 4.82742L111.919 4.06015H113V10.8121C113 11.7073 112.734 12.4128 112.201 12.9285C111.672 13.4443 110.96 13.7022 110.065 13.7022C109.566 13.7022 109.078 13.5956 108.601 13.3825C108.124 13.1694 107.759 12.8774 107.508 12.5065L108.121 11.7968C108.629 12.4234 109.249 12.7367 109.982 12.7367C110.558 12.7367 111.005 12.5747 111.325 12.2508C111.649 11.9268 111.811 11.4707 111.811 10.8825V10.2878C111.338 10.8335 110.692 11.1063 109.873 11.1063C109.063 11.1063 108.407 10.7802 107.904 10.128C107.405 9.47581 107.156 8.58705 107.156 7.46172ZM108.345 7.59599C108.345 8.37605 108.505 8.98987 108.825 9.43745C109.144 9.88076 109.592 10.1024 110.167 10.1024C110.913 10.1024 111.461 9.76354 111.811 9.08578V5.92718C111.448 5.26647 110.905 4.93612 110.18 4.93612C109.605 4.93612 109.155 5.1599 108.831 5.60748C108.507 6.05506 108.345 6.71789 108.345 7.59599Z" fill="black"/>
</svg>
