<svg width="75" height="13" viewBox="0 0 75 13" fill="none" xmlns="http://www.w3.org/2000/svg">
<path d="M3.31033 5.66846C2.25801 5.36597 1.49114 4.99531 1.00971 4.55649C0.532549 4.11341 0.293967 3.56808 0.293967 2.9205C0.293967 2.18771 0.585804 1.58274 1.16948 1.10557C1.75741 0.624148 2.52002 0.383436 3.45731 0.383436C4.09637 0.383436 4.66513 0.506987 5.1636 0.75409C5.66633 1.00119 6.05402 1.34202 6.32669 1.77658C6.60361 2.21115 6.74208 2.68618 6.74208 3.20169H5.50869C5.50869 2.63931 5.32975 2.19836 4.97188 1.87883C4.61401 1.55504 4.10915 1.39315 3.45731 1.39315C2.85233 1.39315 2.37943 1.52735 2.0386 1.79576C1.70203 2.0599 1.53374 2.42843 1.53374 2.90133C1.53374 3.2805 1.69351 3.60216 2.01304 3.86631C2.33683 4.12619 2.88429 4.36478 3.65542 4.58206C4.43081 4.79934 5.03579 5.04005 5.47035 5.30419C5.90917 5.56408 6.23296 5.86869 6.44172 6.21805C6.65474 6.5674 6.76125 6.97853 6.76125 7.45143C6.76125 8.20552 6.46728 8.8105 5.87935 9.26636C5.29141 9.71796 4.50537 9.94376 3.52122 9.94376C2.88216 9.94376 2.2857 9.82234 1.73185 9.5795C1.178 9.3324 0.74983 8.99582 0.447342 8.56979C0.149114 8.14375 0 7.66019 0 7.11912H1.23338C1.23338 7.68149 1.44001 8.1267 1.85327 8.45475C2.27079 8.77854 2.82677 8.94044 3.52122 8.94044C4.1688 8.94044 4.66513 8.80837 5.01022 8.54422C5.35532 8.28008 5.52786 7.92007 5.52786 7.46421C5.52786 7.00835 5.3681 6.65687 5.04857 6.40976C4.72904 6.1584 4.14962 5.9113 3.31033 5.66846Z" fill="#E83030"/>
<path d="M9.33666 3.7385C9.86069 3.09518 10.5423 2.77352 11.3816 2.77352C12.843 2.77352 13.58 3.5979 13.5928 5.24668V9.81595H12.4105V5.24029C12.4063 4.74182 12.2912 4.3733 12.0654 4.13471C11.8439 3.89613 11.4967 3.77684 11.0238 3.77684C10.6403 3.77684 10.3038 3.87909 10.0141 4.08359C9.72435 4.28809 9.49855 4.55649 9.33666 4.8888V9.81595H8.1544V0H9.33666V3.7385Z" fill="#E83030"/>
<path d="M15.0498 6.29473C15.0498 5.61733 15.1819 5.00809 15.4461 4.46702C15.7145 3.92595 16.0851 3.50844 16.558 3.21447C17.0352 2.9205 17.5784 2.77352 18.1876 2.77352C19.1292 2.77352 19.8897 3.09944 20.4691 3.75128C21.0527 4.40312 21.3446 5.27011 21.3446 6.35225V6.43533C21.3446 7.10847 21.2146 7.71345 20.9548 8.25026C20.6991 8.78281 20.3306 9.19819 19.8492 9.49642C19.372 9.79465 18.8224 9.94376 18.2004 9.94376C17.2631 9.94376 16.5026 9.61784 15.919 8.966C15.3396 8.31416 15.0498 7.45143 15.0498 6.37781V6.29473ZM16.2385 6.43533C16.2385 7.2022 16.4153 7.81783 16.7689 8.28221C17.1268 8.74659 17.604 8.97878 18.2004 8.97878C18.8011 8.97878 19.2783 8.74446 19.6319 8.27582C19.9855 7.80291 20.1623 7.14255 20.1623 6.29473C20.1623 5.53638 19.9813 4.92289 19.6191 4.45424C19.2612 3.98134 18.7841 3.74489 18.1876 3.74489C17.604 3.74489 17.1332 3.97708 16.7753 4.44146C16.4174 4.90585 16.2385 5.57047 16.2385 6.43533Z" fill="#E83030"/>
<path d="M28.6682 6.43533C28.6682 7.48765 28.4275 8.33546 27.9461 8.97878C27.4646 9.6221 26.8128 9.94376 25.9905 9.94376C25.1512 9.94376 24.4909 9.67749 24.0095 9.14494V12.4744H22.8272V2.90133H23.9072L23.9647 3.6682C24.4461 3.07174 25.115 2.77352 25.9714 2.77352C26.8021 2.77352 27.4582 3.08666 27.9397 3.71293C28.4254 4.33921 28.6682 5.21046 28.6682 6.32669V6.43533ZM27.4859 6.30112C27.4859 5.52147 27.3198 4.90585 26.9875 4.45424C26.6552 4.00264 26.1993 3.77684 25.6199 3.77684C24.9041 3.77684 24.3673 4.09424 24.0095 4.72904V8.03298C24.3631 8.66351 24.9041 8.97878 25.6327 8.97878C26.1993 8.97878 26.6488 8.75511 26.9811 8.30777C27.3177 7.85617 27.4859 7.18729 27.4859 6.30112Z" fill="#E83030"/>
<path d="M33.6081 9.81595V0.511247H36.2347C37.0441 0.511247 37.7599 0.690184 38.3819 1.04806C39.0039 1.40593 39.4832 1.91505 39.8198 2.57541C40.1606 3.23577 40.3332 3.99412 40.3374 4.85046V5.44479C40.3374 6.32243 40.167 7.09143 39.8262 7.75179C39.4896 8.41215 39.006 8.91914 38.3755 9.27275C37.7492 9.62636 37.0186 9.80743 36.1835 9.81595H33.6081ZM34.8351 1.52096V8.81263H36.126C37.0718 8.81263 37.8067 8.51866 38.3308 7.93073C38.8591 7.34279 39.1232 6.50562 39.1232 5.41922V4.87602C39.1232 3.81944 38.874 2.99932 38.3755 2.41564C37.8813 1.82771 37.1783 1.52948 36.2666 1.52096H34.8351Z" fill="#E83030"/>
<path d="M44.8811 9.94376C43.9438 9.94376 43.1812 9.63701 42.5933 9.02352C42.0054 8.40576 41.7114 7.58137 41.7114 6.55036V6.33308C41.7114 5.64715 41.8413 5.03579 42.1012 4.49898C42.3654 3.95791 42.7318 3.53613 43.2004 3.23364C43.6733 2.92689 44.1846 2.77352 44.7342 2.77352C45.6331 2.77352 46.3318 3.06961 46.8303 3.66181C47.3287 4.254 47.578 5.10182 47.578 6.20527V6.69734H42.8937C42.9107 7.379 43.1088 7.93073 43.488 8.35251C43.8714 8.77002 44.3571 8.97878 44.945 8.97878C45.3626 8.97878 45.7162 8.89358 46.0059 8.72316C46.2956 8.55274 46.5491 8.32694 46.7664 8.04576L47.4885 8.60813C46.9091 9.49855 46.04 9.94376 44.8811 9.94376ZM44.7342 3.74489C44.257 3.74489 43.8565 3.91956 43.5327 4.26892C43.2089 4.61401 43.0087 5.09969 42.932 5.72597H46.3957V5.6365C46.3616 5.03579 46.1997 4.5714 45.91 4.24335C45.6203 3.91104 45.2284 3.74489 44.7342 3.74489Z" fill="#E83030"/>
<path d="M51.1439 8.21191L52.8566 2.90133H54.0644L51.5849 9.81595H50.6838L48.1787 2.90133H49.3865L51.1439 8.21191Z" fill="#E83030"/>
<path d="M59.3686 9.81595C59.3004 9.67962 59.2451 9.43678 59.2025 9.08742C58.6529 9.65832 57.9968 9.94376 57.2342 9.94376C56.5525 9.94376 55.9922 9.75204 55.5534 9.36861C55.1189 8.98091 54.9016 8.49097 54.9016 7.89877C54.9016 7.17877 55.1742 6.62065 55.7196 6.22444C56.2692 5.82396 57.0403 5.62372 58.033 5.62372H59.1833V5.08052C59.1833 4.66726 59.0597 4.33921 58.8126 4.09637C58.5655 3.84927 58.2013 3.72572 57.7198 3.72572C57.2981 3.72572 56.9444 3.83223 56.659 4.04525C56.3736 4.25827 56.2308 4.51602 56.2308 4.81851H55.0422C55.0422 4.47342 55.1636 4.1411 55.4064 3.82157C55.6535 3.49778 55.9859 3.24216 56.4034 3.0547C56.8252 2.86725 57.2874 2.77352 57.7901 2.77352C58.5868 2.77352 59.211 2.97376 59.6626 3.37423C60.1142 3.77045 60.3485 4.31791 60.3655 5.01662V8.19913C60.3655 8.83393 60.4465 9.33879 60.6084 9.7137V9.81595H59.3686ZM57.4067 8.91488C57.7774 8.91488 58.1288 8.81902 58.4611 8.6273C58.7935 8.43558 59.0342 8.18635 59.1833 7.8796V6.46089H58.2566C56.8081 6.46089 56.0838 6.8848 56.0838 7.73262C56.0838 8.10327 56.2074 8.39298 56.4545 8.60174C56.7016 8.8105 57.019 8.91488 57.4067 8.91488Z" fill="#E83030"/>
<path d="M63.3372 2.90133L63.3755 3.77045C63.9038 3.10583 64.594 2.77352 65.4461 2.77352C66.9074 2.77352 67.6444 3.5979 67.6572 5.24668V9.81595H66.4749V5.24029C66.4707 4.74182 66.3557 4.3733 66.1299 4.13471C65.9083 3.89613 65.5611 3.77684 65.0882 3.77684C64.7048 3.77684 64.3682 3.87909 64.0785 4.08359C63.7888 4.28809 63.563 4.55649 63.4011 4.8888V9.81595H62.2188V2.90133H63.3372Z" fill="#E83030"/>
<path d="M69.159 6.30112C69.159 5.22324 69.4082 4.36691 69.9067 3.73211C70.4052 3.09305 71.0655 2.77352 71.8878 2.77352C72.7313 2.77352 73.3896 3.07174 73.8625 3.6682L73.92 2.90133H75V9.6498C75 10.5445 74.7337 11.2496 74.2012 11.7651C73.6729 12.2806 72.9614 12.5383 72.0667 12.5383C71.5683 12.5383 71.0804 12.4318 70.6033 12.2188C70.1261 12.0058 69.7618 11.714 69.5105 11.3433L70.124 10.6339C70.631 11.2602 71.2508 11.5734 71.9836 11.5734C72.5588 11.5734 73.0061 11.4115 73.3257 11.0877C73.6495 10.7639 73.8113 10.308 73.8113 9.72009V9.12577C73.3384 9.6711 72.693 9.94376 71.875 9.94376C71.0655 9.94376 70.4094 9.61784 69.9067 8.966C69.4082 8.31416 69.159 7.42587 69.159 6.30112ZM70.3476 6.43533C70.3476 7.21498 70.5074 7.82848 70.8269 8.27582C71.1465 8.7189 71.5938 8.94044 72.169 8.94044C72.9145 8.94044 73.462 8.60174 73.8113 7.92434V4.76738C73.4492 4.10702 72.906 3.77684 72.1817 3.77684C71.6066 3.77684 71.1571 4.00051 70.8333 4.44785C70.5095 4.89519 70.3476 5.55769 70.3476 6.43533Z" fill="#E83030"/>
</svg>
