<svg width="92" height="14" viewBox="0 0 92 14" fill="none" xmlns="http://www.w3.org/2000/svg">
<path d="M7.21946 2.43641H4.21883V10.7587H2.99422V2.43641H0V1.42337H7.21946V2.43641Z" fill="black"/>
<path d="M9.60457 4.66123C10.1303 4.0158 10.8142 3.69308 11.6563 3.69308C13.1224 3.69308 13.8619 4.52018 13.8747 6.17437V10.7587H12.6885V6.16796C12.6843 5.66785 12.5689 5.29812 12.3423 5.05875C12.1201 4.81938 11.7717 4.6997 11.2972 4.6997C10.9125 4.6997 10.5749 4.80229 10.2842 5.00746C9.99354 5.21263 9.767 5.48192 9.60457 5.81532V10.7587H8.41843V0.910447H9.60457V4.66123Z" fill="black"/>
<path d="M18.5295 10.8869C17.5891 10.8869 16.824 10.5791 16.2342 9.96362C15.6443 9.34383 15.3494 8.51674 15.3494 7.48233V7.26434C15.3494 6.57616 15.4797 5.96278 15.7405 5.42421C16.0055 4.88136 16.3731 4.4582 16.8433 4.15471C17.3177 3.84696 17.8307 3.69308 18.382 3.69308C19.2839 3.69308 19.9849 3.99015 20.4851 4.58429C20.9852 5.17843 21.2352 6.02904 21.2352 7.13611V7.6298H16.5355C16.5526 8.3137 16.7514 8.86724 17.1318 9.2904C17.5165 9.70929 18.0038 9.91874 18.5936 9.91874C19.0125 9.91874 19.3673 9.83325 19.658 9.66228C19.9486 9.4913 20.2029 9.26476 20.4209 8.98265L21.1454 9.54687C20.5641 10.4402 19.6921 10.8869 18.5295 10.8869ZM18.382 4.66764C17.9033 4.66764 17.5015 4.84289 17.1767 5.19339C16.8518 5.53962 16.6509 6.0269 16.574 6.65524H20.0491V6.56547C20.0149 5.96278 19.8524 5.49688 19.5618 5.16775C19.2711 4.83434 18.8779 4.66764 18.382 4.66764ZM17.8948 1.10921H18.8693L20.7287 2.79546H19.4656L18.382 1.77601L17.2921 2.79546H16.0226L17.8948 1.10921ZM21.1647 0H22.447L21.1583 1.6606H20.2542L21.1647 0Z" fill="black"/>
<path d="M25.5887 7.23228C25.5887 6.15086 25.8387 5.2917 26.3388 4.65482C26.8389 4.01366 27.5015 3.69308 28.3264 3.69308C29.1728 3.69308 29.8332 3.99229 30.3076 4.5907L30.3653 3.82131H31.4489V10.592C31.4489 11.4896 31.1817 12.197 30.6474 12.7142C30.1174 13.2314 29.4036 13.49 28.506 13.49C28.0059 13.49 27.5164 13.3831 27.0377 13.1694C26.559 12.9557 26.1935 12.6629 25.9413 12.291L26.5568 11.5793C27.0655 12.2077 27.6874 12.5218 28.4226 12.5218C28.9997 12.5218 29.4485 12.3594 29.769 12.0346C30.0939 11.7097 30.2563 11.2524 30.2563 10.6625V10.0662C29.7819 10.6133 29.1343 10.8869 28.3136 10.8869C27.5015 10.8869 26.8432 10.5599 26.3388 9.90592C25.8387 9.25193 25.5887 8.36072 25.5887 7.23228ZM26.7812 7.36692C26.7812 8.14914 26.9415 8.76465 27.2621 9.21346C27.5827 9.658 28.0315 9.88027 28.6085 9.88027C29.3566 9.88027 29.9058 9.54046 30.2563 8.86083V5.6935C29.893 5.03097 29.348 4.6997 28.6214 4.6997C28.0443 4.6997 27.5934 4.92411 27.2685 5.37292C26.9437 5.82173 26.7812 6.4864 26.7812 7.36692Z" fill="black"/>
<path d="M34.5329 10.7587H33.3467V3.82131H34.5329V10.7587ZM33.2505 1.98118C33.2505 1.78884 33.3082 1.62641 33.4237 1.4939C33.5433 1.3614 33.7186 1.29514 33.9494 1.29514C34.1802 1.29514 34.3555 1.3614 34.4752 1.4939C34.5948 1.62641 34.6547 1.78884 34.6547 1.98118C34.6547 2.17353 34.5948 2.33382 34.4752 2.46205C34.3555 2.59029 34.1802 2.6544 33.9494 2.6544C33.7186 2.6544 33.5433 2.59029 33.4237 2.46205C33.3082 2.33382 33.2505 2.17353 33.2505 1.98118Z" fill="black"/>
<path d="M36.1229 7.22587C36.1229 6.54624 36.2533 5.93714 36.514 5.39856C36.7791 4.85572 37.1509 4.43682 37.6297 4.14189C38.1127 3.84268 38.6598 3.69308 39.271 3.69308C40.1558 3.69308 40.8889 3.98801 41.4702 4.57788C41.7737 4.54368 41.9938 4.41973 42.1306 4.20601C42.2674 3.99229 42.3358 3.61187 42.3358 3.06474H43.2975C43.2975 4.30859 42.8551 5.03951 41.9703 5.25751C42.2823 5.84738 42.4384 6.5035 42.4384 7.22587V7.36692C42.4384 8.04228 42.3059 8.65138 42.0408 9.19423C41.7758 9.73708 41.404 10.156 40.9252 10.4509C40.4465 10.7416 39.8994 10.8869 39.2839 10.8869C38.3349 10.8869 37.5698 10.5599 36.9885 9.90592C36.4115 9.24766 36.1229 8.38209 36.1229 7.30922V7.22587ZM37.3091 7.36692C37.3091 8.13632 37.4865 8.75397 37.8412 9.21988C38.2003 9.68578 38.6812 9.91874 39.2839 9.91874C39.878 9.91874 40.3525 9.68578 40.7072 9.21988C41.0663 8.74969 41.2458 8.11922 41.2458 7.32845V7.22587C41.2458 6.4522 41.0641 5.83242 40.7008 5.36651C40.3418 4.9006 39.8652 4.66764 39.271 4.66764C38.6812 4.66764 38.2067 4.9006 37.8477 5.36651C37.4886 5.83242 37.3091 6.49922 37.3091 7.36692ZM39.8545 0.910447H41.2907L39.5724 2.79546H38.617L39.8545 0.910447Z" fill="black"/>
<path d="M45.2274 10.7587H44.0413V3.82131H45.2274V10.7587ZM43.9451 1.98118C43.9451 1.78884 44.0028 1.62641 44.1182 1.4939C44.2379 1.3614 44.4131 1.29514 44.6439 1.29514C44.8748 1.29514 45.05 1.3614 45.1697 1.4939C45.2894 1.62641 45.3492 1.78884 45.3492 1.98118C45.3492 2.17353 45.2894 2.33382 45.1697 2.46205C45.05 2.59029 44.8748 2.6544 44.6439 2.6544C44.4131 2.6544 44.2379 2.59029 44.1182 2.46205C44.0028 2.33382 43.9451 2.17353 43.9451 1.98118Z" fill="black"/>
<path d="M57.1594 2.85316H55.954V10.7587H54.864L54.8063 10.0149C54.3319 10.5962 53.6715 10.8869 52.8251 10.8869C52.0216 10.8869 51.3654 10.5578 50.8568 9.89951C50.3524 9.24125 50.1002 8.38209 50.1002 7.32204V7.23228C50.1002 6.16796 50.3524 5.31308 50.8568 4.66764C51.3612 4.01793 52.0216 3.69308 52.838 3.69308C53.6501 3.69308 54.2934 3.97092 54.7679 4.52659V2.85316H53.0752V1.88501H54.7679V0.910447H55.954V1.88501H57.1594V2.85316ZM51.2864 7.36692C51.2864 8.15341 51.4488 8.76893 51.7736 9.21346C52.0985 9.658 52.5473 9.88027 53.1201 9.88027C53.8724 9.88027 54.4216 9.54259 54.7679 8.86724V5.68067C54.4131 5.02669 53.8681 4.6997 53.1329 4.6997C52.5516 4.6997 52.0985 4.92411 51.7736 5.37292C51.4488 5.82173 51.2864 6.4864 51.2864 7.36692Z" fill="black"/>
<path d="M57.9224 7.22587C57.9224 6.54624 58.0549 5.935 58.3199 5.39215C58.5892 4.8493 58.961 4.43041 59.4355 4.13548C59.9142 3.84055 60.4592 3.69308 61.0705 3.69308C62.0151 3.69308 62.7781 4.02007 63.3594 4.67405C63.945 5.32804 64.2378 6.19788 64.2378 7.28357V7.36692C64.2378 8.04228 64.1074 8.64924 63.8467 9.18782C63.5902 9.72212 63.2205 10.1389 62.7375 10.4381C62.2587 10.7373 61.7073 10.8869 61.0833 10.8869C60.1429 10.8869 59.3799 10.5599 58.7943 9.90592C58.213 9.25193 57.9224 8.38637 57.9224 7.30922V7.22587ZM59.1149 7.36692C59.1149 8.13632 59.2923 8.75397 59.6471 9.21988C60.0061 9.68578 60.4849 9.91874 61.0833 9.91874C61.686 9.91874 62.1647 9.68365 62.5195 9.21346C62.8743 8.73901 63.0516 8.07647 63.0516 7.22587C63.0516 6.46503 62.87 5.84951 62.5067 5.37933C62.1476 4.90487 61.6689 4.66764 61.0705 4.66764C60.4849 4.66764 60.0125 4.9006 59.6535 5.36651C59.2944 5.83242 59.1149 6.49922 59.1149 7.36692ZM63.3658 2.8211H62.1027L61.0128 1.80807L59.9228 2.8211H58.6661L60.5255 1.14126H61.5L63.3658 2.8211ZM59.1342 1.68625H58.2365L56.9542 0.032058H58.2301L59.1342 1.68625Z" fill="black"/>
<path d="M71.765 9.91874C72.1882 9.91874 72.5579 9.79051 72.8742 9.53404C73.1905 9.27758 73.3658 8.957 73.4 8.5723H74.522C74.5006 8.96982 74.3638 9.34811 74.1116 9.70716C73.8595 10.0662 73.5218 10.3526 73.0986 10.5663C72.6797 10.78 72.2352 10.8869 71.765 10.8869C70.8204 10.8869 70.0681 10.5727 69.5081 9.94439C68.9524 9.31178 68.6746 8.44835 68.6746 7.3541V7.15534C68.6746 6.47999 68.7986 5.87943 69.0465 5.35368C69.2944 4.82793 69.6492 4.41973 70.1108 4.12907C70.5767 3.83841 71.126 3.69308 71.7586 3.69308C72.5365 3.69308 73.182 3.92603 73.6949 4.39194C74.2121 4.85785 74.4878 5.46268 74.522 6.20643H73.4C73.3658 5.75761 73.1948 5.39002 72.887 5.10363C72.5836 4.81297 72.2074 4.66764 71.7586 4.66764C71.1559 4.66764 70.6879 4.88564 70.3544 5.32163C70.0253 5.75334 69.8608 6.37954 69.8608 7.20022V7.42463C69.8608 8.22394 70.0253 8.83945 70.3544 9.27117C70.6836 9.70288 71.1538 9.91874 71.765 9.91874Z" fill="black"/>
<path d="M77.0417 4.66123C77.5675 4.0158 78.2514 3.69308 79.0935 3.69308C80.5596 3.69308 81.299 4.52018 81.3119 6.17437V10.7587H80.1257V6.16796C80.1214 5.66785 80.006 5.29812 79.7795 5.05875C79.5572 4.81938 79.2089 4.6997 78.7344 4.6997C78.3497 4.6997 78.012 4.80229 77.7214 5.00746C77.4307 5.21263 77.2042 5.48192 77.0417 5.81532V10.7587H75.8556V0.910447H77.0417V4.66123Z" fill="black"/>
<path d="M82.7737 7.22587C82.7737 6.54624 82.9041 5.93714 83.1648 5.39856C83.4298 4.85572 83.8017 4.43682 84.2804 4.14189C84.7634 3.84268 85.3106 3.69308 85.9218 3.69308C86.8066 3.69308 87.5397 3.98801 88.121 4.57788C88.4245 4.54368 88.6446 4.41973 88.7814 4.20601C88.9182 3.99229 88.9865 3.61187 88.9865 3.06474H89.9483C89.9483 4.30859 89.5059 5.03951 88.6211 5.25751C88.9331 5.84738 89.0891 6.5035 89.0891 7.22587V7.36692C89.0891 8.04228 88.9566 8.65138 88.6916 9.19423C88.4266 9.73708 88.0547 10.156 87.576 10.4509C87.0973 10.7416 86.5501 10.8869 85.9346 10.8869C84.9857 10.8869 84.2206 10.5599 83.6393 9.90592C83.0622 9.24766 82.7737 8.38209 82.7737 7.30922V7.22587ZM83.9599 7.36692C83.9599 8.13632 84.1372 8.75397 84.492 9.21988C84.8511 9.68578 85.3319 9.91874 85.9346 9.91874C86.5288 9.91874 87.0032 9.68578 87.358 9.21988C87.7171 8.74969 87.8966 8.11922 87.8966 7.32845V7.22587C87.8966 6.4522 87.7149 5.83242 87.3516 5.36651C86.9925 4.9006 86.516 4.66764 85.9218 4.66764C85.3319 4.66764 84.8575 4.9006 84.4984 5.36651C84.1394 5.83242 83.9599 6.49922 83.9599 7.36692Z" fill="black"/>
<path d="M91.8782 10.7587H90.692V3.82131H91.8782V10.7587ZM90.5959 1.98118C90.5959 1.78884 90.6536 1.62641 90.769 1.4939C90.8887 1.3614 91.0639 1.29514 91.2947 1.29514C91.5255 1.29514 91.7008 1.3614 91.8205 1.4939C91.9402 1.62641 92 1.78884 92 1.98118C92 2.17353 91.9402 2.33382 91.8205 2.46205C91.7008 2.59029 91.5255 2.6544 91.2947 2.6544C91.0639 2.6544 90.8887 2.59029 90.769 2.46205C90.6536 2.33382 90.5959 2.17353 90.5959 1.98118Z" fill="black"/>
</svg>
