<svg width="97" height="14" viewBox="0 0 97 14" fill="none" xmlns="http://www.w3.org/2000/svg">
<path d="M7.14099 10.9572H5.90934V6.66237H1.22526V10.9572H0V1.66559H1.22526V5.66046H5.90934V1.66559H7.14099V10.9572Z" fill="black"/>
<path d="M10.4147 10.9572H9.23414V4.0523H10.4147V10.9572ZM9.13842 2.22079C9.13842 2.02934 9.19586 1.86768 9.31072 1.73579C9.42985 1.6039 9.60428 1.53796 9.83401 1.53796C10.0638 1.53796 10.2382 1.6039 10.3573 1.73579C10.4764 1.86768 10.536 2.02934 10.536 2.22079C10.536 2.41224 10.4764 2.57178 10.3573 2.69941C10.2382 2.82704 10.0638 2.89086 9.83401 2.89086C9.60428 2.89086 9.42985 2.82704 9.31072 2.69941C9.19586 2.57178 9.13842 2.41224 9.13842 2.22079Z" fill="black"/>
<path d="M15.1754 11.0848C14.2394 11.0848 13.4779 10.7785 12.8908 10.1659C12.3037 9.54897 12.0101 8.72575 12.0101 7.69618V7.47921C12.0101 6.79425 12.1399 6.18375 12.3994 5.6477C12.6632 5.10739 13.0291 4.68621 13.497 4.38414C13.9693 4.07783 14.4798 3.92467 15.0286 3.92467C15.9263 3.92467 16.624 4.22035 17.1218 4.81171C17.6195 5.40307 17.8684 6.24969 17.8684 7.35158V7.84296H13.1907C13.2077 8.52366 13.4056 9.07461 13.7842 9.49579C14.1671 9.91272 14.6521 10.1212 15.2392 10.1212C15.6561 10.1212 16.0093 10.0361 16.2986 9.86592C16.5879 9.69575 16.841 9.47026 17.058 9.18947L17.7791 9.75105C17.2005 10.6402 16.3326 11.0848 15.1754 11.0848ZM15.0286 4.89467C14.5521 4.89467 14.1522 5.0691 13.8289 5.41796C13.5055 5.76257 13.3056 6.24757 13.229 6.87296H16.6878V6.78362C16.6538 6.18375 16.4921 5.72002 16.2028 5.39243C15.9135 5.06059 15.5221 4.89467 15.0286 4.89467ZM17.3579 3.13336H16.273L15.0159 1.94638L13.7587 3.13336H12.6802L14.416 1.46138H15.6157L17.3579 3.13336ZM16.8282 2.2527L16.8218 1.41671C17.0984 1.39969 17.2983 1.36353 17.4217 1.30822C17.5493 1.25292 17.6132 1.15507 17.6132 1.01467C17.6132 0.729627 17.3132 0.587105 16.7134 0.587105L16.7453 0C17.2898 0 17.7046 0.0935965 17.9897 0.280789C18.2747 0.467982 18.4172 0.716864 18.4172 1.02743C18.4172 1.27844 18.3385 1.47414 18.1811 1.61454C18.0237 1.75493 17.8174 1.84002 17.5621 1.8698L17.5557 2.2527H16.8282Z" fill="black"/>
<path d="M23.5034 10.2743C23.0439 10.8146 22.3696 11.0848 21.4804 11.0848C20.7444 11.0848 20.1828 10.8721 19.7957 10.4466C19.4128 10.017 19.2192 9.38305 19.2149 8.54493V4.0523H20.3955V8.51303C20.3955 9.55961 20.821 10.0829 21.6718 10.0829C22.5738 10.0829 23.1736 9.7468 23.4714 9.07461V4.0523H24.652V10.9572H23.5289L23.5034 10.2743Z" fill="black"/>
<path d="M30.9762 10.9572H29.7956V1.15507H30.9762V10.9572Z" fill="black"/>
<path d="M32.5588 7.44092C32.5588 6.76447 32.6907 6.1561 32.9545 5.61579C33.2225 5.07548 33.5926 4.65855 34.0649 4.365C34.5414 4.07145 35.0838 3.92467 35.6922 3.92467C36.6324 3.92467 37.3918 4.25013 37.9704 4.90105C38.5532 5.55197 38.8447 6.41774 38.8447 7.49836V7.58132C38.8447 8.25351 38.7149 8.85763 38.4554 9.39368C38.2001 9.92548 37.8321 10.3403 37.3514 10.6381C36.8749 10.9359 36.3261 11.0848 35.7049 11.0848C34.769 11.0848 34.0096 10.7593 33.4267 10.1084C32.8481 9.4575 32.5588 8.59599 32.5588 7.52388V7.44092ZM33.7458 7.58132C33.7458 8.34711 33.9223 8.96186 34.2755 9.42559C34.6328 9.88932 35.1093 10.1212 35.7049 10.1212C36.3048 10.1212 36.7813 9.88719 37.1344 9.41921C37.4875 8.94697 37.6641 8.28754 37.6641 7.44092C37.6641 6.68364 37.4833 6.07101 37.1216 5.60303C36.7643 5.13079 36.2878 4.89467 35.6922 4.89467C35.1093 4.89467 34.6392 5.12653 34.2818 5.59026C33.9245 6.05399 33.7458 6.71768 33.7458 7.58132ZM36.3239 3.03125H35.3093L33.6628 1.15507H35.0859L36.3239 3.03125Z" fill="black"/>
<path d="M41.442 4.0523L41.4803 4.9202C42.0078 4.25651 42.697 3.92467 43.5479 3.92467C45.0071 3.92467 45.7432 4.74789 45.7559 6.39434V10.9572H44.5753V6.38796C44.5711 5.8902 44.4562 5.52219 44.2307 5.28395C44.0095 5.0457 43.6628 4.92658 43.1905 4.92658C42.8076 4.92658 42.4715 5.02868 42.1822 5.23289C41.8929 5.43711 41.6675 5.70513 41.5058 6.03697V10.9572H40.3252V4.0523H41.442Z" fill="black"/>
<path d="M47.2556 7.4473C47.2556 6.37094 47.5045 5.51581 48.0022 4.88191C48.5 4.24375 49.1594 3.92467 49.9805 3.92467C50.8229 3.92467 51.4802 4.22248 51.9524 4.81809L52.0099 4.0523H53.0884V10.7912C53.0884 11.6847 52.8225 12.3888 52.2907 12.9036C51.7631 13.4183 51.0526 13.6757 50.1592 13.6757C49.6614 13.6757 49.1743 13.5694 48.6978 13.3566C48.2213 13.1439 47.8576 12.8525 47.6066 12.4824L48.2192 11.774C48.7255 12.3994 49.3445 12.7121 50.0763 12.7121C50.6506 12.7121 51.0973 12.5504 51.4164 12.2271C51.7397 11.9038 51.9014 11.4486 51.9014 10.8614V10.268C51.4291 10.8125 50.7846 11.0848 49.9678 11.0848C49.1594 11.0848 48.5043 10.7593 48.0022 10.1084C47.5045 9.4575 47.2556 8.57046 47.2556 7.4473ZM48.4426 7.58132C48.4426 8.35987 48.6021 8.9725 48.9212 9.41921C49.2403 9.86167 49.687 10.0829 50.2613 10.0829C51.0058 10.0829 51.5525 9.74467 51.9014 9.06822V5.91572C51.5398 5.25629 50.9973 4.92658 50.2741 4.92658C49.6997 4.92658 49.2509 5.14993 48.9276 5.59664C48.6042 6.04336 48.4426 6.70491 48.4426 7.58132Z" fill="black"/>
<path d="M60.8866 10.1212C61.3078 10.1212 61.6758 9.99355 61.9907 9.73829C62.3055 9.48303 62.4799 9.16395 62.5139 8.78105H63.6307C63.6095 9.17671 63.4733 9.55322 63.2223 9.91059C62.9713 10.268 62.6352 10.553 62.214 10.7657C61.7971 10.9784 61.3546 11.0848 60.8866 11.0848C59.9464 11.0848 59.1977 10.7721 58.6403 10.1467C58.0873 9.51706 57.8107 8.65768 57.8107 7.56855V7.37072C57.8107 6.69853 57.9341 6.10079 58.1809 5.5775C58.4276 5.05421 58.7807 4.64792 59.2402 4.35862C59.7039 4.06932 60.2506 3.92467 60.8803 3.92467C61.6546 3.92467 62.297 4.15653 62.8075 4.62026C63.3223 5.08399 63.5967 5.68599 63.6307 6.42625H62.5139C62.4799 5.97954 62.3097 5.61366 62.0034 5.32862C61.7014 5.03932 61.327 4.89467 60.8803 4.89467C60.2804 4.89467 59.8145 5.11164 59.4827 5.54559C59.1551 5.97528 58.9913 6.59855 58.9913 7.41539V7.63875C58.9913 8.43432 59.1551 9.04695 59.4827 9.47664C59.8103 9.90634 60.2783 10.1212 60.8866 10.1212Z" fill="black"/>
<path d="M64.6454 7.44092C64.6454 6.76447 64.7773 6.1561 65.0411 5.61579C65.3091 5.07548 65.6792 4.65855 66.1514 4.365C66.6279 4.07145 67.1704 3.92467 67.7788 3.92467C68.719 3.92467 69.4784 4.25013 70.057 4.90105C70.6398 5.55197 70.9313 6.41774 70.9313 7.49836V7.58132C70.9313 8.25351 70.8015 8.85763 70.542 9.39368C70.2867 9.92548 69.9187 10.3403 69.438 10.6381C68.9615 10.9359 68.4127 11.0848 67.7915 11.0848C66.8555 11.0848 66.0961 10.7593 65.5133 10.1084C64.9347 9.4575 64.6454 8.59599 64.6454 7.52388V7.44092ZM65.8324 7.58132C65.8324 8.34711 66.0089 8.96186 66.362 9.42559C66.7194 9.88932 67.1959 10.1212 67.7915 10.1212C68.3914 10.1212 68.8679 9.88719 69.221 9.41921C69.5741 8.94697 69.7507 8.28754 69.7507 7.44092C69.7507 6.68364 69.5698 6.07101 69.2082 5.60303C68.8509 5.13079 68.3744 4.89467 67.7788 4.89467C67.1959 4.89467 66.7258 5.12653 66.3684 5.59026C66.0111 6.05399 65.8324 6.71768 65.8324 7.58132Z" fill="black"/>
<path d="M73.5286 4.0523L73.5668 4.9202C74.0944 4.25651 74.7836 3.92467 75.6345 3.92467C77.0937 3.92467 77.8297 4.74789 77.8425 6.39434V10.9572H76.6619V6.38796C76.6577 5.8902 76.5428 5.52219 76.3173 5.28395C76.0961 5.0457 75.7493 4.92658 75.2771 4.92658C74.8942 4.92658 74.5581 5.02868 74.2688 5.23289C73.9795 5.43711 73.754 5.70513 73.5924 6.03697V10.9572H72.4118V4.0523H73.5286Z" fill="black"/>
<path d="M84.4666 2.38033V4.0523H85.7557V4.96487H84.4666V9.24691C84.4666 9.52344 84.524 9.73191 84.6389 9.8723C84.7537 10.0084 84.9495 10.0765 85.226 10.0765C85.3621 10.0765 85.5493 10.051 85.7876 9.99993V10.9572C85.477 11.0423 85.1749 11.0848 84.8814 11.0848C84.3538 11.0848 83.9561 10.9253 83.688 10.6062C83.42 10.2871 83.286 9.83401 83.286 9.24691V4.96487H82.0288V4.0523H83.286V2.38033H84.4666Z" fill="black"/>
<path d="M90.478 5.11164C90.2993 5.08186 90.1058 5.06697 89.8973 5.06697C89.123 5.06697 88.5976 5.39669 88.3211 6.05612V10.9572H87.1405V4.0523H88.2891L88.3083 4.85C88.6954 4.23311 89.2443 3.92467 89.9547 3.92467C90.1845 3.92467 90.3589 3.95445 90.478 4.01401V5.11164Z" fill="black"/>
<path d="M94.307 11.0848C93.371 11.0848 92.6095 10.7785 92.0224 10.1659C91.4353 9.54897 91.1417 8.72575 91.1417 7.69618V7.47921C91.1417 6.79425 91.2715 6.18375 91.531 5.6477C91.7948 5.10739 92.1606 4.68621 92.6286 4.38414C93.1009 4.07783 93.6114 3.92467 94.1602 3.92467C95.0579 3.92467 95.7556 4.22035 96.2534 4.81171C96.7511 5.40307 97 6.24969 97 7.35158V7.84296H92.3223C92.3393 8.52366 92.5372 9.07461 92.9158 9.49579C93.2987 9.91272 93.7837 10.1212 94.3708 10.1212C94.7877 10.1212 95.1408 10.0361 95.4301 9.86592C95.7194 9.69575 95.9726 9.47026 96.1895 9.18947L96.9107 9.75105C96.3321 10.6402 95.4642 11.0848 94.307 11.0848ZM94.1602 4.89467C93.6837 4.89467 93.2838 5.0691 92.9605 5.41796C92.6371 5.76257 92.4372 6.24757 92.3606 6.87296H95.8194V6.78362C95.7854 6.18375 95.6237 5.72002 95.3344 5.39243C95.0451 5.06059 94.6537 4.89467 94.1602 4.89467ZM93.7582 2.93553L93.7518 1.95914C94.0709 1.93787 94.3048 1.89533 94.4537 1.83151C94.6027 1.7677 94.6771 1.65283 94.6771 1.48691C94.6771 1.32099 94.5793 1.19761 94.3836 1.11678C94.1921 1.03169 93.9368 0.989145 93.6178 0.989145L93.6624 0.312697C94.2963 0.312697 94.7771 0.423311 95.1047 0.644539C95.4323 0.861513 95.5961 1.15081 95.5961 1.51243C95.5961 1.77195 95.5131 1.9868 95.3472 2.15697C95.1813 2.32715 94.9345 2.43564 94.6069 2.48243L94.6005 2.93553H93.7582Z" fill="black"/>
</svg>
