<svg width="126" height="14" viewBox="0 0 126 14" fill="none" xmlns="http://www.w3.org/2000/svg">
<path d="M1.22777 10.6982V6.4394H0V5.47381H1.22777V1.38764H3.85597C4.66596 1.38764 5.38216 1.56669 6.00457 1.92479C6.62698 2.28289 7.10658 2.79233 7.44336 3.45311C7.78441 4.11389 7.95706 4.87272 7.96133 5.7296V6.3243C7.96133 7.2025 7.7908 7.97199 7.44976 8.63276C7.11297 9.29354 6.62911 9.80085 5.99817 10.1547C5.3715 10.5085 4.64038 10.6897 3.80481 10.6982H1.22777ZM4.06699 6.4394H2.45554V9.69428H3.74086C4.68727 9.69428 5.42266 9.40225 5.94702 8.81821C6.47564 8.23417 6.74208 7.41139 6.74635 6.34988V5.75518C6.74635 4.69793 6.49695 3.87728 5.99817 3.29324C5.50365 2.70493 4.80024 2.40652 3.88794 2.39799H2.45554V5.47381H4.06699V6.4394Z" fill="black"/>
<path d="M9.32339 7.17479C9.32339 6.49695 9.45554 5.88733 9.71985 5.34592C9.98843 4.80451 10.3593 4.38672 10.8325 4.09257C11.31 3.79842 11.8535 3.65134 12.4632 3.65134C13.4053 3.65134 14.1663 3.97747 14.746 4.62972C15.3301 5.28197 15.6221 6.14951 15.6221 7.23234V7.31547C15.6221 7.98904 15.4921 8.5944 15.232 9.13155C14.9762 9.66443 14.6075 10.0801 14.1258 10.3785C13.6483 10.6769 13.0984 10.8261 12.4759 10.8261C11.5381 10.8261 10.7771 10.5 10.1931 9.84775C9.61328 9.19549 9.32339 8.33222 9.32339 7.25792V7.17479ZM10.5128 7.31547C10.5128 8.08283 10.6897 8.69884 11.0435 9.16352C11.4016 9.6282 11.8791 9.86054 12.4759 9.86054C13.077 9.86054 13.5545 9.62607 13.9083 9.15713C14.2622 8.68392 14.4391 8.02314 14.4391 7.17479C14.4391 6.41596 14.2579 5.80207 13.8956 5.33313C13.5375 4.85993 13.06 4.62333 12.4632 4.62333C11.8791 4.62333 11.408 4.85566 11.0499 5.32034C10.6918 5.78502 10.5128 6.45006 10.5128 7.31547ZM14.7524 2.78167H13.4927L12.4056 1.77132L11.3185 2.78167H10.0652L11.9196 1.10627H12.8916L14.7524 2.78167ZM10.532 1.64982H9.63672L8.3578 0H9.63033L10.532 1.64982Z" fill="black"/>
<path d="M23.1294 9.86054C23.5515 9.86054 23.9202 9.73264 24.2357 9.47686C24.5512 9.22107 24.7259 8.90134 24.76 8.51766H25.8791C25.8578 8.91413 25.7214 9.29141 25.4699 9.64951C25.2183 10.0076 24.8815 10.2932 24.4595 10.5064C24.0417 10.7195 23.5984 10.8261 23.1294 10.8261C22.1873 10.8261 21.437 10.5128 20.8785 9.88611C20.3243 9.25518 20.0472 8.39403 20.0472 7.30268V7.10445C20.0472 6.43088 20.1708 5.83191 20.4181 5.30755C20.6653 4.78319 21.0192 4.37607 21.4796 4.08618C21.9443 3.79628 22.4921 3.65134 23.123 3.65134C23.8989 3.65134 24.5426 3.88368 25.0542 4.34836C25.57 4.81303 25.845 5.41626 25.8791 6.15804H24.76C24.7259 5.71041 24.5554 5.34379 24.2485 5.05816C23.9458 4.76827 23.5706 4.62333 23.123 4.62333C22.5219 4.62333 22.0551 4.84074 21.7226 5.27558C21.3943 5.70615 21.2302 6.33069 21.2302 7.14921V7.37302C21.2302 8.17022 21.3943 8.7841 21.7226 9.21468C22.0509 9.64525 22.5198 9.86054 23.1294 9.86054Z" fill="black"/>
<path d="M28.3922 4.61693C28.9166 3.9732 29.5987 3.65134 30.4385 3.65134C31.9007 3.65134 32.6382 4.47625 32.651 6.12607V10.6982H31.468V6.11967C31.4638 5.62089 31.3487 5.25213 31.1227 5.0134C30.901 4.77467 30.5536 4.6553 30.0804 4.6553C29.6967 4.6553 29.3599 4.75761 29.07 4.96224C28.7801 5.16687 28.5542 5.43544 28.3922 5.76797V10.6982H27.2092V0.876066H28.3922V4.61693Z" fill="black"/>
<path d="M34.109 7.17479C34.109 6.49695 34.239 5.88946 34.4991 5.35231C34.7634 4.8109 35.1343 4.39312 35.6118 4.09896C36.0935 3.80055 36.6392 3.65134 37.2488 3.65134C38.1312 3.65134 38.8624 3.94549 39.4421 4.5338C39.7448 4.4997 39.9644 4.37607 40.1008 4.16291C40.2372 3.94976 40.3054 3.57034 40.3054 3.02467H41.2646C41.2646 4.26523 40.8234 4.99421 39.9409 5.21163C40.2521 5.79994 40.4077 6.45432 40.4077 7.17479V7.31547C40.4077 7.98904 40.2756 8.59653 40.0113 9.13794C39.747 9.67935 39.3761 10.0971 38.8986 10.3913C38.4211 10.6812 37.8755 10.8261 37.2616 10.8261C36.3152 10.8261 35.5521 10.5 34.9723 9.84775C34.3968 9.19123 34.109 8.32795 34.109 7.25792V7.17479ZM35.292 7.31547C35.292 8.08283 35.4689 8.69884 35.8228 9.16352C36.1809 9.6282 36.6605 9.86054 37.2616 9.86054C37.8541 9.86054 38.3273 9.6282 38.6812 9.16352C39.0393 8.69458 39.2183 8.06577 39.2183 7.2771V7.17479C39.2183 6.40317 39.0371 5.78502 38.6748 5.32034C38.3167 4.85566 37.8414 4.62333 37.2488 4.62333C36.6605 4.62333 36.1873 4.85566 35.8292 5.32034C35.4711 5.78502 35.292 6.45006 35.292 7.31547Z" fill="black"/>
<path d="M43.1894 10.6982H42.0064V3.77923H43.1894V10.6982ZM41.9105 1.94397C41.9105 1.75213 41.968 1.59013 42.0831 1.45798C42.2025 1.32582 42.3773 1.25974 42.6075 1.25974C42.8377 1.25974 43.0125 1.32582 43.1319 1.45798C43.2512 1.59013 43.3109 1.75213 43.3109 1.94397C43.3109 2.13581 43.2512 2.29568 43.1319 2.42357C43.0125 2.55146 42.8377 2.61541 42.6075 2.61541C42.3773 2.61541 42.2025 2.55146 42.0831 2.42357C41.968 2.29568 41.9105 2.13581 41.9105 1.94397Z" fill="black"/>
<path d="M48.0493 7.18118C48.0493 6.11967 48.3009 5.26705 48.8039 4.62333C49.3069 3.97533 49.9656 3.65134 50.7798 3.65134C51.5898 3.65134 52.2314 3.92844 52.7046 4.48264V0.876066H53.8876V10.6982H52.8005L52.743 9.95646C52.2698 10.5362 51.6111 10.8261 50.7671 10.8261C49.9656 10.8261 49.3112 10.4979 48.8039 9.84135C48.3009 9.18484 48.0493 8.32795 48.0493 7.27071V7.18118ZM49.2323 7.31547C49.2323 8.09988 49.3943 8.71376 49.7183 9.15713C50.0423 9.60049 50.4899 9.82217 51.0612 9.82217C51.8115 9.82217 52.3593 9.48538 52.7046 8.81181V5.63368C52.3508 4.98143 51.8072 4.6553 51.074 4.6553C50.4942 4.6553 50.0423 4.87911 49.7183 5.32674C49.3943 5.77436 49.2323 6.43727 49.2323 7.31547Z" fill="black"/>
<path d="M60.0009 10.6982C59.9327 10.5618 59.8773 10.3188 59.8347 9.96924C59.2847 10.5405 58.6282 10.8261 57.8651 10.8261C57.183 10.8261 56.6224 10.6343 56.1833 10.2506C55.7485 9.86267 55.5311 9.37241 55.5311 8.77984C55.5311 8.05938 55.8039 7.50091 56.3496 7.10445C56.8995 6.70371 57.6711 6.50335 58.6644 6.50335H59.8155V5.95981C59.8155 5.54628 59.6918 5.21803 59.4446 4.97503C59.1973 4.72777 58.8328 4.60414 58.3511 4.60414C57.929 4.60414 57.5752 4.71072 57.2896 4.92387C57.004 5.13703 56.8611 5.39495 56.8611 5.69762H55.6717C55.6717 5.35231 55.7932 5.01979 56.0362 4.70006C56.2835 4.37607 56.616 4.12028 57.0338 3.9327C57.4558 3.74513 57.9184 3.65134 58.4214 3.65134C59.2186 3.65134 59.8432 3.85171 60.2951 4.25244C60.747 4.6489 60.9814 5.19671 60.9985 5.89586V9.08039C60.9985 9.71559 61.0795 10.2208 61.2415 10.5959V10.6982H60.0009ZM58.0378 9.79659C58.4086 9.79659 58.7604 9.70067 59.0929 9.50883C59.4254 9.31699 59.6663 9.0676 59.8155 8.76066V7.34105H58.8882C57.4388 7.34105 56.7141 7.76523 56.7141 8.61358C56.7141 8.98447 56.8377 9.27436 57.085 9.48325C57.3322 9.69214 57.6498 9.79659 58.0378 9.79659ZM57.3024 12.2649C57.3024 12.0731 57.3599 11.9111 57.475 11.7789C57.5944 11.6468 57.7692 11.5807 57.9994 11.5807C58.2296 11.5807 58.4044 11.6468 58.5238 11.7789C58.6431 11.9111 58.7028 12.0731 58.7028 12.2649C58.7028 12.4568 58.6431 12.6166 58.5238 12.7445C58.4044 12.8724 58.2296 12.9364 57.9994 12.9364C57.7692 12.9364 57.5944 12.8724 57.475 12.7445C57.3599 12.6166 57.3024 12.4568 57.3024 12.2649Z" fill="black"/>
<path d="M63.972 3.77923L64.0104 4.6489C64.539 3.98386 65.2296 3.65134 66.0822 3.65134C67.5445 3.65134 68.282 4.47625 68.2948 6.12607V10.6982H67.1118V6.11967C67.1075 5.62089 66.9924 5.25213 66.7664 5.0134C66.5448 4.77467 66.1973 4.6553 65.7241 4.6553C65.3404 4.6553 65.0037 4.75761 64.7138 4.96224C64.4239 5.16687 64.1979 5.43544 64.0359 5.76797V10.6982H62.8529V3.77923H63.972Z" fill="black"/>
<path d="M69.7975 7.18118C69.7975 6.10262 70.0469 5.24574 70.5457 4.61054C71.0445 3.97107 71.7052 3.65134 72.528 3.65134C73.3721 3.65134 74.0308 3.94976 74.504 4.54659L74.5615 3.77923H75.6422V10.532C75.6422 11.4272 75.3758 12.1328 74.8429 12.6486C74.3142 13.1644 73.6023 13.4224 72.7071 13.4224C72.2083 13.4224 71.7202 13.3158 71.2427 13.1026C70.7652 12.8895 70.4007 12.5974 70.1492 12.2266L70.7631 11.5167C71.2704 12.1434 71.8907 12.4568 72.6239 12.4568C73.1995 12.4568 73.6471 12.2948 73.9668 11.9708C74.2908 11.6468 74.4528 11.1906 74.4528 10.6023V10.0076C73.9796 10.5533 73.3337 10.8261 72.5152 10.8261C71.7052 10.8261 71.0487 10.5 70.5457 9.84775C70.0469 9.19549 69.7975 8.30664 69.7975 7.18118ZM70.9869 7.31547C70.9869 8.09562 71.1468 8.7095 71.4665 9.15713C71.7862 9.60049 72.2339 9.82217 72.8094 9.82217C73.5554 9.82217 74.1032 9.48325 74.4528 8.80542V5.64647C74.0904 4.98569 73.5469 4.6553 72.8222 4.6553C72.2467 4.6553 71.7969 4.87911 71.4729 5.32674C71.1489 5.77436 70.9869 6.43727 70.9869 7.31547Z" fill="black"/>
<path d="M81.7938 3.77923L81.8258 4.54659C82.3331 3.94976 83.0174 3.65134 83.8785 3.65134C84.8462 3.65134 85.5049 4.02223 85.8544 4.76401C86.0847 4.43149 86.3831 4.16291 86.7497 3.95828C87.1206 3.75365 87.5575 3.65134 88.0606 3.65134C89.5783 3.65134 90.3499 4.45493 90.3755 6.06212V10.6982H89.1924V6.13246C89.1924 5.63794 89.0795 5.26918 88.8535 5.02619C88.6276 4.77893 88.2482 4.6553 87.7153 4.6553C87.2762 4.6553 86.9117 4.78745 86.6218 5.05177C86.3319 5.31182 86.1635 5.66352 86.1166 6.10688V10.6982H84.9272V6.16443C84.9272 5.15834 84.4348 4.6553 83.4501 4.6553C82.6742 4.6553 82.1434 4.98569 81.8578 5.64647V10.6982H80.6748V3.77923H81.7938Z" fill="black"/>
<path d="M91.8526 7.17479C91.8526 6.49695 91.9848 5.88733 92.2491 5.34592C92.5177 4.80451 92.8886 4.38672 93.3618 4.09257C93.8392 3.79842 94.3828 3.65134 94.9924 3.65134C95.9345 3.65134 96.6955 3.97747 97.2753 4.62972C97.8593 5.28197 98.1513 6.14951 98.1513 7.23234V7.31547C98.1513 7.98904 98.0213 8.5944 97.7613 9.13155C97.5055 9.66443 97.1367 10.0801 96.655 10.3785C96.1775 10.6769 95.6276 10.8261 95.0052 10.8261C94.0673 10.8261 93.3063 10.5 92.7223 9.84775C92.1425 9.19549 91.8526 8.33222 91.8526 7.25792V7.17479ZM93.042 7.31547C93.042 8.08283 93.2189 8.69884 93.5728 9.16352C93.9309 9.6282 94.4083 9.86054 95.0052 9.86054C95.6063 9.86054 96.0837 9.62607 96.4376 9.15713C96.7914 8.68392 96.9683 8.02314 96.9683 7.17479C96.9683 6.41596 96.7872 5.80207 96.4248 5.33313C96.0667 4.85993 95.5892 4.62333 94.9924 4.62333C94.4083 4.62333 93.9373 4.85566 93.5792 5.32034C93.2211 5.78502 93.042 6.45006 93.042 7.31547ZM96.8852 2.6282V2.69214H95.9068L94.9476 1.60505L93.9948 2.69214H93.0164V2.61541L94.5895 0.876066H95.3057L96.8852 2.6282Z" fill="black"/>
<path d="M104.066 4.61693C104.591 3.9732 105.273 3.65134 106.113 3.65134C107.575 3.65134 108.312 4.47625 108.325 6.12607V10.6982H107.142V6.11967C107.138 5.62089 107.023 5.25213 106.797 5.0134C106.575 4.77467 106.228 4.6553 105.755 4.6553C105.371 4.6553 105.034 4.75761 104.744 4.96224C104.454 5.16687 104.228 5.43544 104.066 5.76797V10.6982H102.883V0.876066H104.066V4.61693Z" fill="black"/>
<path d="M111.382 10.6982H110.192V3.77923H111.382V10.6982ZM111.497 2.76248H110.48L108.83 0.88246H110.256L111.497 2.76248Z" fill="black"/>
<path d="M114.451 3.77923L114.49 4.6489C115.018 3.98386 115.709 3.65134 116.562 3.65134C118.024 3.65134 118.761 4.47625 118.774 6.12607V10.6982H117.591V6.11967C117.587 5.62089 117.472 5.25213 117.246 5.0134C117.024 4.77467 116.677 4.6553 116.203 4.6553C115.82 4.6553 115.483 4.75761 115.193 4.96224C114.903 5.16687 114.677 5.43544 114.515 5.76797V10.6982H113.332V3.77923H114.451Z" fill="black"/>
<path d="M121.741 4.61693C122.266 3.9732 122.948 3.65134 123.787 3.65134C125.25 3.65134 125.987 4.47625 126 6.12607V10.6982H124.817V6.11967C124.813 5.62089 124.698 5.25213 124.472 5.0134C124.25 4.77467 123.903 4.6553 123.429 4.6553C123.046 4.6553 122.709 4.75761 122.419 4.96224C122.129 5.16687 121.903 5.43544 121.741 5.76797V10.6982H120.558V0.876066H121.741V4.61693Z" fill="black"/>
</svg>
