<svg width="179" height="13" viewBox="0 0 179 13" fill="none" xmlns="http://www.w3.org/2000/svg">
<path d="M0 9.78762V0.509772H2.61895C3.42609 0.509772 4.13977 0.688192 4.75999 1.04503C5.38022 1.40187 5.85813 1.90952 6.19373 2.56798C6.53358 3.22643 6.70562 3.98259 6.70987 4.83646V5.42907C6.70987 6.30418 6.53995 7.07096 6.2001 7.72942C5.8645 8.38787 5.38234 8.89339 4.75362 9.24599C4.12915 9.59858 3.4006 9.77912 2.56798 9.78762H0ZM1.22345 1.51657V8.78719H2.51063C3.4537 8.78719 4.1865 8.49407 4.70902 7.90784C5.23578 7.3216 5.49916 6.48685 5.49916 5.40358V4.86195C5.49916 3.80842 5.25065 2.99066 4.75362 2.40867C4.26084 1.82243 3.55991 1.52507 2.65081 1.51657H1.22345Z" fill="black"/>
<path d="M8.06714 6.27657C8.06714 5.60112 8.19883 4.99364 8.46221 4.45413C8.72984 3.91462 9.09943 3.49831 9.57097 3.20519C10.0468 2.91207 10.5884 2.76551 11.1959 2.76551C12.1347 2.76551 12.893 3.09049 13.4707 3.74045C14.0527 4.39041 14.3437 5.2549 14.3437 6.33391V6.41675C14.3437 7.08795 14.2141 7.69118 13.955 8.22644C13.7001 8.75746 13.3327 9.17164 12.8526 9.46901C12.3768 9.76638 11.8288 9.91506 11.2086 9.91506C10.274 9.91506 9.51574 9.59008 8.93375 8.94012C8.35601 8.29016 8.06714 7.42992 8.06714 6.3594V6.27657ZM9.25236 6.41675C9.25236 7.18141 9.42865 7.79526 9.78125 8.2583C10.1381 8.72135 10.6139 8.95287 11.2086 8.95287C11.8076 8.95287 12.2834 8.71922 12.636 8.25193C12.9886 7.78039 13.1649 7.12194 13.1649 6.27657C13.1649 5.5204 12.9843 4.90868 12.6232 4.44139C12.2664 3.96985 11.7906 3.73408 11.1959 3.73408C10.6139 3.73408 10.1445 3.9656 9.78762 4.42864C9.43078 4.89169 9.25236 5.55439 9.25236 6.41675Z" fill="black"/>
<path d="M16.9372 2.89296L16.9754 3.75957C17.5022 3.09686 18.1904 2.76551 19.04 2.76551C20.4971 2.76551 21.232 3.58752 21.2447 5.23153V9.78762H20.0659V5.22516C20.0616 4.72813 19.9469 4.36067 19.7218 4.12278C19.5009 3.88489 19.1547 3.76594 18.6831 3.76594C18.3008 3.76594 17.9652 3.86789 17.6763 4.0718C17.3875 4.27571 17.1623 4.54334 17.0009 4.87469V9.78762H15.822V2.89296H16.9372Z" fill="black"/>
<path d="M27.2792 9.78762C27.2112 9.65168 27.156 9.40954 27.1135 9.06119C26.5655 9.63044 25.9113 9.91506 25.1509 9.91506C24.4712 9.91506 23.9125 9.7239 23.475 9.34157C23.0417 8.95499 22.825 8.46646 22.825 7.87597C22.825 7.15805 23.0969 6.60154 23.6407 6.20647C24.1887 5.80715 24.9576 5.60749 25.9474 5.60749H27.0944V5.06586C27.0944 4.65379 26.9712 4.32669 26.7248 4.08455C26.4784 3.83816 26.1152 3.71496 25.6352 3.71496C25.2146 3.71496 24.862 3.82116 24.5774 4.03357C24.2928 4.24597 24.1504 4.50298 24.1504 4.8046H22.9652C22.9652 4.4605 23.0863 4.12915 23.3284 3.81054C23.5748 3.48769 23.9062 3.2328 24.3225 3.04589C24.743 2.85897 25.204 2.76551 25.7052 2.76551C26.4996 2.76551 27.122 2.96517 27.5723 3.36449C28.0226 3.75957 28.2562 4.30545 28.2732 5.00214V8.17547C28.2732 8.80843 28.3539 9.31183 28.5154 9.68566V9.78762H27.2792ZM25.3229 8.88915C25.6925 8.88915 26.043 8.79356 26.3743 8.6024C26.7057 8.41123 26.9457 8.16272 27.0944 7.85686V6.44224H26.1704C24.7261 6.44224 24.0039 6.86493 24.0039 7.7103C24.0039 8.07988 24.1271 8.36875 24.3735 8.57691C24.6199 8.78507 24.9363 8.88915 25.3229 8.88915Z" fill="black"/>
<path d="M31.4019 9.78762H30.2231V0H31.4019V9.78762Z" fill="black"/>
<path d="M42.8718 1.51657H39.8896V9.78762H38.6726V1.51657H35.6968V0.509772H42.8718V1.51657Z" fill="black"/>
<path d="M46.9118 3.95073C46.7333 3.92099 46.54 3.90613 46.3319 3.90613C45.5587 3.90613 45.0341 4.23535 44.758 4.89381V9.78762H43.5791V2.89296H44.7261L44.7452 3.68947C45.1318 3.0735 45.6798 2.76551 46.3892 2.76551C46.6186 2.76551 46.7928 2.79525 46.9118 2.85472V3.95073Z" fill="black"/>
<path d="M52.258 9.1058C51.7992 9.64531 51.1259 9.91506 50.238 9.91506C49.5031 9.91506 48.9423 9.70266 48.5558 9.27785C48.1734 8.84879 47.9801 8.21582 47.9759 7.37895V2.89296H49.1547V7.34709C49.1547 8.39212 49.5796 8.91463 50.4292 8.91463C51.3298 8.91463 51.9288 8.57904 52.2261 7.90784V2.89296H53.405V9.78762H52.2835L52.258 9.1058Z" fill="black"/>
<path d="M56.3107 2.89296L56.3425 3.65761C56.8481 3.06288 57.5299 2.76551 58.388 2.76551C59.3523 2.76551 60.0086 3.1351 60.357 3.87427C60.5864 3.54291 60.8837 3.27528 61.2491 3.07138C61.6187 2.86747 62.0541 2.76551 62.5554 2.76551C64.0677 2.76551 64.8366 3.56628 64.8621 5.16781V9.78762H63.6832V5.23791C63.6832 4.74513 63.5707 4.37767 63.3455 4.13552C63.1204 3.88913 62.7423 3.76594 62.2113 3.76594C61.7737 3.76594 61.4105 3.89763 61.1216 4.16101C60.8328 4.42015 60.665 4.77061 60.6182 5.21242V9.78762H59.433V5.26977C59.433 4.26722 58.9424 3.76594 57.9611 3.76594C57.1879 3.76594 56.659 4.09517 56.3744 4.75362V9.78762H55.1955V2.89296H56.3107Z" fill="black"/>
<path d="M72.4704 6.41675C72.4704 7.46603 72.2304 8.3114 71.7504 8.95287C71.2704 9.59433 70.6204 9.91506 69.8005 9.91506C68.9636 9.91506 68.3052 9.64956 67.8251 9.11854V12.4384H66.6463V2.89296H67.7232L67.7805 3.65761C68.2606 3.06288 68.9275 2.76551 69.7814 2.76551C70.6098 2.76551 71.264 3.07775 71.744 3.70222C72.2283 4.32669 72.4704 5.19542 72.4704 6.30843V6.41675ZM71.2916 6.28294C71.2916 5.50554 71.1259 4.89169 70.7946 4.44139C70.4632 3.99109 70.0087 3.76594 69.4309 3.76594C68.7172 3.76594 68.182 4.08242 67.8251 4.71539V8.00979C68.1777 8.63851 68.7172 8.95287 69.4437 8.95287C70.0087 8.95287 70.4568 8.72984 70.7882 8.28379C71.1238 7.83349 71.2916 7.16654 71.2916 6.28294Z" fill="black"/>
<path d="M83.5516 1.51657H80.5694V9.78762H79.3524V1.51657H76.3766V0.509772H83.5516V1.51657Z" fill="black"/>
<path d="M85.922 3.72771C86.4446 3.08624 87.1243 2.76551 87.9611 2.76551C89.4182 2.76551 90.1531 3.58752 90.1659 5.23153V9.78762H88.987V5.22516C88.9828 4.72813 88.8681 4.36067 88.6429 4.12278C88.422 3.88489 88.0758 3.76594 87.6043 3.76594C87.222 3.76594 86.8864 3.86789 86.5975 4.0718C86.3086 4.27571 86.0835 4.54334 85.922 4.87469V9.78762H84.7432V0H85.922V3.72771Z" fill="black"/>
<path d="M93.2118 9.78762H92.0329V2.89296H93.2118V9.78762ZM91.9373 1.06415C91.9373 0.872984 91.9947 0.711556 92.1094 0.579865C92.2283 0.448174 92.4025 0.382329 92.6319 0.382329C92.8613 0.382329 93.0355 0.448174 93.1544 0.579865C93.2734 0.711556 93.3328 0.872984 93.3328 1.06415C93.3328 1.25531 93.2734 1.41462 93.1544 1.54206C93.0355 1.6695 92.8613 1.73322 92.6319 1.73322C92.4025 1.73322 92.2283 1.6695 92.1094 1.54206C91.9947 1.41462 91.9373 1.25531 91.9373 1.06415Z" fill="black"/>
<path d="M97.9654 9.91506C97.0308 9.91506 96.2704 9.6092 95.6842 8.99747C95.0979 8.3815 94.8048 7.55949 94.8048 6.53145V6.3148C94.8048 5.63085 94.9344 5.02125 95.1935 4.48599C95.4569 3.94648 95.8222 3.52592 96.2895 3.22431C96.7611 2.91844 97.2708 2.76551 97.8188 2.76551C98.7152 2.76551 99.4119 3.06076 99.9089 3.65124C100.406 4.24173 100.654 5.0871 100.654 6.18736V6.67801H95.9837C96.0007 7.35771 96.1982 7.90784 96.5763 8.3284C96.9586 8.74471 97.4429 8.95287 98.0291 8.95287C98.4454 8.95287 98.798 8.86791 99.0869 8.69798C99.3758 8.52806 99.6285 8.30291 99.8452 8.02253L100.565 8.58328C99.9875 9.47114 99.1209 9.91506 97.9654 9.91506ZM97.8188 3.73408C97.343 3.73408 96.9437 3.90825 96.6209 4.25659C96.298 4.60069 96.0984 5.08497 96.0219 5.70944H99.4756V5.62023C99.4416 5.02125 99.2802 4.55821 98.9913 4.23111C98.7024 3.89975 98.3116 3.73408 97.8188 3.73408ZM99.7432 1.74597V1.80969H98.7683L97.8125 0.726425L96.863 1.80969H95.8881V1.73322L97.4556 0H98.1693L99.7432 1.74597Z" fill="black"/>
<path d="M103.14 2.89296L103.178 3.75957C103.705 3.09686 104.393 2.76551 105.242 2.76551C106.699 2.76551 107.434 3.58752 107.447 5.23153V9.78762H106.268V5.22516C106.264 4.72813 106.149 4.36067 105.924 4.12278C105.703 3.88489 105.357 3.76594 104.886 3.76594C104.503 3.76594 104.168 3.86789 103.879 4.0718C103.59 4.27571 103.365 4.54334 103.203 4.87469V9.78762H102.024V2.89296H103.14Z" fill="black"/>
<path d="M114.061 1.22345V2.89296H115.349V3.80417H114.061V8.07988C114.061 8.35601 114.119 8.56417 114.233 8.70435C114.348 8.84029 114.544 8.90826 114.82 8.90826C114.956 8.90826 115.143 8.88277 115.38 8.8318V9.78762C115.07 9.87258 114.769 9.91506 114.476 9.91506C113.949 9.91506 113.552 9.75576 113.284 9.43715C113.016 9.11854 112.883 8.66612 112.883 8.07988V3.80417H111.627V2.89296H112.883V1.22345H114.061Z" fill="black"/>
<path d="M120.988 9.78762C120.92 9.65168 120.865 9.40954 120.822 9.06119C120.274 9.63044 119.62 9.91506 118.86 9.91506C118.18 9.91506 117.621 9.7239 117.184 9.34157C116.75 8.95499 116.534 8.46646 116.534 7.87597C116.534 7.15805 116.806 6.60154 117.349 6.20647C117.897 5.80715 118.666 5.60749 119.656 5.60749H120.803V5.06586C120.803 4.65379 120.68 4.32669 120.434 4.08455C120.187 3.83816 119.824 3.71496 119.344 3.71496C118.923 3.71496 118.571 3.82116 118.286 4.03357C118.002 4.24597 117.859 4.50298 117.859 4.8046H116.674C116.674 4.4605 116.795 4.12915 117.037 3.81054C117.284 3.48769 117.615 3.2328 118.031 3.04589C118.452 2.85897 118.913 2.76551 119.414 2.76551C120.208 2.76551 120.831 2.96517 121.281 3.36449C121.731 3.75957 121.965 4.30545 121.982 5.00214V8.17547C121.982 8.80843 122.063 9.31183 122.224 9.68566V9.78762H120.988ZM119.032 8.88915C119.401 8.88915 119.752 8.79356 120.083 8.6024C120.414 8.41123 120.654 8.16272 120.803 7.85686V6.44224H119.879C118.435 6.44224 117.713 6.86493 117.713 7.7103C117.713 8.07988 117.836 8.36875 118.082 8.57691C118.329 8.78507 118.645 8.88915 119.032 8.88915ZM120.217 1.87341H119.204L117.56 0H118.981L120.217 1.87341Z" fill="black"/>
<path d="M125.111 9.78762H123.932V2.89296H125.111V9.78762ZM123.836 1.06415C123.836 0.872984 123.894 0.711556 124.008 0.579865C124.127 0.448174 124.301 0.382329 124.531 0.382329C124.76 0.382329 124.934 0.448174 125.053 0.579865C125.172 0.711556 125.232 0.872984 125.232 1.06415C125.232 1.25531 125.172 1.41462 125.053 1.54206C124.934 1.6695 124.76 1.73322 124.531 1.73322C124.301 1.73322 124.127 1.6695 124.008 1.54206C123.894 1.41462 123.836 1.25531 123.836 1.06415Z" fill="black"/>
<path d="M131.521 9.78762H130.342V0H131.521V9.78762Z" fill="black"/>
<path d="M137.67 9.78762C137.602 9.65168 137.547 9.40954 137.505 9.06119C136.957 9.63044 136.302 9.91506 135.542 9.91506C134.862 9.91506 134.304 9.7239 133.866 9.34157C133.433 8.95499 133.216 8.46646 133.216 7.87597C133.216 7.15805 133.488 6.60154 134.032 6.20647C134.58 5.80715 135.349 5.60749 136.338 5.60749H137.485V5.06586C137.485 4.65379 137.362 4.32669 137.116 4.08455C136.869 3.83816 136.506 3.71496 136.026 3.71496C135.606 3.71496 135.253 3.82116 134.968 4.03357C134.684 4.24597 134.542 4.50298 134.542 4.8046H133.356C133.356 4.4605 133.477 4.12915 133.72 3.81054C133.966 3.48769 134.297 3.2328 134.714 3.04589C135.134 2.85897 135.595 2.76551 136.096 2.76551C136.891 2.76551 137.513 2.96517 137.963 3.36449C138.414 3.75957 138.647 4.30545 138.664 5.00214V8.17547C138.664 8.80843 138.745 9.31183 138.906 9.68566V9.78762H137.67ZM135.714 8.88915C136.084 8.88915 136.434 8.79356 136.765 8.6024C137.097 8.41123 137.337 8.16272 137.485 7.85686V6.44224H136.561C135.117 6.44224 134.395 6.86493 134.395 7.7103C134.395 8.07988 134.518 8.36875 134.765 8.57691C135.011 8.78507 135.327 8.88915 135.714 8.88915ZM138.486 0.203909C138.486 0.662703 138.354 1.03441 138.091 1.31903C137.832 1.60366 137.507 1.74597 137.116 1.74597C136.942 1.74597 136.791 1.72473 136.663 1.68225C136.536 1.63977 136.368 1.55268 136.16 1.42099C135.956 1.2893 135.807 1.21071 135.714 1.18522C135.625 1.15548 135.521 1.14061 135.402 1.14061C135.228 1.14061 135.079 1.20858 134.956 1.34452C134.833 1.47621 134.771 1.64614 134.771 1.85429L133.981 1.80969C133.981 1.35514 134.108 0.979187 134.363 0.68182C134.622 0.384453 134.949 0.235769 135.344 0.235769C135.493 0.235769 135.627 0.25701 135.746 0.299491C135.865 0.341972 136.026 0.42481 136.23 0.548005C136.434 0.6712 136.589 0.751913 136.695 0.790146C136.806 0.828379 136.927 0.847496 137.059 0.847496C137.241 0.847496 137.392 0.775278 137.511 0.630843C137.634 0.486407 137.696 0.318607 137.696 0.127443L138.486 0.203909Z" fill="black"/>
<path d="M141.627 2.89296L141.666 3.75957C142.192 3.09686 142.881 2.76551 143.73 2.76551C145.187 2.76551 145.922 3.58752 145.935 5.23153V9.78762H144.756V5.22516C144.752 4.72813 144.637 4.36067 144.412 4.12278C144.191 3.88489 143.845 3.76594 143.373 3.76594C142.991 3.76594 142.655 3.86789 142.367 4.0718C142.078 4.27571 141.853 4.54334 141.691 4.87469V9.78762H140.512V2.89296H141.627Z" fill="black"/>
<path d="M148.892 3.72771C149.414 3.08624 150.094 2.76551 150.931 2.76551C152.388 2.76551 153.123 3.58752 153.135 5.23153V9.78762H151.957V5.22516C151.952 4.72813 151.838 4.36067 151.613 4.12278C151.392 3.88489 151.045 3.76594 150.574 3.76594C150.192 3.76594 149.856 3.86789 149.567 4.0718C149.278 4.27571 149.053 4.54334 148.892 4.87469V9.78762H147.713V0H148.892V3.72771Z" fill="black"/>
<path d="M164.867 1.93076H163.669V9.78762H162.585L162.528 9.04845C162.056 9.62619 161.4 9.91506 160.559 9.91506C159.76 9.91506 159.108 9.58796 158.603 8.93375C158.101 8.27954 157.851 7.42568 157.851 6.37215V6.28294C157.851 5.22516 158.101 4.37554 158.603 3.73408C159.104 3.08837 159.76 2.76551 160.572 2.76551C161.379 2.76551 162.018 3.04164 162.49 3.59389V1.93076H160.808V0.968566H162.49V0H163.669V0.968566H164.867V1.93076ZM159.03 6.41675C159.03 7.1984 159.191 7.81013 159.514 8.25193C159.837 8.69373 160.283 8.91463 160.852 8.91463C161.6 8.91463 162.146 8.57904 162.49 7.90784V4.74088C162.137 4.09092 161.596 3.76594 160.865 3.76594C160.287 3.76594 159.837 3.98896 159.514 4.43501C159.191 4.88107 159.03 5.54164 159.03 6.41675Z" fill="black"/>
<path d="M170.194 9.78762C170.126 9.65168 170.07 9.40954 170.028 9.06119C169.48 9.63044 168.826 9.91506 168.065 9.91506C167.386 9.91506 166.827 9.7239 166.39 9.34157C165.956 8.95499 165.74 8.46646 165.74 7.87597C165.74 7.15805 166.011 6.60154 166.555 6.20647C167.103 5.80715 167.872 5.60749 168.862 5.60749H170.009V5.06586C170.009 4.65379 169.886 4.32669 169.639 4.08455C169.393 3.83816 169.03 3.71496 168.55 3.71496C168.129 3.71496 167.777 3.82116 167.492 4.03357C167.207 4.24597 167.065 4.50298 167.065 4.8046H165.88C165.88 4.4605 166.001 4.12915 166.243 3.81054C166.489 3.48769 166.821 3.2328 167.237 3.04589C167.658 2.85897 168.119 2.76551 168.62 2.76551C169.414 2.76551 170.037 2.96517 170.487 3.36449C170.937 3.75957 171.171 4.30545 171.188 5.00214V8.17547C171.188 8.80843 171.268 9.31183 171.43 9.68566V9.78762H170.194ZM168.237 8.88915C168.607 8.88915 168.957 8.79356 169.289 8.6024C169.62 8.41123 169.86 8.16272 170.009 7.85686V6.44224H169.085C167.641 6.44224 166.918 6.86493 166.918 7.7103C166.918 8.07988 167.042 8.36875 167.288 8.57691C167.534 8.78507 167.851 8.88915 168.237 8.88915ZM167.505 11.3488C167.505 11.1576 167.562 10.9962 167.677 10.8645C167.796 10.7328 167.97 10.667 168.199 10.667C168.429 10.667 168.603 10.7328 168.722 10.8645C168.841 10.9962 168.9 11.1576 168.9 11.3488C168.9 11.54 168.841 11.6993 168.722 11.8267C168.603 11.9541 168.429 12.0179 168.199 12.0179C167.97 12.0179 167.796 11.9541 167.677 11.8267C167.562 11.6993 167.505 11.54 167.505 11.3488Z" fill="black"/>
<path d="M172.723 6.27657C172.723 5.60112 172.855 4.99364 173.119 4.45413C173.386 3.91462 173.756 3.49831 174.227 3.20519C174.703 2.91207 175.245 2.76551 175.852 2.76551C176.791 2.76551 177.549 3.09049 178.127 3.74045C178.709 4.39041 179 5.2549 179 6.33391V6.41675C179 7.08795 178.87 7.69118 178.611 8.22644C178.356 8.75746 177.989 9.17164 177.509 9.46901C177.033 9.76638 176.485 9.91506 175.865 9.91506C174.93 9.91506 174.172 9.59008 173.59 8.94012C173.012 8.29016 172.723 7.42992 172.723 6.3594V6.27657ZM173.909 6.41675C173.909 7.18141 174.085 7.79526 174.438 8.2583C174.794 8.72135 175.27 8.95287 175.865 8.95287C176.464 8.95287 176.94 8.71922 177.292 8.25193C177.645 7.78039 177.821 7.12194 177.821 6.27657C177.821 5.5204 177.641 4.90868 177.28 4.44139C176.923 3.96985 176.447 3.73408 175.852 3.73408C175.27 3.73408 174.801 3.9656 174.444 4.42864C174.087 4.89169 173.909 5.55439 173.909 6.41675Z" fill="black"/>
</svg>
