<svg width="93" height="13" viewBox="0 0 93 13" fill="none" xmlns="http://www.w3.org/2000/svg">
<path d="M1.58092 0.509973L4.61526 8.08308L7.6496 0.509973H9.23689V9.79149H8.01295V6.17705L8.1277 2.27576L5.08061 9.79149H4.14353L1.10282 2.29488L1.22394 6.17705V9.79149H0V0.509973H1.58092Z" fill="black"/>
<path d="M12.4943 9.79149H11.315V2.8941H12.4943V9.79149ZM11.2194 1.06457C11.2194 0.873329 11.2768 0.711838 11.3915 0.580095C11.5105 0.448352 11.6848 0.38248 11.9143 0.38248C12.1437 0.38248 12.318 0.448352 12.437 0.580095C12.556 0.711838 12.6155 0.873329 12.6155 1.06457C12.6155 1.25581 12.556 1.41518 12.437 1.54267C12.318 1.67016 12.1437 1.73391 11.9143 1.73391C11.6848 1.73391 11.5105 1.67016 11.3915 1.54267C11.2768 1.41518 11.2194 1.25581 11.2194 1.06457Z" fill="black"/>
<path d="M15.5032 2.8941L15.5414 3.76105C16.0684 3.09809 16.7569 2.7666 17.6068 2.7666C19.0645 2.7666 19.7997 3.58894 19.8125 5.2336V9.79149H18.6331V5.22723C18.6289 4.73 18.5142 4.3624 18.2889 4.12441C18.0679 3.88642 17.7216 3.76743 17.2498 3.76743C16.8674 3.76743 16.5316 3.86942 16.2426 4.07341C15.9537 4.2774 15.7284 4.54514 15.5669 4.87662V9.79149H14.3876V2.8941H15.5032Z" fill="black"/>
<path d="M22.7703 3.72918C23.293 3.08746 23.973 2.7666 24.8102 2.7666C26.2679 2.7666 27.0031 3.58894 27.0158 5.2336V9.79149H25.8365V5.22723C25.8323 4.73 25.7175 4.3624 25.4923 4.12441C25.2713 3.88642 24.9249 3.76743 24.4532 3.76743C24.0707 3.76743 23.735 3.86942 23.446 4.07341C23.157 4.2774 22.9318 4.54514 22.7703 4.87662V9.79149H21.591V0H22.7703V3.72918Z" fill="black"/>
<path d="M33.4351 8.79066H37.8336V9.79149H32.2048V0.509973H33.4351V8.79066Z" fill="black"/>
<path d="M38.7325 6.27905C38.7325 5.60333 38.8642 4.99561 39.1277 4.45589C39.3954 3.91617 39.7652 3.49969 40.2369 3.20646C40.7129 2.91322 41.2547 2.7666 41.8624 2.7666C42.8016 2.7666 43.5602 3.09171 44.1382 3.74193C44.7204 4.39214 45.0115 5.25697 45.0115 6.33642V6.41929C45.0115 7.09075 44.8819 7.69422 44.6227 8.22969C44.3677 8.76092 44.0001 9.17527 43.5198 9.47275C43.0439 9.77024 42.4956 9.91898 41.8752 9.91898C40.9402 9.91898 40.1816 9.59387 39.5994 8.94366C39.0215 8.29344 38.7325 7.43286 38.7325 6.36192V6.27905ZM39.9182 6.41929C39.9182 7.18425 40.0945 7.79834 40.4473 8.26157C40.8042 8.72479 41.2802 8.95641 41.8752 8.95641C42.4744 8.95641 42.9504 8.72267 43.3031 8.25519C43.6558 7.78347 43.8322 7.12475 43.8322 6.27905C43.8322 5.52259 43.6516 4.91062 43.2904 4.44314C42.9334 3.97142 42.4574 3.73555 41.8624 3.73555C41.2802 3.73555 40.8106 3.96717 40.4536 4.43039C40.0966 4.89362 39.9182 5.55658 39.9182 6.41929Z" fill="black"/>
<path d="M47.606 2.8941L47.6443 3.76105C48.1712 3.09809 48.8597 2.7666 49.7096 2.7666C51.1673 2.7666 51.9025 3.58894 51.9153 5.2336V9.79149H50.736V5.22723C50.7317 4.73 50.617 4.3624 50.3917 4.12441C50.1707 3.88642 49.8244 3.76743 49.3527 3.76743C48.9702 3.76743 48.6345 3.86942 48.3455 4.07341C48.0565 4.2774 47.8312 4.54514 47.6698 4.87662V9.79149H46.4904V2.8941H47.606Z" fill="black"/>
<path d="M53.4133 6.28542C53.4133 5.21023 53.6619 4.35602 54.1592 3.7228C54.6564 3.08534 55.3151 2.7666 56.1353 2.7666C56.9768 2.7666 57.6334 3.06409 58.1051 3.65906L58.1625 2.8941H59.2398V9.62575C59.2398 10.5182 58.9742 11.2215 58.4429 11.7358C57.916 12.25 57.2063 12.5071 56.3138 12.5071C55.8166 12.5071 55.33 12.4009 54.854 12.1884C54.378 11.9759 54.0147 11.6848 53.7639 11.315L54.3759 10.6074C54.8816 11.2322 55.5 11.5445 56.2309 11.5445C56.8046 11.5445 57.2509 11.383 57.5696 11.06C57.8926 10.7371 58.0541 10.2823 58.0541 9.69587V9.10302C57.5824 9.64699 56.9385 9.91898 56.1226 9.91898C55.3151 9.91898 54.6606 9.59387 54.1592 8.94366C53.6619 8.29344 53.4133 7.40736 53.4133 6.28542ZM54.599 6.41929C54.599 7.197 54.7584 7.80897 55.0771 8.25519C55.3958 8.69717 55.8421 8.91816 56.4158 8.91816C57.1595 8.91816 57.7056 8.5803 58.0541 7.90459V4.7555C57.6929 4.09679 57.151 3.76743 56.4285 3.76743C55.8548 3.76743 55.4065 3.99054 55.0835 4.43677C54.7605 4.88299 54.599 5.54383 54.599 6.41929Z" fill="black"/>
<path d="M64.4479 9.79149V0.509973H67.4822C68.4894 0.509973 69.2459 0.718212 69.7516 1.13469C70.2616 1.55117 70.5166 2.16739 70.5166 2.98334C70.5166 3.41682 70.3933 3.80143 70.1468 4.13716C69.9003 4.46864 69.5646 4.72575 69.1396 4.90849C69.6411 5.04874 70.0363 5.31647 70.3253 5.7117C70.6185 6.10268 70.7652 6.57016 70.7652 7.11413C70.7652 7.94708 70.4953 8.60155 69.9556 9.07752C69.4159 9.5535 68.653 9.79149 67.6671 9.79149H64.4479ZM65.6718 5.45034V8.79066H67.6926C68.262 8.79066 68.7104 8.64405 69.0376 8.35081C69.3691 8.05333 69.5349 7.64535 69.5349 7.12688C69.5349 6.00919 68.9271 5.45034 67.7117 5.45034H65.6718ZM65.6718 4.46864H67.5205C68.0559 4.46864 68.483 4.33477 68.8018 4.06704C69.1248 3.7993 69.2862 3.43594 69.2862 2.97697C69.2862 2.467 69.1375 2.09727 68.84 1.86778C68.5425 1.63404 68.0899 1.51717 67.4822 1.51717H65.6718V4.46864Z" fill="black"/>
<path d="M72.0847 6.27905C72.0847 5.60333 72.2165 4.99561 72.48 4.45589C72.7477 3.91617 73.1174 3.49969 73.5891 3.20646C74.0651 2.91322 74.607 2.7666 75.2147 2.7666C76.1539 2.7666 76.9125 3.09171 77.4904 3.74193C78.0727 4.39214 78.3638 5.25697 78.3638 6.33642V6.41929C78.3638 7.09075 78.2342 7.69422 77.9749 8.22969C77.7199 8.76092 77.3523 9.17527 76.8721 9.47275C76.3961 9.77024 75.8479 9.91898 75.2274 9.91898C74.2925 9.91898 73.5339 9.59387 72.9517 8.94366C72.3737 8.29344 72.0847 7.43286 72.0847 6.36192V6.27905ZM73.2704 6.41929C73.2704 7.18425 73.4468 7.79834 73.7995 8.26157C74.1565 8.72479 74.6325 8.95641 75.2274 8.95641C75.8267 8.95641 76.3026 8.72267 76.6554 8.25519C77.0081 7.78347 77.1845 7.12475 77.1845 6.27905C77.1845 5.52259 77.0038 4.91062 76.6426 4.44314C76.2856 3.97142 75.8096 3.73555 75.2147 3.73555C74.6325 3.73555 74.1629 3.96717 73.8059 4.43039C73.4489 4.89362 73.2704 5.55658 73.2704 6.41929Z" fill="black"/>
<path d="M79.5303 6.27905C79.5303 5.60333 79.6621 4.99561 79.9256 4.45589C80.1933 3.91617 80.563 3.49969 81.0348 3.20646C81.5107 2.91322 82.0526 2.7666 82.6603 2.7666C83.5995 2.7666 84.3581 3.09171 84.936 3.74193C85.5183 4.39214 85.8094 5.25697 85.8094 6.33642V6.41929C85.8094 7.09075 85.6798 7.69422 85.4205 8.22969C85.1655 8.76092 84.7979 9.17527 84.3177 9.47275C83.8417 9.77024 83.2935 9.91898 82.673 9.91898C81.7381 9.91898 80.9795 9.59387 80.3973 8.94366C79.8193 8.29344 79.5303 7.43286 79.5303 6.36192V6.27905ZM80.716 6.41929C80.716 7.18425 80.8924 7.79834 81.2451 8.26157C81.6021 8.72479 82.0781 8.95641 82.673 8.95641C83.2723 8.95641 83.7482 8.72267 84.101 8.25519C84.4537 7.78347 84.6301 7.12475 84.6301 6.27905C84.6301 5.52259 84.4495 4.91062 84.0882 4.44314C83.7312 3.97142 83.2553 3.73555 82.6603 3.73555C82.0781 3.73555 81.6085 3.96717 81.2515 4.43039C80.8945 4.89362 80.716 5.55658 80.716 6.41929Z" fill="black"/>
<path d="M89.2134 6.59778L88.474 7.36911V9.79149H87.2947V0H88.474V5.92206L89.1051 5.16348L91.2533 2.8941H92.6876L90.0039 5.77545L93 9.79149H91.6167L89.2134 6.59778Z" fill="black"/>
</svg>
