<svg width="32" height="13" viewBox="0 0 32 13" fill="none" xmlns="http://www.w3.org/2000/svg">
<path d="M8.84636 8.47546C8.70432 9.69075 8.2545 10.6298 7.49692 11.2927C6.7446 11.9503 5.74238 12.2792 4.49026 12.2792C3.13292 12.2792 2.0439 11.7925 1.22318 10.8192C0.407727 9.84595 0 8.54386 0 6.91295V5.80814C0 4.74016 0.189396 3.80107 0.568187 2.99088C0.95224 2.18068 1.49412 1.55988 2.19383 1.12848C2.89355 0.691821 3.70374 0.47349 4.62441 0.47349C5.84497 0.47349 6.82351 0.815454 7.56005 1.49938C8.29659 2.17805 8.72536 3.11977 8.84636 4.32454H7.3233C7.19178 3.40912 6.90506 2.74624 6.46313 2.33588C6.02647 1.92552 5.41356 1.72035 4.62441 1.72035C3.65639 1.72035 2.89618 2.07809 2.34377 2.79359C1.79663 3.50908 1.52306 4.52709 1.52306 5.8476V6.9603C1.52306 8.20715 1.78348 9.19885 2.30432 9.93539C2.82515 10.6719 3.5538 11.0402 4.49026 11.0402C5.33202 11.0402 5.97649 10.8508 6.42367 10.472C6.87612 10.088 7.176 9.42244 7.3233 8.47546H8.84636Z" fill="white"/>
<path d="M12.1529 4.61652C12.8 3.82211 13.6418 3.42491 14.6782 3.42491C16.4827 3.42491 17.3928 4.44291 17.4086 6.47891V12.1213H15.9487V6.47102C15.9434 5.85549 15.8014 5.40041 15.5226 5.1058C15.249 4.81118 14.8202 4.66387 14.2363 4.66387C13.7628 4.66387 13.3471 4.79014 12.9894 5.04266C12.6316 5.29519 12.3528 5.62663 12.1529 6.03699V12.1213H10.693V0H12.1529V4.61652Z" fill="white"/>
<path d="M24.8661 12.1213C24.7819 11.953 24.7135 11.6531 24.6609 11.2217C23.9822 11.9267 23.1721 12.2792 22.2303 12.2792C21.3886 12.2792 20.6968 12.0424 20.1549 11.5689C19.6182 11.0902 19.3499 10.4852 19.3499 9.75388C19.3499 8.86478 19.6866 8.17559 20.36 7.68631C21.0387 7.19178 21.991 6.94451 23.2168 6.94451H24.6372V6.27374C24.6372 5.76342 24.4847 5.35832 24.1795 5.05845C23.8744 4.75331 23.4246 4.60074 22.8301 4.60074C22.3092 4.60074 21.8726 4.73226 21.5201 4.99531C21.1676 5.25836 20.9914 5.57665 20.9914 5.95018H19.5236C19.5236 5.52404 19.6735 5.11369 19.9734 4.71911C20.2785 4.31928 20.6889 4.00362 21.2044 3.77213C21.7253 3.54065 22.2961 3.42491 22.9169 3.42491C23.9007 3.42491 24.6714 3.67217 25.2291 4.16671C25.7868 4.65598 26.0761 5.33202 26.0972 6.19482V10.1248C26.0972 10.9087 26.1971 11.5321 26.397 11.9951V12.1213H24.8661ZM22.4434 11.0086C22.9011 11.0086 23.3351 10.8903 23.7455 10.6535C24.1559 10.4168 24.4531 10.109 24.6372 9.73021V7.9783H23.493C21.7042 7.9783 20.8099 8.50177 20.8099 9.54871C20.8099 10.0064 20.9624 10.3642 21.2676 10.6219C21.5727 10.8797 21.9647 11.0086 22.4434 11.0086Z" fill="white"/>
<path d="M30.3665 1.51517V3.58274H31.9605V4.71122H30.3665V10.0064C30.3665 10.3484 30.4375 10.6062 30.5795 10.7798C30.7216 10.9481 30.9636 11.0323 31.3055 11.0323C31.4739 11.0323 31.7054 11.0007 32 10.9376V12.1213C31.6159 12.2266 31.2424 12.2792 30.8794 12.2792C30.227 12.2792 29.7351 12.0819 29.4037 11.6873C29.0723 11.2927 28.9065 10.7324 28.9065 10.0064V4.71122H27.3519V3.58274H28.9065V1.51517H30.3665Z" fill="white"/>
</svg>
