<svg width="360" height="49" viewBox="0 0 360 49" fill="none" xmlns="http://www.w3.org/2000/svg">
<path d="M0 0H360V49H0V0Z" fill="#1BA9FF"/>
<path d="M191.446 21.7624L180.808 12.4573C180.462 12.1548 180.006 11.9911 179.537 12.0004C179.067 12.0097 178.619 12.1913 178.287 12.5072L168.502 21.8094L168 22.2867V36H177.429V27.4437H182.571V36H192V22.2466L191.446 21.7624ZM179.573 13.6298C179.589 13.6298 179.579 13.6329 179.573 13.639C179.566 13.6329 179.558 13.6298 179.573 13.6298ZM190.286 34.3702H184.286V27.4437C184.286 27.0114 184.105 26.5969 183.784 26.2912C183.462 25.9856 183.026 25.8139 182.571 25.8139H177.429C176.974 25.8139 176.538 25.9856 176.216 26.2912C175.895 26.5969 175.714 27.0114 175.714 27.4437V34.3702H169.714V22.9618L179.573 13.6596C179.574 13.659 179.574 13.6584 179.575 13.6578L190.286 22.9618V34.3702Z" fill="black"/>
<path fill-rule="evenodd" clip-rule="evenodd" d="M180.679 12.6043C180.371 12.3346 179.963 12.1873 179.54 12.1956C179.118 12.204 178.717 12.3673 178.421 12.6487L168.637 21.9509L168.195 22.3705V35.8047H177.233V27.2483H182.767V35.8047H191.805V22.3352L180.679 12.6043ZM192 22.2466V36H182.571V27.4437H177.429V36H168V22.2867L178.287 12.5072C178.619 12.1913 179.067 12.0097 179.537 12.0004C180.006 11.9911 180.462 12.1548 180.808 12.4573L192 22.2466ZM169.714 22.9618V34.3702H175.714V27.4437C175.714 27.0114 175.895 26.5969 176.216 26.2912C176.538 25.9856 176.974 25.8139 177.429 25.8139H182.571C183.026 25.8139 183.462 25.9856 183.784 26.2912C184.105 26.5969 184.286 27.0114 184.286 27.4437V34.3702H190.286V22.9618L179.575 13.6578C179.575 13.6578 179.575 13.6578 179.575 13.6578C179.575 13.6581 179.574 13.6584 179.574 13.6587C179.574 13.659 179.574 13.6593 179.573 13.6596L169.714 22.9618ZM179.377 13.5764L169.519 22.8775V34.5655H175.91V27.4437C175.91 27.0665 176.067 26.7027 176.351 26.4328C176.635 26.1626 177.023 26.0092 177.429 26.0092H182.571C182.977 26.0092 183.365 26.1626 183.649 26.4328C183.933 26.7027 184.09 27.0665 184.09 27.4437V34.5655H190.481V22.8727L179.765 13.5646C179.734 13.4757 179.654 13.4491 179.643 13.4453C179.635 13.4427 179.628 13.4407 179.621 13.4393L179.556 13.3829L179.5 13.4464C179.478 13.4543 179.429 13.4766 179.396 13.5329C179.387 13.5476 179.381 13.5622 179.377 13.5764ZM179.403 13.5515L179.431 13.5254L179.448 13.5058L179.44 13.4971C179.437 13.5005 179.433 13.5043 179.43 13.5086C179.427 13.5123 179.414 13.5277 179.403 13.5515ZM179.565 13.6308C179.564 13.6318 179.566 13.6334 179.569 13.6357C179.57 13.6367 179.571 13.6378 179.573 13.639C179.573 13.6392 179.573 13.6388 179.573 13.639C179.574 13.6377 179.576 13.6359 179.578 13.6349C179.581 13.6327 179.583 13.6311 179.581 13.6304C179.579 13.63 179.577 13.6298 179.573 13.6298C179.569 13.6298 179.566 13.6301 179.565 13.6308ZM179.695 13.5037L179.737 13.5403C179.736 13.5384 179.735 13.5367 179.734 13.5352C179.723 13.5153 179.71 13.5013 179.703 13.4946L179.695 13.5037ZM179.405 13.5618C179.405 13.5608 179.406 13.559 179.408 13.5566L179.405 13.5618Z" fill="white"/>
<path fill-rule="evenodd" clip-rule="evenodd" d="M311.786 16.3608L318.26 12.4274L317.74 11.5728L308.214 17.3608H333.5V35.5001H310V36.5001H334.5V16.3608H311.786Z" fill="black"/>
<path fill-rule="evenodd" clip-rule="evenodd" d="M45 18.5H22V17.5H45V18.5Z" fill="black"/>
<path fill-rule="evenodd" clip-rule="evenodd" d="M45 24.8665H22V23.8665H45V24.8665Z" fill="black"/>
<path fill-rule="evenodd" clip-rule="evenodd" d="M45 31.353H22V30.353H45V31.353Z" fill="black"/>
</svg>
